<?xml version="1.0" standalone="no"?>
<!DOCTYPE svg PUBLIC "-//W3C//DTD SVG 1.1//EN" "http://www.w3.org/Graphics/SVG/1.1/DTD/svg11.dtd" >
<svg xmlns="http://www.w3.org/2000/svg" xmlns:xlink="http://www.w3.org/1999/xlink" version="1.1">
<metadata>
Created by Christoph Koeberlin (http://christoph.koe.berlin)
Copyright (c) 2017 Swiss Typefaces Sarl. All rights reserved.
</metadata>
<defs>
<font id="Font" horiz-adv-x="0" >
  <font-face 
    font-family="Font"
    font-weight="400"
    font-stretch="normal"
    units-per-em="1000"
    panose-1="2 11 5 4 0 0 0 0 0 0"
    ascent="800"
    descent="-200"
    x-height="500"
    cap-height="710"
    bbox="-361 -269 1382 1000"
    underline-thickness="75"
    underline-position="-90"
    unicode-range="U+0020-FEFF"
  />
<missing-glyph horiz-adv-x="682" 
d="M591 710v-710h-500v710h500zM341 370l216 321h-432zM110 28l220 327l-220 327v-654zM572 682l-221 -327l221 -327v654zM557 19l-216 320l-216 -320h432z" />
    <glyph glyph-name="f_f.liga" unicode="ff" horiz-adv-x="717" 
d="M17 421v79h106v103q0 75 42.5 114t110.5 39q42 0 78 -13v-76q-11 4 -29 7t-33 3q-43 0 -63 -19.5t-20 -65.5v-92h123v-79h-123v-421h-86v421h-106zM387 421v79h86v103q0 75 42.5 114t110.5 39q42 0 78 -13v-76q-27 10 -63 10q-42 0 -62 -19.5t-20 -65.5v-92h145v-79h-145
v-421h-86v421h-86z" />
    <glyph glyph-name="f_i.liga" unicode="fi" horiz-adv-x="615" 
d="M17 421v79h106v101q0 75 42.5 115t110.5 40q42 0 78 -13v-76q-27 10 -62 10q-43 0 -63 -19.5t-20 -65.5v-92h145v-79h-145v-421h-86v421h-106zM430 695q0 25 18.5 43t43.5 18t42.5 -18t17.5 -43q0 -26 -17.5 -43.5t-42.5 -17.5q-26 0 -44 18t-18 43zM534 500v-500h-86
v500h86z" />
    <glyph glyph-name="f_f_i.liga" unicode="ffi" horiz-adv-x="967" 
d="M782 695q0 25 18.5 43t43.5 18t42.5 -18t17.5 -43q0 -26 -17.5 -43.5t-42.5 -17.5q-26 0 -44 18t-18 43zM886 500v-500h-86v500h86zM17 421v79h106v103q0 75 42.5 114t110.5 39q42 0 78 -13v-76q-11 4 -29 7t-33 3q-43 0 -63 -19.5t-20 -65.5v-92h123v-79h-123v-421h-86
v421h-106zM387 421v79h86v103q0 75 42.5 114t110.5 39q42 0 78 -13v-76q-27 10 -63 10q-42 0 -62 -19.5t-20 -65.5v-92h145v-79h-145v-421h-86v421h-86z" />
    <glyph glyph-name="f_l.liga" unicode="fl" horiz-adv-x="615" 
d="M17 421v79h106v101q0 75 42.5 115t110.5 40q42 0 78 -13v-76q-27 10 -62 10q-43 0 -63 -19.5t-20 -65.5v-92h145v-79h-145v-421h-86v421h-106zM534 750v-750h-86v750h86z" />
    <glyph glyph-name="f_f_l.liga" unicode="ffl" horiz-adv-x="965" 
d="M884 750v-750h-86v750h86zM17 421v79h106v103q0 75 42.5 114t110.5 39q42 0 78 -13v-76q-11 4 -29 7t-33 3q-43 0 -63 -19.5t-20 -65.5v-92h123v-79h-123v-421h-86v421h-106zM387 421v79h86v103q0 75 42.5 114t110.5 39q42 0 78 -13v-76q-27 10 -63 10q-42 0 -62 -19.5
t-20 -65.5v-92h145v-79h-145v-421h-86v421h-86z" />
    <glyph glyph-name="f_t.liga" unicode="ft" horiz-adv-x="751" 
d="M17 421v79h106v103q0 75 42.5 114t110.5 39q42 0 78 -13v-76q-27 10 -62 10q-43 0 -63 -19.5t-20 -65.5v-92h132v-79h-132v-421h-86v421h-106zM491 148v273h-94v79h94v139h86v-139h145v-79h-145v-262q0 -46 20.5 -65.5t62.5 -19.5q35 0 62 10v-77q-38 -12 -77 -12
q-69 0 -111.5 39t-42.5 114z" />
    <glyph glyph-name="t_t.liga" unicode="tt" horiz-adv-x="731" 
d="M122 148v273h-106v79h106v139h86v-139h122v-79h-122v-262q0 -46 20.5 -65.5t62.5 -19.5q34 0 61 10v-77q-36 -12 -77 -12q-68 0 -110.5 39t-42.5 114zM472 148v273h-86v79h86v139h86v-139h144v-79h-144v-262q0 -46 20.5 -65.5t62.5 -19.5q34 0 61 10v-77q-36 -12 -77 -12
q-68 0 -110.5 39t-42.5 114z" />
    <glyph glyph-name=".notdef" horiz-adv-x="682" 
d="M591 710v-710h-500v710h500zM341 370l216 321h-432zM110 28l220 327l-220 327v-654zM572 682l-221 -327l221 -327v654zM557 19l-216 320l-216 -320h432z" />
    <glyph glyph-name="glyph1" 
 />
    <glyph glyph-name="glyph2" horiz-adv-x="244" 
 />
    <glyph glyph-name="space" unicode=" " horiz-adv-x="244" 
 />
    <glyph glyph-name="exclam" unicode="!" horiz-adv-x="271" 
d="M92 710h87v-284l-17 -204h-53l-17 204v284zM61 67q0 30 22 52.5t52 22.5t52 -22.5t22 -52.5q0 -31 -21.5 -53t-52.5 -22t-52.5 22t-21.5 53z" />
    <glyph glyph-name="quotedbl" unicode="&#x22;" horiz-adv-x="413" 
d="M144 710v-247h-78v247h78zM346 710v-247h-78v247h78z" />
    <glyph glyph-name="numbersign" unicode="#" horiz-adv-x="737" 
d="M228 200l-61 -200h-80l62 200h-116v73h139l54 171h-120v73h143l60 193h79l-60 -193h180l61 193h78l-60 -193h116v-73h-139l-53 -171h120v-73h-144l-61 -200h-79l62 200h-181zM432 273l53 171h-180l-53 -171h180z" />
    <glyph glyph-name="dollar" unicode="$" horiz-adv-x="522" 
d="M291 -9v-79h-54v80q-82 10 -136 63t-56 145h86q7 -54 34.5 -84.5t71.5 -39.5v249l-34 13q-154 61 -154 202q0 79 53 127.5t135 53.5v77h54v-78q71 -11 121 -58t50 -121h-86q-6 37 -28 61.5t-57 32.5v-234l25 -10q81 -32 121.5 -82.5t40.5 -125.5q0 -88 -51.5 -137.5
t-135.5 -54.5zM237 422v216q-47 -5 -74.5 -32t-27.5 -66q0 -40 24 -67.5t78 -50.5zM392 177q0 46 -25 75t-76 51v-229q44 5 72.5 33.5t28.5 69.5z" />
    <glyph glyph-name="percent" unicode="%" horiz-adv-x="991" 
d="M32 521q0 54 26.5 99t71.5 71.5t99 26.5q53 0 98.5 -26.5t72 -71.5t26.5 -99q0 -53 -26.5 -98.5t-72 -72t-98.5 -26.5q-54 0 -99 26.5t-71.5 72t-26.5 98.5zM317 0h-93l450 710h93zM347 521q0 32 -16 59t-43 43.5t-59 16.5q-49 0 -83.5 -35.5t-34.5 -83.5t34.5 -83.5
t83.5 -35.5q32 0 59 16.5t43 43.5t16 59zM565 189q0 54 26.5 99t71.5 71.5t99 26.5q53 0 98.5 -26.5t72 -71.5t26.5 -99q0 -53 -26.5 -98.5t-72 -72t-98.5 -26.5q-54 0 -99 26.5t-71.5 72t-26.5 98.5zM880 189q0 32 -16 59t-43 43.5t-59 16.5q-49 0 -83.5 -35.5t-34.5 -83.5
t34.5 -83.5t83.5 -35.5q32 0 59 16.5t43 43.5t16 59z" />
    <glyph glyph-name="ampersand" unicode="&#x26;" horiz-adv-x="745" 
d="M634 0l-121 118q-57 -67 -109.5 -97.5t-119.5 -30.5q-64 0 -113.5 26.5t-77 73t-27.5 104.5q0 70 41 116.5t110 86.5l5 3q-39 38 -62.5 76.5t-23.5 84.5q0 47 24 83.5t65.5 57t91.5 20.5q51 0 91 -22t62 -60t22 -83q0 -60 -37.5 -100.5t-99.5 -73.5l151 -148l84 107h100
l-127 -162l184 -180h-113zM299 437l5 2q51 26 77 50.5t26 61.5q0 42 -25 69t-67 27q-40 0 -68 -24t-28 -64q0 -32 18.5 -57t61.5 -65zM457 172l-178 173l-13 -8q-57 -30 -85 -63t-28 -81q0 -57 39.5 -91t94.5 -34q46 0 85 24.5t85 79.5z" />
    <glyph glyph-name="quotesingle" unicode="'" horiz-adv-x="211" 
d="M144 710v-247h-78v247h78z" />
    <glyph glyph-name="parenleft" unicode="(" horiz-adv-x="275" 
d="M47 320q0 248 128 480h70q-63 -122 -92 -238.5t-29 -241.5t29 -241.5t92 -238.5h-70q-128 232 -128 480z" />
    <glyph glyph-name="parenright" unicode=")" horiz-adv-x="274" 
d="M227 320q0 -248 -128 -480h-70q63 122 92 238.5t29 241.5t-29 241.5t-92 238.5h70q128 -232 128 -480z" />
    <glyph glyph-name="asterisk" unicode="*" horiz-adv-x="440" 
d="M165 518l-126 42l19 64l128 -42v128h67v-128l127 41l21 -63l-127 -42l79 -107l-54 -39l-79 107l-78 -107l-54 39z" />
    <glyph glyph-name="plus" unicode="+" horiz-adv-x="500" 
d="M211 328v172h78v-172h172v-77h-172v-172h-78v172h-173v77h173z" />
    <glyph glyph-name="comma" unicode="," horiz-adv-x="256" 
d="M28 -143l67 143q-18 9 -29.5 27t-11.5 40q0 30 22 52.5t52 22.5t52 -22.5t22 -52.5q0 -22 -14 -45l-103 -165h-57z" />
    <glyph glyph-name="hyphen" unicode="-" horiz-adv-x="386" 
d="M320 323v-86h-255v86h255z" />
    <glyph glyph-name="period" unicode="." horiz-adv-x="252" 
d="M52 67q0 30 22 52.5t52 22.5t52 -22.5t22 -52.5q0 -31 -21.5 -53t-52.5 -22t-52.5 22t-21.5 53z" />
    <glyph glyph-name="slash" unicode="/" horiz-adv-x="509" 
d="M488 710l-386 -820h-81l386 820h81z" />
    <glyph glyph-name="zero" unicode="0" horiz-adv-x="623" 
d="M60 257v198q0 77 32 138t89.5 95t129.5 34t129.5 -34t90 -95t32.5 -138v-198q0 -78 -32.5 -138.5t-90 -94.5t-129.5 -34t-129.5 34t-89.5 94.5t-32 138.5zM477 257v198q0 85 -46 134t-120 49q-73 0 -119 -49t-46 -134v-198q0 -85 46 -134t119 -49q74 0 120 49t46 134z
" />
    <glyph glyph-name="one" unicode="1" horiz-adv-x="323" 
d="M6 625l70 85h153v-710h-86v625h-137z" />
    <glyph glyph-name="two" unicode="2" horiz-adv-x="558" 
d="M49 0v34q0 61 26.5 108.5t65 81t102.5 78.5q8 6 19.5 14t24.5 18q48 36 73 59.5t39 52.5t14 69q0 55 -36 89t-94 34q-62 0 -104 -37t-43 -103h-88q0 66 31 117t84.5 79t118.5 28q60 0 110 -24t79.5 -70.5t29.5 -113.5q0 -76 -37 -129.5t-127 -118.5q-30 -22 -45 -32
q-64 -43 -96 -74.5t-41 -76.5h354v-83h-460z" />
    <glyph glyph-name="three" unicode="3" horiz-adv-x="580" 
d="M44 216h87q4 -63 51.5 -102.5t114.5 -39.5q62 0 103 34t41 94q0 64 -41.5 96t-113.5 32h-53v79h57q56 0 93.5 33t37.5 84q0 49 -37 80.5t-91 31.5q-64 0 -106 -36.5t-43 -103.5h-88q0 67 31.5 118t86 78.5t119.5 27.5q60 0 109 -24t78 -68t29 -101q0 -51 -27 -93t-69 -64
q54 -22 85 -67.5t31 -105.5q0 -62 -29.5 -109.5t-82.5 -73.5t-120 -26q-70 0 -128 29t-91.5 81t-33.5 116z" />
    <glyph glyph-name="four" unicode="4" horiz-adv-x="617" 
d="M579 274v-81h-98v-193h-86v193h-378v69l389 448h75v-436h98zM395 274v306l-265 -306h265z" />
    <glyph glyph-name="five" unicode="5" horiz-adv-x="555" 
d="M515 215q0 -62 -31.5 -113.5t-86.5 -81.5t-123 -30q-63 0 -117 27.5t-87 74t-34 100.5h88q12 -51 53.5 -84.5t96.5 -33.5q43 0 78 20.5t55 55t20 76.5t-19 77t-53 55.5t-77 20.5q-44 0 -78.5 -19.5t-55.5 -52.5l-82 24l73 379h332v-84h-263l-39 -203q22 17 54 27t70 10
q65 0 116.5 -32t80.5 -88t29 -125z" />
    <glyph glyph-name="six" unicode="6" horiz-adv-x="559" 
d="M517 226q0 -65 -31.5 -119t-86 -85.5t-122.5 -31.5t-123 31.5t-86.5 85t-31.5 117.5q0 52 20.5 93.5t59.5 87.5l259 305h109l-217 -257q20 2 28 2q59 0 110 -31.5t81.5 -84t30.5 -113.5zM429 226q0 42 -20 77t-55 55.5t-77 20.5q-43 0 -78 -20.5t-55 -55.5t-20 -77
t20 -77t55 -55.5t78 -20.5q42 0 77 20.5t55 55.5t20 77z" />
    <glyph glyph-name="seven" unicode="7" horiz-adv-x="509" 
d="M495 710v-72l-338 -638h-96l332 626h-364v84h466z" />
    <glyph glyph-name="eight" unicode="8" horiz-adv-x="571" 
d="M524 213q0 -64 -30 -115t-84.5 -79.5t-123.5 -28.5t-123.5 29t-85 79.5t-30.5 114.5q0 63 29.5 111.5t83.5 74.5q-35 24 -54.5 60t-19.5 80q0 52 26 94t72 65.5t102 23.5q58 0 103 -23.5t70.5 -65.5t25.5 -94q0 -44 -19 -80t-53 -60q53 -26 82 -74.5t29 -111.5zM171 537
q0 -43 32 -74t83 -31q52 0 83 31t31 74q0 45 -31 74.5t-83 29.5q-51 0 -83 -29.5t-32 -74.5zM437 213q0 62 -40.5 102t-110.5 40q-68 0 -110 -40.5t-42 -101.5q0 -60 42 -100.5t110 -40.5q69 0 110 40.5t41 100.5z" />
    <glyph glyph-name="nine" unicode="9" horiz-adv-x="558" 
d="M524 488q0 -52 -20.5 -93.5t-59.5 -87.5l-260 -307h-110l219 259q-9 -2 -28 -2q-58 0 -109.5 31.5t-82 84t-30.5 112.5q0 65 31.5 119.5t86 86t122.5 31.5t123 -31.5t86.5 -85t31.5 -117.5zM436 486q0 42 -20 77t-55 55.5t-78 20.5t-77.5 -20.5t-54.5 -55.5t-20 -77
t20 -77t54.5 -55.5t77.5 -20.5t78 20.5t55 55.5t20 77z" />
    <glyph glyph-name="colon" unicode=":" horiz-adv-x="276" 
d="M64 435q0 30 22 52.5t52 22.5t52 -22.5t22 -52.5q0 -31 -21.5 -53t-52.5 -22t-52.5 22t-21.5 53zM64 67q0 30 22 52.5t52 22.5t52 -22.5t22 -52.5q0 -31 -21.5 -53t-52.5 -22t-52.5 22t-21.5 53z" />
    <glyph glyph-name="semicolon" unicode=";" horiz-adv-x="286" 
d="M71 435q0 30 22 52.5t52 22.5t52 -22.5t22 -52.5q0 -31 -21.5 -53t-52.5 -22t-52.5 22t-21.5 53zM45 -143l67 143q-18 9 -29.5 27t-11.5 40q0 30 22 52.5t52 22.5t52 -22.5t22 -52.5q0 -22 -14 -45l-103 -165h-57z" />
    <glyph glyph-name="less" unicode="&#x3c;" horiz-adv-x="427" 
d="M141 290l253 -253h-109l-253 253l253 253h109z" />
    <glyph glyph-name="equal" unicode="=" horiz-adv-x="560" 
d="M492 437v-77h-424v77h424zM492 219v-76h-424v76h424z" />
    <glyph glyph-name="greater" unicode="&#x3e;" horiz-adv-x="427" 
d="M395 290l-253 -253h-109l253 253l-253 253h109z" />
    <glyph glyph-name="question" unicode="?" horiz-adv-x="506" 
d="M281 386q34 26 52.5 42.5t29.5 38t11 49.5q0 52 -33.5 87t-86.5 35q-59 0 -97 -37t-38 -96h-86q0 59 29 109t79.5 79t112.5 29q61 0 107.5 -28t72.5 -75t26 -101q0 -60 -29 -102t-76 -78q-7 -5 -30.5 -23.5t-36 -35.5t-12.5 -35v-8h-86v20q0 62 91 130zM158 67
q0 30 22 52.5t52 22.5t52 -22.5t22 -52.5q0 -31 -21.5 -53t-52.5 -22t-52.5 22t-21.5 53z" />
    <glyph glyph-name="at" unicode="@" horiz-adv-x="812" 
d="M47 337q0 111 54 199t143 137t192 49q96 0 173.5 -39t122 -111t44.5 -166q0 -82 -25 -137.5t-65.5 -82.5t-87.5 -27q-43 0 -68.5 17t-36.5 43q-19 -26 -55 -42.5t-73 -16.5q-43 0 -78 21t-55.5 60t-20.5 92q0 61 27 111t73.5 78.5t101.5 28.5q43 0 74 -21t41 -50l12 62
h76l-50 -238q-4 -24 -4 -33q0 -46 43 -46q47 0 74 46.5t27 136.5q0 74 -35 131t-97 87.5t-139 30.5q-84 0 -157 -39.5t-116.5 -112.5t-43.5 -168q0 -82 34 -146t97 -100t147 -36q48 0 96.5 10t87.5 29v-71q-42 -16 -91 -24.5t-93 -8.5q-105 0 -184.5 46t-122 125t-42.5 176z
M503 342q3 17 3 32q0 48 -25 78.5t-67 30.5q-46 0 -81.5 -32.5t-44.5 -81.5q-3 -16 -3 -33q0 -48 25 -78t66 -30q47 0 82.5 32.5t44.5 81.5z" />
    <glyph glyph-name="A" unicode="A" horiz-adv-x="718" 
d="M524 207h-331l-91 -207h-96l314 710h77l315 -710h-97zM487 291l-129 293l-129 -293h258z" />
    <glyph glyph-name="B" unicode="B" horiz-adv-x="629" 
d="M327 710q64 0 112 -25.5t74 -68.5t26 -94q0 -50 -20 -86.5t-56 -58.5q123 -45 123 -170q0 -59 -29.5 -106t-83.5 -74t-125 -27h-254v710h233zM448 515q0 47 -33 79t-88 32h-140v-221h140q56 0 88.5 31t32.5 79zM495 204q0 54 -37 87.5t-105 33.5h-166v-241h165
q69 0 106 33t37 87z" />
    <glyph glyph-name="C" unicode="C" horiz-adv-x="788" 
d="M754 234q-16 -66 -63 -122t-119 -90t-158 -34q-102 0 -186.5 48.5t-133 132.5t-48.5 186t48.5 186t133 132.5t186.5 48.5q86 0 158 -34t119 -90t63 -122h-98q-24 69 -90 113.5t-152 44.5q-78 0 -140.5 -37t-98.5 -100.5t-36 -141.5t36 -141.5t98.5 -100.5t140.5 -37
q86 0 152 44.5t90 113.5h98v0z" />
    <glyph glyph-name="D" unicode="D" horiz-adv-x="721" 
d="M298 710q107 0 193.5 -46.5t135.5 -127.5t49 -181t-49 -181t-135.5 -127.5t-193.5 -46.5h-204v710h204zM582 355q0 77 -35.5 138t-100 95.5t-148.5 34.5h-111v-536h111q84 0 148.5 34.5t100 95.5t35.5 138z" />
    <glyph glyph-name="E" unicode="E" horiz-adv-x="557" 
d="M508 710v-88h-321v-215h261v-88h-261v-231h321v-88h-414v710h414z" />
    <glyph glyph-name="F" unicode="F" horiz-adv-x="531" 
d="M507 710v-88h-320v-215h253v-88h-253v-319h-93v710h413z" />
    <glyph glyph-name="G" unicode="G" horiz-adv-x="816" 
d="M772 365q0 -114 -48 -199.5t-129.5 -131.5t-180.5 -46q-102 0 -186.5 48.5t-133 132.5t-48.5 186t48.5 186t133 132.5t186.5 48.5q81 0 150.5 -30t117.5 -81t68 -111h-103q-29 59 -92 96.5t-141 37.5t-140.5 -37t-98.5 -100.5t-36 -141.5t36 -141.5t98.5 -100.5
t140.5 -37q72 0 129 31.5t91.5 86.5t40.5 125h-265v87h360q2 -28 2 -41z" />
    <glyph glyph-name="H" unicode="H" horiz-adv-x="763" 
d="M187 710v-303h389v303h93v-710h-93v320h-389v-320h-93v710h93z" />
    <glyph glyph-name="I" unicode="I" horiz-adv-x="281" 
d="M187 710v-710h-93v710h93z" />
    <glyph glyph-name="J" unicode="J" horiz-adv-x="529" 
d="M22 190h92q0 -55 34 -85.5t84 -30.5q51 0 84 32t33 100v504h92v-514q0 -105 -59 -156.5t-149 -51.5q-59 0 -107 23.5t-76 69.5t-28 109z" />
    <glyph glyph-name="K" unicode="K" horiz-adv-x="671" 
d="M563 0l-377 338v-338h-92v710h92v-308l310 308h121l-337 -338l414 -372h-131z" />
    <glyph glyph-name="L" unicode="L" horiz-adv-x="548" 
d="M187 710v-622h343v-88h-436v710h93z" />
    <glyph glyph-name="M" unicode="M" horiz-adv-x="886" 
d="M791 710v-710h-92v552l-256 -344l-256 344v-552h-93v710h85l264 -354l264 354h84z" />
    <glyph glyph-name="N" unicode="N" horiz-adv-x="794" 
d="M699 710v-710h-80l-432 553v-553h-93v710h81l432 -553v553h92z" />
    <glyph glyph-name="O" unicode="O" horiz-adv-x="825" 
d="M45 355q0 101 49 185.5t133 133t185 48.5t185 -48.5t133 -133t49 -185.5t-49 -185.5t-133 -133t-185 -48.5t-185 48.5t-133 133t-49 185.5zM686 355q0 77 -36 141t-98.5 101t-139.5 37q-76 0 -138.5 -37t-98.5 -101t-36 -141t36 -141t98.5 -101t138.5 -37q77 0 139.5 37
t98.5 101t36 141z" />
    <glyph glyph-name="P" unicode="P" horiz-adv-x="586" 
d="M311 259h-124v-259h-93v710h217q72 0 127.5 -29.5t86 -81t30.5 -115.5t-30.5 -115t-85.5 -80.5t-128 -29.5zM311 623h-124v-278h124q71 0 111.5 39t40.5 100t-40.5 100t-111.5 39z" />
    <glyph glyph-name="Q" unicode="Q" horiz-adv-x="839" 
d="M703 0l-67 62q-48 -35 -105 -54.5t-119 -19.5q-101 0 -185 48.5t-133 133t-49 185.5t49 185.5t133 133t185 48.5t185 -48.5t133 -133t49 -185.5q0 -66 -21 -125.5t-60 -107.5l132 -122h-127zM569 124l-113 105l57 64l118 -109q55 74 55 171q0 77 -36 141t-98.5 101
t-139.5 37q-76 0 -138.5 -37t-98.5 -101t-36 -141t36 -141t98.5 -101t138.5 -37q87 0 157 48z" />
    <glyph glyph-name="R" unicode="R" horiz-adv-x="635" 
d="M529 0l-273 323h-69v-323h-93v710h242q97 0 154.5 -54t57.5 -142q0 -78 -46.5 -128t-128.5 -62l273 -324h-117zM325 406q62 0 96 27.5t34 80.5t-34 81.5t-96 28.5h-138v-218h138z" />
    <glyph glyph-name="S" unicode="S" horiz-adv-x="563" 
d="M517 184q0 -59 -29 -103.5t-80.5 -68.5t-117.5 -24q-72 0 -127 27.5t-86 73.5t-33 101h92q6 -55 52 -85t102 -30q57 0 95.5 29t38.5 77q0 82 -101 119l-98 36q-84 30 -124 78t-40 122q0 57 28 99t77 64.5t111 22.5q68 0 117 -27.5t75.5 -71.5t31.5 -93h-92q-13 53 -50 79
t-84 26q-52 0 -86.5 -26.5t-34.5 -69.5q0 -44 24 -70t78 -45l91 -33q84 -30 127 -80t43 -127z" />
    <glyph glyph-name="T" unicode="T" horiz-adv-x="567" 
d="M17 622v88h533v-88h-221v-622h-91v622h-221z" />
    <glyph glyph-name="U" unicode="U" horiz-adv-x="726" 
d="M85 276v434h93v-436q0 -94 50 -146t135 -52t135 52t50 146v436h93v-434q0 -87 -35 -152.5t-98 -100.5t-145 -35t-145 35t-98 100.5t-35 152.5z" />
    <glyph glyph-name="V" unicode="V" horiz-adv-x="701" 
d="M691 710l-302 -710h-78l-303 710h103l240 -564l239 564h101z" />
    <glyph glyph-name="W" unicode="W" horiz-adv-x="947" 
d="M924 710l-194 -710h-83l-173 482l-174 -482h-83l-194 710h97l149 -554l204 566l205 -566l149 554h97z" />
    <glyph glyph-name="X" unicode="X" horiz-adv-x="670" 
d="M553 0l-218 285l-217 -285h-114l274 359l-263 351h111l209 -277l209 277h111l-262 -351l273 -359h-113z" />
    <glyph glyph-name="Y" unicode="Y" horiz-adv-x="674" 
d="M15 710h111l211 -316l212 316h111l-277 -410v-300h-92v301z" />
    <glyph glyph-name="Z" unicode="Z" horiz-adv-x="587" 
d="M552 88v-88h-518v62l385 560h-374v88h497v-62l-385 -560h395z" />
    <glyph glyph-name="bracketleft" unicode="[" horiz-adv-x="305" 
d="M279 800v-72h-109v-816h109v-72h-187v960h187z" />
    <glyph glyph-name="backslash" unicode="\" horiz-adv-x="509" 
d="M20.999 710l385.977 -820h80.9951l-385.977 820h-80.9951z" />
    <glyph glyph-name="bracketright" unicode="]" horiz-adv-x="305" 
d="M213 800v-960h-187v72h109v816h-109v72h187z" />
    <glyph glyph-name="asciicircum" unicode="^" horiz-adv-x="407" 
d="M124 500h-72l126 210h52l126 -210h-73l-79 132z" />
    <glyph glyph-name="underscore" unicode="_" horiz-adv-x="532" 
d="M478 0v-73h-424v73h424z" />
    <glyph glyph-name="grave" unicode="`" 
d="M8 750l94 -190h-70l-134 190h110z" />
    <glyph glyph-name="a" unicode="a" horiz-adv-x="630" 
d="M463 77q-26 -38 -74 -62.5t-102 -24.5q-69 0 -125 35t-88 94.5t-32 130.5t32 130.5t88 94.5t125 35q54 0 102 -24.5t74 -62.5v77h86v-500h-86v77zM129 250q0 -50 22 -91.5t61 -65.5t88 -24t88 24t60.5 65.5t21.5 91.5t-21.5 91.5t-60.5 65.5t-88 24t-88 -24t-61 -65.5
t-22 -91.5z" />
    <glyph glyph-name="b" unicode="b" horiz-adv-x="630" 
d="M588 250q0 -71 -32.5 -130.5t-88.5 -94.5t-124 -35q-54 0 -102 24.5t-74 62.5v-77h-86v750h86v-327q26 38 74 62.5t102 24.5q68 0 124 -35t88.5 -94.5t32.5 -130.5zM160 250q0 -50 21.5 -91.5t60.5 -65.5t88 -24t88 24t60.5 65.5t21.5 91.5t-21.5 91.5t-60.5 65.5t-88 24
t-88 -24t-60.5 -65.5t-21.5 -91.5z" />
    <glyph glyph-name="c" unicode="c" horiz-adv-x="588" 
d="M42 250q0 71 33.5 130.5t93.5 94.5t134 35q93 0 162 -52t90 -134h-92q-17 48 -60 77.5t-100 29.5q-51 0 -90.5 -24t-61.5 -65.5t-22 -91.5t22 -91.5t61.5 -65.5t90.5 -24q57 0 100 29.5t60 77.5h92q-21 -82 -90 -134t-162 -52q-74 0 -134 35t-93.5 94.5t-33.5 130.5z" />
    <glyph glyph-name="d" unicode="d" horiz-adv-x="630" 
d="M463 77q-26 -38 -74 -62.5t-102 -24.5q-69 0 -125 35t-88 94.5t-32 130.5t32 130.5t88 94.5t125 35q54 0 102 -24.5t74 -62.5v327h86v-750h-86v77zM129 250q0 -50 22 -91.5t61 -65.5t88 -24t88 24t60.5 65.5t21.5 91.5t-21.5 91.5t-60.5 65.5t-88 24t-88 -24t-61 -65.5
t-22 -91.5z" />
    <glyph glyph-name="e" unicode="e" horiz-adv-x="579" 
d="M537 253q0 -17 -1 -26h-407q1 -45 24 -81t60.5 -57t81.5 -21q103 0 145 84h88q-20 -70 -81.5 -116t-152.5 -46q-72 0 -129.5 34t-90 93t-32.5 133q0 73 31 132.5t89 93.5t134 34q72 0 127 -34t84.5 -92.5t29.5 -130.5zM133 295h312q-12 68 -53 103.5t-99 35.5
q-59 0 -103.5 -34.5t-56.5 -104.5z" />
    <glyph glyph-name="f" unicode="f" horiz-adv-x="367" 
d="M17 421v79h106v101q0 75 42.5 115t110.5 40q42 0 78 -13v-76q-27 10 -62 10q-43 0 -63 -19.5t-20 -65.5v-92h145v-79h-145v-421h-86v421h-106z" />
    <glyph glyph-name="g" unicode="g" horiz-adv-x="628" 
d="M547 31q0 -81 -32.5 -137t-88 -84.5t-125.5 -28.5q-99 0 -165 48t-77 125h84q34 -97 160 -97q70 0 114 45.5t44 127.5v59q-26 -39 -73 -63.5t-101 -24.5q-68 0 -124 34t-88 92t-32 129q0 70 32 128t88 92t124 34q54 0 101 -24t73 -63v77h86v-469zM130 256q0 -50 21.5 -90
t60 -62.5t87.5 -22.5t87.5 22.5t60 62.5t21.5 90t-21.5 89.5t-60 62.5t-87.5 23t-87.5 -23t-60 -62.5t-21.5 -89.5z" />
    <glyph glyph-name="h" unicode="h" horiz-adv-x="589" 
d="M167 0h-86v750h86v-327q25 43 67 65t92 22q85 0 137 -55t52 -147v-308h-85v295q0 62 -32.5 99t-85.5 37q-63 0 -104 -49t-41 -134v-248z" />
    <glyph glyph-name="i" unicode="i" horiz-adv-x="249" 
d="M63 695q0 25 18.5 43t43.5 18t42.5 -18t17.5 -43q0 -26 -17.5 -43.5t-42.5 -17.5q-26 0 -44 18t-18 43zM167 500v-500h-86v500h86z" />
    <glyph glyph-name="j" unicode="j" horiz-adv-x="257" 
d="M24 -219q-23 0 -41 3v77q16 -2 29 -2q37 0 57 19.5t20 65.5v556h86v-566q0 -75 -42 -114t-109 -39zM71 695q0 25 18.5 43t43.5 18t42.5 -18t17.5 -43q0 -26 -17.5 -43.5t-42.5 -17.5q-26 0 -44 18t-18 43z" />
    <glyph glyph-name="k" unicode="k" horiz-adv-x="539" 
d="M438 0l-271 250v-250h-86v750h86v-445l218 195h114l-246 -221l301 -279h-116z" />
    <glyph glyph-name="l" unicode="l" horiz-adv-x="249" 
d="M167 750v-750h-86v750h86z" />
    <glyph glyph-name="m" unicode="m" horiz-adv-x="885" 
d="M811 307v-307h-86v294q0 62 -25.5 99.5t-73.5 37.5q-61 0 -99 -49.5t-38 -133.5v-248h-86v294q0 63 -25.5 100t-72.5 37q-62 0 -100 -49.5t-38 -133.5v-248h-86v500h86v-77q22 40 61.5 63.5t89.5 23.5q55 0 95 -28.5t59 -78.5q20 49 64 78t100 29q81 0 128 -55.5
t47 -147.5z" />
    <glyph glyph-name="n" unicode="n" horiz-adv-x="589" 
d="M167 500v-77q25 43 67 65t92 22q85 0 137 -55t52 -147v-308h-85v295q0 62 -32.5 99t-85.5 37q-63 0 -104 -49t-41 -134v-248h-86v500h86z" />
    <glyph glyph-name="o" unicode="o" horiz-adv-x="606" 
d="M41 250q0 71 34 130.5t94 94.5t134 35t133.5 -35t93.5 -94.5t34 -130.5t-34 -130.5t-93.5 -94.5t-133.5 -35t-134 35t-94 94.5t-34 130.5zM476 250q0 50 -21.5 91t-61 65t-90.5 24t-90.5 -24t-61.5 -65t-22 -91t22 -91t61.5 -65t90.5 -24t90.5 24t61 65t21.5 91z" />
    <glyph glyph-name="p" unicode="p" horiz-adv-x="631" 
d="M167 -209h-86v709h86v-77q26 38 74 62.5t102 24.5q68 0 124 -35t88.5 -94.5t32.5 -130.5t-32.5 -130.5t-88.5 -94.5t-124 -35q-54 0 -102 24.5t-74 62.5v-286zM160 250q0 -50 21.5 -91.5t60.5 -65.5t88 -24t88 24t60.5 65.5t21.5 91.5t-21.5 91.5t-60.5 65.5t-88 24
t-88 -24t-60.5 -65.5t-21.5 -91.5z" />
    <glyph glyph-name="q" unicode="q" horiz-adv-x="630" 
d="M549 -209h-86v286q-26 -38 -74 -62.5t-102 -24.5q-69 0 -125 35t-88 94.5t-32 130.5t32 130.5t88 94.5t125 35q54 0 102 -24.5t74 -62.5v77h86v-709zM129 250q0 -50 22 -91.5t61 -65.5t88 -24t88 24t60.5 65.5t21.5 91.5t-21.5 91.5t-60.5 65.5t-88 24t-88 -24t-61 -65.5
t-22 -91.5z" />
    <glyph glyph-name="r" unicode="r" horiz-adv-x="366" 
d="M167 500v-97q15 46 55 74t85 28q20 0 39 -4v-89q-21 8 -47 8q-33 0 -63.5 -19.5t-49.5 -58t-19 -94.5v-248h-86v500h86z" />
    <glyph glyph-name="s" unicode="s" horiz-adv-x="467" 
d="M39 145h88q8 -43 40.5 -62.5t75.5 -19.5q42 0 69 17t27 49q0 30 -19.5 49t-63.5 31l-72 19q-63 16 -96 54.5t-33 92.5q0 62 48 98.5t125 36.5q78 0 126.5 -40.5t55.5 -102.5h-86q-10 33 -35.5 52t-60.5 19q-37 0 -61.5 -17t-24.5 -45t18 -44.5t58 -27.5l80 -21
q62 -16 95 -54t33 -94q0 -71 -51 -108t-133 -37q-84 0 -141 41t-62 114z" />
    <glyph glyph-name="t" unicode="t" horiz-adv-x="381" 
d="M122 148v273h-106v79h106v139h86v-139h144v-79h-144v-262q0 -46 20.5 -65.5t62.5 -19.5q34 0 61 10v-77q-36 -12 -77 -12q-68 0 -110.5 39t-42.5 114z" />
    <glyph glyph-name="u" unicode="u" horiz-adv-x="579" 
d="M412 77q-24 -43 -64.5 -65t-89.5 -22q-83 0 -133.5 55t-50.5 148v307h86v-294q0 -63 30.5 -100t82.5 -37q39 0 71 22t50 63.5t18 97.5v248h86v-500h-86v77v0z" />
    <glyph glyph-name="v" unicode="v" horiz-adv-x="546" 
d="M540 500l-231 -500h-72l-231 500h96l171 -378l171 378h96z" />
    <glyph glyph-name="w" unicode="w" horiz-adv-x="763" 
d="M751 500l-170 -500h-76l-123 360l-124 -360h-76l-170 500h90l121 -365l125 365h66l125 -365l121 365h91z" />
    <glyph glyph-name="x" unicode="x" horiz-adv-x="530" 
d="M417 0l-152 189l-152 -189h-107l205 253l-188 247h104l138 -180l137 180h105l-188 -247l204 -253h-106z" />
    <glyph glyph-name="y" unicode="y" horiz-adv-x="547" 
d="M542 500l-328 -709h-96l109 235l-219 474h95l172 -379l171 379h96z" />
    <glyph glyph-name="z" unicode="z" horiz-adv-x="484" 
d="M446 79v-79h-406v68l287 353h-283v79h393v-69l-285 -352h294z" />
    <glyph glyph-name="braceleft" unicode="{" horiz-adv-x="316" 
d="M103 -17v230q0 37 -11.5 54t-46.5 17h-15v72h15q35 0 46.5 16.5t11.5 53.5v231q0 72 29 107.5t97 35.5h61v-72h-48q-37 0 -49 -16.5t-12 -56.5v-225q0 -47 -12 -72t-42 -38q30 -14 42 -39t12 -72v-224q0 -41 12 -57t49 -16h48v-72h-60q-69 0 -98 35t-29 108z" />
    <glyph glyph-name="bar" unicode="|" horiz-adv-x="262" 
d="M171 710v-820h-79v820h79z" />
    <glyph glyph-name="braceright" unicode="}" horiz-adv-x="316" 
d="M213 -17q0 -73 -29 -108t-98 -35h-60v72h48q37 0 49 16t12 57v224q0 47 12 72t42 39q-30 13 -42 38t-12 72v225q0 40 -12 56.5t-49 16.5h-48v72h61q68 0 97 -35.5t29 -107.5v-231q0 -37 11.5 -53.5t46.5 -16.5h15v-72h-15q-35 0 -46.5 -17t-11.5 -54v-230v0z" />
    <glyph glyph-name="asciitilde" unicode="~" horiz-adv-x="412" 
d="M345 349l-55 -119h-46l-81 59l-27 -59h-67l55 119h46l81 -59l27 59h67z" />
    <glyph glyph-name="uni00A0" unicode="&#xa0;" horiz-adv-x="244" 
 />
    <glyph glyph-name="exclamdown" unicode="&#xa1;" horiz-adv-x="258" 
d="M55 435q0 30 22 52.5t52 22.5t52 -22.5t22 -52.5q0 -31 -21.5 -53t-52.5 -22t-52.5 22t-21.5 53zM172 -209h-86v285l16 204h54l16 -204v-285z" />
    <glyph glyph-name="cent" unicode="&#xa2;" horiz-adv-x="592" 
d="M466 176h92q-20 -76 -81 -127t-146 -58v-79h-54v79q-67 7 -120 43t-82.5 93t-29.5 123t29.5 123t82.5 93t120 43v79h54v-79q85 -7 146 -58t81 -127h-92q-15 43 -50.5 71t-84.5 34v-358q49 6 84.5 34t50.5 71zM277 71v358q-65 -10 -105 -60t-40 -119t40 -119t105 -60z" />
    <glyph glyph-name="sterling" unicode="&#xa3;" horiz-adv-x="563" 
d="M207 84h310v-84h-466v84h62q47 50 47 119q0 24 -7.5 55.5t-22.5 77.5h-79v55h62q-22 79 -22 126q0 55 26.5 102t75 75t110.5 28t110.5 -29t75.5 -78.5t28 -107.5h-86q-2 55 -37 93t-91 38t-91 -35t-35 -89q0 -27 6.5 -55t18.5 -68h191v-55h-173q24 -78 24 -128
q0 -75 -37 -124z" />
    <glyph glyph-name="yen" unicode="&#xa5;" horiz-adv-x="673" 
d="M415 354h172v-54h-207v-75h207v-54h-207v-171h-86v171h-208v54h208v75h-208v54h174l-230 356h103l203 -324l203 324h104z" />
    <glyph glyph-name="brokenbar" unicode="&#xa6;" horiz-adv-x="262" 
d="M171 710v-362h-79v362h79zM171 252v-362h-79v362h79z" />
    <glyph glyph-name="section" unicode="&#xa7;" horiz-adv-x="458" 
d="M403 -68q0 -68 -47 -109.5t-117 -41.5q-66 0 -114.5 34t-56.5 105h80q8 -36 32.5 -52.5t58.5 -16.5q36 0 60.5 22t24.5 60q0 78 -97 124l-63 30q-53 25 -82 67t-29 97t27 97t81 67q-51 29 -77.5 67t-26.5 94q0 65 42.5 105.5t112.5 40.5q65 0 109.5 -34t52.5 -105h-80
q-15 69 -82 69q-35 0 -55.5 -21t-20.5 -55q0 -41 24.5 -65t71.5 -48l63 -30q53 -25 82.5 -67t29.5 -97t-27.5 -97.5t-80.5 -66.5q104 -65 104 -173zM211 151l7 -4q55 21 82.5 47.5t27.5 71.5q0 67 -79 104l-7 4q-55 -21 -82.5 -47.5t-27.5 -71.5q0 -68 79 -104z" />
    <glyph glyph-name="dieresis" unicode="&#xa8;" 
d="M-171 654q0 24 17 41.5t42 17.5q24 0 41 -17.5t17 -41.5t-17 -41t-41 -17q-25 0 -42 17t-17 41zM54 654q0 24 17.5 41.5t41.5 17.5t41 -17.5t17 -41.5t-17 -41t-41 -17t-41.5 17t-17.5 41z" />
    <glyph glyph-name="copyright" unicode="&#xa9;" horiz-adv-x="824" 
d="M45 355q0 99 49.5 183.5t133.5 134t183 49.5t184 -49.5t134.5 -134t49.5 -183.5t-49.5 -183.5t-134.5 -134t-184 -49.5t-183 49.5t-133.5 134t-49.5 183.5zM708 355q0 80 -40 148t-108.5 108t-148.5 40q-79 0 -147 -40t-108 -108t-40 -148t40 -148t108 -108t147 -40
q80 0 148.5 40t108.5 108t40 148zM596 295q-14 -58 -64.5 -95t-115.5 -37q-55 0 -99.5 25.5t-70 69.5t-25.5 97q0 54 25.5 98t70 69.5t99.5 25.5q65 0 115.5 -37.5t64.5 -95.5h-76q-12 30 -40.5 47.5t-63.5 17.5q-55 0 -89.5 -36t-34.5 -89t34.5 -88.5t89.5 -35.5
q35 0 63.5 17.5t40.5 46.5h76z" />
    <glyph glyph-name="ordfeminine" unicode="&#xaa;" horiz-adv-x="420" 
d="M281 448q-13 -18 -38.5 -31t-56.5 -13q-40 0 -72.5 21t-51.5 57t-19 78t19 78t51.5 57t72.5 21q31 0 56.5 -13t38.5 -31v38h70v-300h-70v38zM114 560q0 -40 24 -66.5t62 -26.5t62.5 26.5t24.5 66.5t-24.5 66.5t-62.5 26.5t-62 -26.5t-24 -66.5z" />
    <glyph glyph-name="guillemotleft" unicode="&#xab;" horiz-adv-x="477" 
d="M430 467l-116 -217l116 -217h-73l-141 217l141 217h73zM257 467l-116 -217l116 -217h-73l-141 217l141 217h73z" />
    <glyph glyph-name="uni00AD" unicode="&#xad;" horiz-adv-x="386" 
d="M320 323v-86h-255v86h255z" />
    <glyph glyph-name="registered" unicode="&#xae;" horiz-adv-x="824" 
d="M779 355q0 -99 -49.5 -183.5t-134.5 -134t-184 -49.5t-183 49.5t-133.5 134t-49.5 183.5t49.5 183.5t133.5 134t183 49.5t184 -49.5t134.5 -134t49.5 -183.5zM708 355q0 80 -40 148t-108.5 108t-148.5 40q-79 0 -147 -40t-108 -108t-40 -148t40 -148t108 -108t147 -40
q80 0 148.5 40t108.5 108t40 148zM467 335l135 -166h-85l-131 159h-22v-159h-71v373h139q52 0 83 -31t31 -78q0 -75 -79 -98zM424 389q23 0 37.5 12t14.5 32q0 21 -14 32t-38 11h-60v-87h60z" />
    <glyph glyph-name="macron" unicode="&#xaf;" 
d="M161 710v-69h-322v69h322z" />
    <glyph glyph-name="degree" unicode="&#xb0;" horiz-adv-x="347" 
d="M44 584q0 35 17.5 65t47 47.5t64.5 17.5t65 -17.5t47.5 -47.5t17.5 -65t-17.5 -64.5t-47.5 -47t-65 -17.5t-64.5 17.5t-47 47t-17.5 64.5zM241 584q0 28 -20 48t-48 20t-47.5 -20t-19.5 -48t19.5 -47.5t47.5 -19.5t48 19.5t20 47.5z" />
    <glyph glyph-name="uni00B2" unicode="&#xb2;" horiz-adv-x="353" 
d="M32 410v25q0 40 16.5 69.5t40 50t63.5 48.5l21 15q38 28 55 49t17 50q0 28 -18.5 45.5t-48.5 17.5q-32 0 -53.5 -19.5t-21.5 -51.5h-71q0 62 42 101t105 39q57 0 96.5 -34t39.5 -96q0 -49 -22 -82t-72 -70l-23 -16q-32 -21 -49.5 -36.5t-24.5 -36.5h195v-68h-287z" />
    <glyph glyph-name="uni00B3" unicode="&#xb3;" horiz-adv-x="365" 
d="M29 546h69q3 -35 27.5 -54.5t61.5 -19.5q32 0 53 17.5t21 46.5q0 32 -22 49.5t-59 17.5h-34v60h34q32 0 50.5 17t18.5 44q0 24 -19 40t-46 16q-33 0 -55 -19.5t-22 -51.5h-70q0 42 20 74t54 49t73 17q61 0 98.5 -34.5t37.5 -88.5q-1 -30 -15.5 -55t-36.5 -38
q29 -12 46.5 -38.5t17.5 -62.5q0 -57 -40.5 -92.5t-105.5 -35.5q-42 0 -77.5 17.5t-57.5 49.5t-22 75z" />
    <glyph glyph-name="acute" unicode="&#xb4;" 
d="M101 750l-134 -190h-69l93 190h110z" />
    <glyph glyph-name="paragraph" unicode="&#xb6;" horiz-adv-x="624" 
d="M30 485q0 61 30.5 112.5t82 82t112.5 30.5h265v-894h-79v815h-107v-815h-79v444q-61 0 -112.5 30.5t-82 82t-30.5 112.5z" />
    <glyph glyph-name="periodcentered" unicode="&#xb7;" horiz-adv-x="270" 
d="M61 272q0 30 22 52.5t52 22.5t52 -22.5t22 -52.5q0 -31 -21.5 -53t-52.5 -22t-52.5 22t-21.5 53z" />
    <glyph glyph-name="cedilla" unicode="&#xb8;" 
d="M-31 -166q29 0 48.5 10.5t19.5 30.5q0 30 -47 30q-22 0 -44 -10l-33 21l53 87h54l-34 -56q17 7 40 7q35 0 58 -20.5t23 -55.5q0 -43 -37.5 -70t-92.5 -27q-53 0 -84 15v55q15 -8 35.5 -12.5t40.5 -4.5z" />
    <glyph glyph-name="uni00B9" unicode="&#xb9;" horiz-adv-x="227" 
d="M10 773l52 69h105v-432h-70v363h-87z" />
    <glyph glyph-name="ordmasculine" unicode="&#xba;" horiz-adv-x="398" 
d="M42 560q0 43 20.5 78.5t56.5 56.5t80 21q43 0 79 -21t57 -56.5t21 -78.5t-21 -78.5t-57 -56.5t-79 -21q-44 0 -80 21t-56.5 56.5t-20.5 78.5zM286 560q0 39 -24.5 65t-62.5 26t-62 -26t-24 -65t24 -65t62 -26t62.5 26t24.5 65z" />
    <glyph glyph-name="guillemotright" unicode="&#xbb;" horiz-adv-x="477" 
d="M434 250l-141 -217h-73l116 217l-116 217h73zM261 250l-141 -217h-73l116 217l-116 217h73z" />
    <glyph glyph-name="onequarter" unicode="&#xbc;" horiz-adv-x="783" 
d="M10 641l52 69h105v-432h-70v363h-87zM117 0h-81l500 710h81zM760 171v-64h-58v-107h-70v107h-221v56l228 269h63v-261h58zM632 171v157l-134 -157h134z" />
    <glyph glyph-name="onehalf" unicode="&#xbd;" horiz-adv-x="769" 
d="M10 641l52 69h105v-432h-70v363h-87zM117 0h-81l500 710h81zM448 0v25q0 40 16.5 69.5t40 50t63.5 48.5l21 15q38 28 55 49t17 50q0 28 -18.5 45.5t-48.5 17.5q-32 0 -53.5 -19.5t-21.5 -51.5h-71q0 62 42 101t105 39q57 0 96.5 -34t39.5 -96q0 -49 -22 -82t-72 -70
l-23 -16q-32 -21 -49.5 -36.5t-24.5 -36.5h195v-68h-287z" />
    <glyph glyph-name="threequarters" unicode="&#xbe;" horiz-adv-x="912" 
d="M29 414h69q3 -35 27.5 -54.5t61.5 -19.5q32 0 53 17.5t21 46.5q0 32 -22 49.5t-59 17.5h-34v60h34q32 0 50.5 17t18.5 44q0 24 -19 40t-46 16q-33 0 -55 -19.5t-22 -51.5h-70q0 42 20 74t54 49t73 17q61 0 98.5 -34.5t37.5 -88.5q-1 -30 -15.5 -55t-36.5 -38
q29 -12 46.5 -38.5t17.5 -62.5q0 -57 -40.5 -92.5t-105.5 -35.5q-42 0 -77.5 17.5t-57.5 49.5t-22 75zM246 0h-81l500 710h81zM889 171v-64h-58v-107h-70v107h-221v56l228 269h63v-261h58zM761 171v157l-134 -157h134z" />
    <glyph glyph-name="questiondown" unicode="&#xbf;" horiz-adv-x="494" 
d="M216.986 115.993q-33.9971 -25.999 -52.4961 -42.498t-29.498 -37.9971q-11 -21.499 -11 -49.4971q0 -51.9971 33.498 -86.9951t86.4951 -34.998q58.9961 0 96.9941 36.998q37.9971 36.998 37.9971 95.9941h85.9951q0 -58.9961 -28.998 -108.993t-79.4951 -78.9951
t-112.493 -28.998q-60.9961 0 -107.494 27.998q-46.4971 27.998 -72.4951 74.9951t-25.998 100.994q0 59.9961 28.998 101.994q28.998 41.9971 75.9951 77.9951q7 4.99902 30.498 23.498q23.499 18.499 35.998 35.498t12.499 34.998v7.99902h85.9951v-19.998
q0 -61.9971 -90.9951 -129.992zM339.979 434.974q0 -29.998 -21.999 -52.4971q-21.998 -22.498 -51.9971 -22.498q-29.998 0 -51.9961 22.498q-21.999 22.499 -21.999 52.4971q0 30.998 21.499 52.9971q21.498 21.998 52.4961 21.998t52.4971 -21.998
q21.499 -21.999 21.499 -52.9971z" />
    <glyph glyph-name="Agrave" unicode="&#xc0;" horiz-adv-x="718" 
d="M524 207h-331l-91 -207h-96l314 710h77l315 -710h-97zM487 291l-129 293l-129 -293h258zM206 917h108l78 -148h-72z" />
    <glyph glyph-name="Aacute" unicode="&#xc1;" horiz-adv-x="718" 
d="M524 207h-331l-91 -207h-96l314 710h77l315 -710h-97zM487 291l-129 293l-129 -293h258zM517 917l-114 -148h-72l78 148h108z" />
    <glyph glyph-name="Acircumflex" unicode="&#xc2;" horiz-adv-x="718" 
d="M524 207h-331l-91 -207h-96l314 710h77l315 -710h-97zM487 291l-129 293l-129 -293h258zM358 926l166 -87v-77l-166 87l-166 -87v77z" />
    <glyph glyph-name="Atilde" unicode="&#xc3;" horiz-adv-x="718" 
d="M524 207h-331l-91 -207h-96l314 710h77l315 -710h-97zM487 291l-129 293l-129 -293h258zM294 899q19 0 36.5 -6.5t43.5 -19.5q13 -7 26.5 -12.5t22.5 -5.5q33 0 43 44h66l-4 -19q-8 -42 -37 -68t-69 -26q-19 0 -36.5 6.5t-43.5 19.5q-32 18 -48 18q-17 0 -27.5 -10.5
t-16.5 -33.5h-65l3 18q7 43 36.5 69t69.5 26z" />
    <glyph glyph-name="Adieresis" unicode="&#xc4;" horiz-adv-x="718" 
d="M524 207h-331l-91 -207h-96l314 710h77l315 -710h-97zM487 291l-129 293l-129 -293h258zM187 843q0 24 17 41.5t42 17.5q24 0 41 -17.5t17 -41.5t-17 -41t-41 -17q-25 0 -42 17t-17 41zM412 843q0 24 17.5 41.5t41.5 17.5t41 -17.5t17 -41.5t-17 -41t-41 -17t-41.5 17
t-17.5 41z" />
    <glyph glyph-name="Aring" unicode="&#xc5;" horiz-adv-x="718" 
d="M524 207h-331l-91 -207h-96l314 710h77l315 -710h-97zM487 291l-129 293l-129 -293h258zM237 872q0 32 16.5 60t44.5 44.5t61 16.5q32 0 60 -16.5t44.5 -44.5t16.5 -60q0 -50 -35.5 -85.5t-85.5 -35.5t-86 35.5t-36 85.5zM359 932q-24 0 -42 -18t-18 -43q0 -23 17.5 -41
t42.5 -18q23 0 41.5 17.5t18.5 41.5q0 25 -17.5 43t-42.5 18z" />
    <glyph glyph-name="AE" unicode="&#xc6;" horiz-adv-x="914" 
d="M544 407h261v-88h-261v-231h321v-88h-414v207h-248l-123 -207h-103l425 710h463v-88h-321v-215zM451 622h-1l-197 -331h198v331z" />
    <glyph glyph-name="Ccedilla" unicode="&#xc7;" horiz-adv-x="788" 
d="M754 234q-16 -66 -63 -122t-119 -90t-158 -34q-102 0 -186.5 48.5t-133 132.5t-48.5 186t48.5 186t133 132.5t186.5 48.5q86 0 158 -34t119 -90t63 -122h-98q-24 69 -90 113.5t-152 44.5q-78 0 -140.5 -37t-98.5 -100.5t-36 -141.5t36 -141.5t98.5 -100.5t140.5 -37
q86 0 152 44.5t90 113.5h98v0zM391 -219q-53 0 -85 15v55q15 -8 35.5 -12.5t40.5 -4.5q29 0 48.5 10t19.5 31q0 30 -46 30q-22 0 -45 -10l-32 21l52 87h55l-34 -56q17 7 40 7q35 0 57.5 -20.5t22.5 -55.5q0 -43 -37 -70t-92 -27z" />
    <glyph glyph-name="Egrave" unicode="&#xc8;" horiz-adv-x="557" 
d="M508 710v-88h-321v-215h261v-88h-261v-231h321v-88h-414v710h414zM148 917h108l78 -148h-72z" />
    <glyph glyph-name="Eacute" unicode="&#xc9;" horiz-adv-x="557" 
d="M508 710v-88h-321v-215h261v-88h-261v-231h321v-88h-414v710h414zM459 917l-114 -148h-72l78 148h108z" />
    <glyph glyph-name="Ecircumflex" unicode="&#xca;" horiz-adv-x="557" 
d="M508 710v-88h-321v-215h261v-88h-261v-231h321v-88h-414v710h414zM301 926l166 -87v-77l-166 87l-166 -87v77z" />
    <glyph glyph-name="Edieresis" unicode="&#xcb;" horiz-adv-x="557" 
d="M508 710v-88h-321v-215h261v-88h-261v-231h321v-88h-414v710h414zM130 843q0 24 17 41.5t42 17.5q24 0 41 -17.5t17 -41.5t-17 -41t-41 -17q-25 0 -42 17t-17 41zM355 843q0 24 17.5 41.5t41.5 17.5t41 -17.5t17 -41.5t-17 -41t-41 -17t-41.5 17t-17.5 41z" />
    <glyph glyph-name="Igrave" unicode="&#xcc;" horiz-adv-x="281" 
d="M187 710v-710h-93v710h93zM-12 917h108l78 -148h-72z" />
    <glyph glyph-name="Iacute" unicode="&#xcd;" horiz-adv-x="281" 
d="M187 710v-710h-93v710h93zM299 917l-114 -148h-72l78 148h108z" />
    <glyph glyph-name="Icircumflex" unicode="&#xce;" horiz-adv-x="281" 
d="M187 710v-710h-93v710h93zM141 926l166 -87v-77l-166 87l-166 -87v77z" />
    <glyph glyph-name="Idieresis" unicode="&#xcf;" horiz-adv-x="281" 
d="M187 710v-710h-93v710h93zM-30 843q0 24 17 41.5t42 17.5q24 0 41 -17.5t17 -41.5t-17 -41t-41 -17q-25 0 -42 17t-17 41zM195 843q0 24 17.5 41.5t41.5 17.5t41 -17.5t17 -41.5t-17 -41t-41 -17t-41.5 17t-17.5 41z" />
    <glyph glyph-name="Eth" unicode="&#xd0;" horiz-adv-x="729" 
d="M305 710q107 0 193.5 -46.5t135.5 -127.5t49 -181t-49 -181t-135.5 -127.5t-193.5 -46.5h-204v710h204zM589 355q0 77 -35.5 138t-100 95.5t-148.5 34.5h-111v-536h111q84 0 148.5 34.5t100 95.5t35.5 138zM354 401v-82h-326v82h326z" />
    <glyph glyph-name="Ntilde" unicode="&#xd1;" horiz-adv-x="794" 
d="M699 710v-710h-80l-432 553v-553h-93v710h81l432 -553v553h92zM329 899q19 0 36.5 -6.5t43.5 -19.5q13 -7 26.5 -12.5t22.5 -5.5q33 0 43 44h66l-4 -19q-8 -42 -37 -68t-69 -26q-19 0 -36.5 6.5t-43.5 19.5q-32 18 -48 18q-17 0 -27.5 -10.5t-16.5 -33.5h-65l3 18
q7 43 36.5 69t69.5 26z" />
    <glyph glyph-name="Ograve" unicode="&#xd2;" horiz-adv-x="825" 
d="M45 355q0 101 49 185.5t133 133t185 48.5t185 -48.5t133 -133t49 -185.5t-49 -185.5t-133 -133t-185 -48.5t-185 48.5t-133 133t-49 185.5zM686 355q0 77 -36 141t-98.5 101t-139.5 37q-76 0 -138.5 -37t-98.5 -101t-36 -141t36 -141t98.5 -101t138.5 -37q77 0 139.5 37
t98.5 101t36 141zM260 917h108l78 -148h-72z" />
    <glyph glyph-name="Oacute" unicode="&#xd3;" horiz-adv-x="825" 
d="M45 355q0 101 49 185.5t133 133t185 48.5t185 -48.5t133 -133t49 -185.5t-49 -185.5t-133 -133t-185 -48.5t-185 48.5t-133 133t-49 185.5zM686 355q0 77 -36 141t-98.5 101t-139.5 37q-76 0 -138.5 -37t-98.5 -101t-36 -141t36 -141t98.5 -101t138.5 -37q77 0 139.5 37
t98.5 101t36 141zM571 917l-114 -148h-72l78 148h108z" />
    <glyph glyph-name="Ocircumflex" unicode="&#xd4;" horiz-adv-x="825" 
d="M45 355q0 101 49 185.5t133 133t185 48.5t185 -48.5t133 -133t49 -185.5t-49 -185.5t-133 -133t-185 -48.5t-185 48.5t-133 133t-49 185.5zM686 355q0 77 -36 141t-98.5 101t-139.5 37q-76 0 -138.5 -37t-98.5 -101t-36 -141t36 -141t98.5 -101t138.5 -37q77 0 139.5 37
t98.5 101t36 141zM412 926l166 -87v-77l-166 87l-166 -87v77z" />
    <glyph glyph-name="Otilde" unicode="&#xd5;" horiz-adv-x="825" 
d="M45 355q0 101 49 185.5t133 133t185 48.5t185 -48.5t133 -133t49 -185.5t-49 -185.5t-133 -133t-185 -48.5t-185 48.5t-133 133t-49 185.5zM686 355q0 77 -36 141t-98.5 101t-139.5 37q-76 0 -138.5 -37t-98.5 -101t-36 -141t36 -141t98.5 -101t138.5 -37q77 0 139.5 37
t98.5 101t36 141zM348 899q19 0 36.5 -6.5t43.5 -19.5q13 -7 26.5 -12.5t22.5 -5.5q33 0 43 44h66l-4 -19q-8 -42 -37 -68t-69 -26q-19 0 -36.5 6.5t-43.5 19.5q-32 18 -48 18q-17 0 -27.5 -10.5t-16.5 -33.5h-65l3 18q7 43 36.5 69t69.5 26z" />
    <glyph glyph-name="Odieresis" unicode="&#xd6;" horiz-adv-x="825" 
d="M45 355q0 101 49 185.5t133 133t185 48.5t185 -48.5t133 -133t49 -185.5t-49 -185.5t-133 -133t-185 -48.5t-185 48.5t-133 133t-49 185.5zM686 355q0 77 -36 141t-98.5 101t-139.5 37q-76 0 -138.5 -37t-98.5 -101t-36 -141t36 -141t98.5 -101t138.5 -37q77 0 139.5 37
t98.5 101t36 141zM241 843q0 24 17 41.5t42 17.5q24 0 41 -17.5t17 -41.5t-17 -41t-41 -17q-25 0 -42 17t-17 41zM466 843q0 24 17.5 41.5t41.5 17.5t41 -17.5t17 -41.5t-17 -41t-41 -17t-41.5 17t-17.5 41z" />
    <glyph glyph-name="multiply" unicode="&#xd7;" horiz-adv-x="503" 
d="M196 290l-143 140l56 56l143 -140l142 140l56 -56l-143 -140l143 -141l-56 -55l-142 140l-143 -140l-56 55z" />
    <glyph glyph-name="Oslash" unicode="&#xd8;" horiz-adv-x="826" 
d="M46 355q0 101 49 185.5t133 133t185 48.5t185 -48.5t133 -133t49 -185.5t-49 -185.5t-133 -133t-185 -48.5t-185 48.5t-133 133t-49 185.5zM687 355q0 77 -36 141t-98.5 101t-139.5 37q-76 0 -138.5 -37t-98.5 -101t-36 -141t36 -141t98.5 -101t138.5 -37q77 0 139.5 37
t98.5 101t36 141zM74 32l623 698l55 -51l-622 -699z" />
    <glyph glyph-name="Ugrave" unicode="&#xd9;" horiz-adv-x="726" 
d="M85 276v434h93v-436q0 -94 50 -146t135 -52t135 52t50 146v436h93v-434q0 -87 -35 -152.5t-98 -100.5t-145 -35t-145 35t-98 100.5t-35 152.5zM210 917h108l78 -148h-72z" />
    <glyph glyph-name="Uacute" unicode="&#xda;" horiz-adv-x="726" 
d="M85 276v434h93v-436q0 -94 50 -146t135 -52t135 52t50 146v436h93v-434q0 -87 -35 -152.5t-98 -100.5t-145 -35t-145 35t-98 100.5t-35 152.5zM521 917l-114 -148h-72l78 148h108z" />
    <glyph glyph-name="Ucircumflex" unicode="&#xdb;" horiz-adv-x="726" 
d="M85 276v434h93v-436q0 -94 50 -146t135 -52t135 52t50 146v436h93v-434q0 -87 -35 -152.5t-98 -100.5t-145 -35t-145 35t-98 100.5t-35 152.5zM363 926l166 -87v-77l-166 87l-166 -87v77z" />
    <glyph glyph-name="Udieresis" unicode="&#xdc;" horiz-adv-x="726" 
d="M85 276v434h93v-436q0 -94 50 -146t135 -52t135 52t50 146v436h93v-434q0 -87 -35 -152.5t-98 -100.5t-145 -35t-145 35t-98 100.5t-35 152.5zM192 843q0 24 17 41.5t42 17.5q24 0 41 -17.5t17 -41.5t-17 -41t-41 -17q-25 0 -42 17t-17 41zM417 843q0 24 17.5 41.5
t41.5 17.5t41 -17.5t17 -41.5t-17 -41t-41 -17t-41.5 17t-17.5 41z" />
    <glyph glyph-name="Yacute" unicode="&#xdd;" horiz-adv-x="674" 
d="M15 710h111l211 -316l212 316h111l-277 -410v-300h-92v301zM495 917l-114 -148h-72l78 148h108z" />
    <glyph glyph-name="Thorn" unicode="&#xde;" horiz-adv-x="595" 
d="M311 130h-124v-130h-93v710h93v-129h124q72 0 127.5 -29.5t86 -81t30.5 -115.5q0 -63 -30.5 -114.5t-86 -81t-127.5 -29.5zM311 495h-124v-279h124q71 0 111.5 39t40.5 100t-40.5 100.5t-111.5 39.5z" />
    <glyph glyph-name="germandbls" unicode="&#xdf;" horiz-adv-x="573" 
d="M532 217q0 -58 -28.5 -107.5t-80.5 -79.5t-121 -30h-51v81h47q64 0 106 39t42 99q0 59 -42 98.5t-106 39.5h-45v81h26q55 0 90.5 34t35.5 84t-34 84.5t-84 34.5q-51 0 -85.5 -36.5t-34.5 -92.5v-546h-86v547q0 61 27.5 109t74.5 74t103 26q55 0 102 -25.5t75 -70
t28 -96.5q0 -49 -23.5 -91t-64.5 -68q61 -25 95 -77t34 -111z" />
    <glyph glyph-name="agrave" unicode="&#xe0;" horiz-adv-x="630" 
d="M463 77q-26 -38 -74 -62.5t-102 -24.5q-69 0 -125 35t-88 94.5t-32 130.5t32 130.5t88 94.5t125 35q54 0 102 -24.5t74 -62.5v77h86v-500h-86v77zM129 250q0 -50 22 -91.5t61 -65.5t88 -24t88 24t60.5 65.5t21.5 91.5t-21.5 91.5t-60.5 65.5t-88 24t-88 -24t-61 -65.5
t-22 -91.5zM258 750l94 -190h-70l-134 190h110z" />
    <glyph glyph-name="aacute" unicode="&#xe1;" horiz-adv-x="630" 
d="M463 77q-26 -38 -74 -62.5t-102 -24.5q-69 0 -125 35t-88 94.5t-32 130.5t32 130.5t88 94.5t125 35q54 0 102 -24.5t74 -62.5v77h86v-500h-86v77zM129 250q0 -50 22 -91.5t61 -65.5t88 -24t88 24t60.5 65.5t21.5 91.5t-21.5 91.5t-60.5 65.5t-88 24t-88 -24t-61 -65.5
t-22 -91.5zM493 750l-134 -190h-69l93 190h110z" />
    <glyph glyph-name="acircumflex" unicode="&#xe2;" horiz-adv-x="630" 
d="M463 77q-26 -38 -74 -62.5t-102 -24.5q-69 0 -125 35t-88 94.5t-32 130.5t32 130.5t88 94.5t125 35q54 0 102 -24.5t74 -62.5v77h86v-500h-86v77zM129 250q0 -50 22 -91.5t61 -65.5t88 -24t88 24t60.5 65.5t21.5 91.5t-21.5 91.5t-60.5 65.5t-88 24t-88 -24t-61 -65.5
t-22 -91.5zM479 576l-159 101l-159 -101v79l159 101l159 -101v-79z" />
    <glyph glyph-name="atilde" unicode="&#xe3;" horiz-adv-x="630" 
d="M463 77q-26 -38 -74 -62.5t-102 -24.5q-69 0 -125 35t-88 94.5t-32 130.5t32 130.5t88 94.5t125 35q54 0 102 -24.5t74 -62.5v77h86v-500h-86v77zM129 250q0 -50 22 -91.5t61 -65.5t88 -24t88 24t60.5 65.5t21.5 91.5t-21.5 91.5t-60.5 65.5t-88 24t-88 -24t-61 -65.5
t-22 -91.5zM255 706q20 0 38 -7t42 -19q17 -9 28 -13.5t21 -4.5q33 0 43 44h66l-3 -18q-8 -43 -37 -69t-69 -26q-20 0 -38 7t-42 19q-17 9 -28.5 13.5t-20.5 4.5q-33 0 -43 -44h-66l3 18q8 43 37 69t69 26z" />
    <glyph glyph-name="adieresis" unicode="&#xe4;" horiz-adv-x="630" 
d="M463 77q-26 -38 -74 -62.5t-102 -24.5q-69 0 -125 35t-88 94.5t-32 130.5t32 130.5t88 94.5t125 35q54 0 102 -24.5t74 -62.5v77h86v-500h-86v77zM129 250q0 -50 22 -91.5t61 -65.5t88 -24t88 24t60.5 65.5t21.5 91.5t-21.5 91.5t-60.5 65.5t-88 24t-88 -24t-61 -65.5
t-22 -91.5zM149 654q0 24 17 41.5t42 17.5q24 0 41 -17.5t17 -41.5t-17 -41t-41 -17q-25 0 -42 17t-17 41zM374 654q0 24 17.5 41.5t41.5 17.5t41 -17.5t17 -41.5t-17 -41t-41 -17t-41.5 17t-17.5 41z" />
    <glyph glyph-name="aring" unicode="&#xe5;" horiz-adv-x="630" 
d="M463 77q-26 -38 -74 -62.5t-102 -24.5q-69 0 -125 35t-88 94.5t-32 130.5t32 130.5t88 94.5t125 35q54 0 102 -24.5t74 -62.5v77h86v-500h-86v77zM129 250q0 -50 22 -91.5t61 -65.5t88 -24t88 24t60.5 65.5t21.5 91.5t-21.5 91.5t-60.5 65.5t-88 24t-88 -24t-61 -65.5
t-22 -91.5zM199 662q0 32 16.5 60t44.5 44.5t61 16.5q32 0 60 -16.5t44.5 -44.5t16.5 -60q0 -50 -35.5 -85.5t-85.5 -35.5t-86 35.5t-36 85.5zM321 722q-24 0 -42 -18t-18 -43q0 -23 17.5 -41t42.5 -18q23 0 41.5 17.5t18.5 41.5q0 25 -17.5 43t-42.5 18z" />
    <glyph glyph-name="ae" unicode="&#xe6;" horiz-adv-x="906" 
d="M863 253q0 -17 -1 -26h-406q1 -45 23.5 -81t60 -57t82.5 -21q102 0 144 84h89q-20 -70 -81.5 -116t-151.5 -46q-56 0 -109.5 23.5t-92.5 74.5q-28 -50 -77.5 -74t-116.5 -24q-57 0 -97.5 20.5t-61.5 54t-21 70.5q0 69 53 103.5t163 56.5q48 10 69 16t32 16.5t11 29.5
q0 35 -26 56t-77 21q-56 0 -90 -26t-36 -73h-87q0 48 27.5 88t76 63.5t109.5 23.5q122 0 166 -87q31 40 81 63.5t106 23.5q71 0 125.5 -34t84 -92.5t29.5 -130.5zM771 295q-12 68 -53 103.5t-99 35.5t-102.5 -34.5t-56.5 -104.5h311zM377 263q-18 -10 -55 -21t-47 -14
q-19 -4 -33 -9q-58 -15 -80 -32.5t-22 -48.5q0 -35 27 -54.5t72 -19.5q63 0 100.5 31t37.5 94v74z" />
    <glyph glyph-name="ccedilla" unicode="&#xe7;" horiz-adv-x="588" 
d="M42 250q0 71 33.5 130.5t93.5 94.5t134 35q93 0 162 -52t90 -134h-92q-17 48 -60 77.5t-100 29.5q-51 0 -90.5 -24t-61.5 -65.5t-22 -91.5t22 -91.5t61.5 -65.5t90.5 -24q57 0 100 29.5t60 77.5h92q-21 -82 -90 -134t-162 -52q-74 0 -134 35t-93.5 94.5t-33.5 130.5z
M274 -166q29 0 48.5 10.5t19.5 30.5q0 30 -47 30q-22 0 -44 -10l-33 21l53 87h54l-34 -56q17 7 40 7q35 0 58 -20.5t23 -55.5q0 -43 -37.5 -70t-92.5 -27q-53 0 -84 15v55q15 -8 35.5 -12.5t40.5 -4.5z" />
    <glyph glyph-name="egrave" unicode="&#xe8;" horiz-adv-x="579" 
d="M537 253q0 -17 -1 -26h-407q1 -45 24 -81t60.5 -57t81.5 -21q103 0 145 84h88q-20 -70 -81.5 -116t-152.5 -46q-72 0 -129.5 34t-90 93t-32.5 133q0 73 31 132.5t89 93.5t134 34q72 0 127 -34t84.5 -92.5t29.5 -130.5zM133 295h312q-12 68 -53 103.5t-99 35.5
q-59 0 -103.5 -34.5t-56.5 -104.5zM234 750l94 -190h-70l-134 190h110z" />
    <glyph glyph-name="eacute" unicode="&#xe9;" horiz-adv-x="579" 
d="M537 253q0 -17 -1 -26h-407q1 -45 24 -81t60.5 -57t81.5 -21q103 0 145 84h88q-20 -70 -81.5 -116t-152.5 -46q-72 0 -129.5 34t-90 93t-32.5 133q0 73 31 132.5t89 93.5t134 34q72 0 127 -34t84.5 -92.5t29.5 -130.5zM133 295h312q-12 68 -53 103.5t-99 35.5
q-59 0 -103.5 -34.5t-56.5 -104.5zM468 750l-134 -190h-69l93 190h110z" />
    <glyph glyph-name="ecircumflex" unicode="&#xea;" horiz-adv-x="579" 
d="M537 253q0 -17 -1 -26h-407q1 -45 24 -81t60.5 -57t81.5 -21q103 0 145 84h88q-20 -70 -81.5 -116t-152.5 -46q-72 0 -129.5 34t-90 93t-32.5 133q0 73 31 132.5t89 93.5t134 34q72 0 127 -34t84.5 -92.5t29.5 -130.5zM133 295h312q-12 68 -53 103.5t-99 35.5
q-59 0 -103.5 -34.5t-56.5 -104.5zM455 576l-159 101l-159 -101v79l159 101l159 -101v-79z" />
    <glyph glyph-name="edieresis" unicode="&#xeb;" horiz-adv-x="579" 
d="M537 253q0 -17 -1 -26h-407q1 -45 24 -81t60.5 -57t81.5 -21q103 0 145 84h88q-20 -70 -81.5 -116t-152.5 -46q-72 0 -129.5 34t-90 93t-32.5 133q0 73 31 132.5t89 93.5t134 34q72 0 127 -34t84.5 -92.5t29.5 -130.5zM133 295h312q-12 68 -53 103.5t-99 35.5
q-59 0 -103.5 -34.5t-56.5 -104.5zM125 654q0 24 17 41.5t42 17.5q24 0 41 -17.5t17 -41.5t-17 -41t-41 -17q-25 0 -42 17t-17 41zM350 654q0 24 17.5 41.5t41.5 17.5t41 -17.5t17 -41.5t-17 -41t-41 -17t-41.5 17t-17.5 41z" />
    <glyph glyph-name="igrave" unicode="&#xec;" horiz-adv-x="249" 
d="M167 500v-500h-86v500h86zM62 750l94 -190h-70l-134 190h110z" />
    <glyph glyph-name="iacute" unicode="&#xed;" horiz-adv-x="249" 
d="M167 500v-500h-86v500h86zM297 750l-134 -190h-69l93 190h110z" />
    <glyph glyph-name="icircumflex" unicode="&#xee;" horiz-adv-x="249" 
d="M167 500v-500h-86v500h86zM283 576l-159 101l-159 -101v79l159 101l159 -101v-79z" />
    <glyph glyph-name="idieresis" unicode="&#xef;" horiz-adv-x="249" 
d="M167 500v-500h-86v500h86zM-35 657q0 25 18 42.5t43 17.5t43 -17.5t18 -42.5t-18 -43t-43 -18q-26 0 -43.5 18t-17.5 43zM161 657q0 25 18 42.5t43 17.5t43 -17.5t18 -42.5t-18 -43t-43 -18t-43 18t-18 43z" />
    <glyph glyph-name="eth" unicode="&#xf0;" horiz-adv-x="607" 
d="M565 250q0 -71 -34 -130.5t-94 -94.5t-134 -35q-73 0 -133 35t-94 94.5t-34 130.5q0 73 34.5 132t94 93t129.5 34q27 0 53 -5l-47 70h-143v68h97l-73 108h94l73 -108h124v-68h-78l111 -164q54 -80 54 -160zM477 250q0 50 -22 91t-61.5 65t-90.5 24t-90.5 -24t-61.5 -65
t-22 -91t22 -91t61.5 -65t90.5 -24t90.5 24t61.5 65t22 91z" />
    <glyph glyph-name="ntilde" unicode="&#xf1;" horiz-adv-x="589" 
d="M167 500v-77q25 43 67 65t92 22q85 0 137 -55t52 -147v-308h-85v295q0 62 -32.5 99t-85.5 37q-63 0 -104 -49t-41 -134v-248h-86v500h86zM233 706q20 0 38 -7t42 -19q17 -9 28 -13.5t21 -4.5q33 0 43 44h66l-3 -18q-8 -43 -37 -69t-69 -26q-20 0 -38 7t-42 19
q-17 9 -28.5 13.5t-20.5 4.5q-33 0 -43 -44h-66l3 18q8 43 37 69t69 26z" />
    <glyph glyph-name="ograve" unicode="&#xf2;" horiz-adv-x="606" 
d="M41 250q0 71 34 130.5t94 94.5t134 35t133.5 -35t93.5 -94.5t34 -130.5t-34 -130.5t-93.5 -94.5t-133.5 -35t-134 35t-94 94.5t-34 130.5zM476 250q0 50 -21.5 91t-61 65t-90.5 24t-90.5 -24t-61.5 -65t-22 -91t22 -91t61.5 -65t90.5 -24t90.5 24t61 65t21.5 91zM241 750
l94 -190h-70l-134 190h110z" />
    <glyph glyph-name="oacute" unicode="&#xf3;" horiz-adv-x="606" 
d="M41 250q0 71 34 130.5t94 94.5t134 35t133.5 -35t93.5 -94.5t34 -130.5t-34 -130.5t-93.5 -94.5t-133.5 -35t-134 35t-94 94.5t-34 130.5zM476 250q0 50 -21.5 91t-61 65t-90.5 24t-90.5 -24t-61.5 -65t-22 -91t22 -91t61.5 -65t90.5 -24t90.5 24t61 65t21.5 91zM476 750
l-134 -190h-69l93 190h110z" />
    <glyph glyph-name="ocircumflex" unicode="&#xf4;" horiz-adv-x="606" 
d="M41 250q0 71 34 130.5t94 94.5t134 35t133.5 -35t93.5 -94.5t34 -130.5t-34 -130.5t-93.5 -94.5t-133.5 -35t-134 35t-94 94.5t-34 130.5zM476 250q0 50 -21.5 91t-61 65t-90.5 24t-90.5 -24t-61.5 -65t-22 -91t22 -91t61.5 -65t90.5 -24t90.5 24t61 65t21.5 91zM462 576
l-159 101l-159 -101v79l159 101l159 -101v-79z" />
    <glyph glyph-name="otilde" unicode="&#xf5;" horiz-adv-x="606" 
d="M41 250q0 71 34 130.5t94 94.5t134 35t133.5 -35t93.5 -94.5t34 -130.5t-34 -130.5t-93.5 -94.5t-133.5 -35t-134 35t-94 94.5t-34 130.5zM476 250q0 50 -21.5 91t-61 65t-90.5 24t-90.5 -24t-61.5 -65t-22 -91t22 -91t61.5 -65t90.5 -24t90.5 24t61 65t21.5 91zM238 706
q20 0 38 -7t42 -19q17 -9 28 -13.5t21 -4.5q33 0 43 44h66l-3 -18q-8 -43 -37 -69t-69 -26q-20 0 -38 7t-42 19q-17 9 -28.5 13.5t-20.5 4.5q-33 0 -43 -44h-66l3 18q8 43 37 69t69 26z" />
    <glyph glyph-name="odieresis" unicode="&#xf6;" horiz-adv-x="606" 
d="M41 250q0 71 34 130.5t94 94.5t134 35t133.5 -35t93.5 -94.5t34 -130.5t-34 -130.5t-93.5 -94.5t-133.5 -35t-134 35t-94 94.5t-34 130.5zM476 250q0 50 -21.5 91t-61 65t-90.5 24t-90.5 -24t-61.5 -65t-22 -91t22 -91t61.5 -65t90.5 -24t90.5 24t61 65t21.5 91zM132 654
q0 24 17 41.5t42 17.5q24 0 41 -17.5t17 -41.5t-17 -41t-41 -17q-25 0 -42 17t-17 41zM357 654q0 24 17.5 41.5t41.5 17.5t41 -17.5t17 -41.5t-17 -41t-41 -17t-41.5 17t-17.5 41z" />
    <glyph glyph-name="oslash" unicode="&#xf8;" horiz-adv-x="616" 
d="M46 250q0 71 34 130.5t94 94.5t134 35t133.5 -35t93.5 -94.5t34 -130.5t-34 -130.5t-93.5 -94.5t-133.5 -35t-134 35t-94 94.5t-34 130.5zM481 250q0 50 -21.5 91t-61 65t-90.5 24t-90.5 -24t-61.5 -65t-22 -91t22 -91t61.5 -65t90.5 -24t90.5 24t61 65t21.5 91zM53 30
l471 480l39 -39l-470 -481z" />
    <glyph glyph-name="ugrave" unicode="&#xf9;" horiz-adv-x="579" 
d="M412 77q-24 -43 -64.5 -65t-89.5 -22q-83 0 -133.5 55t-50.5 148v307h86v-294q0 -63 30.5 -100t82.5 -37q39 0 71 22t50 63.5t18 97.5v248h86v-500h-86v77v0zM223 750l94 -190h-70l-134 190h110z" />
    <glyph glyph-name="uacute" unicode="&#xfa;" horiz-adv-x="579" 
d="M412 77q-24 -43 -64.5 -65t-89.5 -22q-83 0 -133.5 55t-50.5 148v307h86v-294q0 -63 30.5 -100t82.5 -37q39 0 71 22t50 63.5t18 97.5v248h86v-500h-86v77v0zM458 750l-134 -190h-69l93 190h110z" />
    <glyph glyph-name="ucircumflex" unicode="&#xfb;" horiz-adv-x="579" 
d="M412 77q-24 -43 -64.5 -65t-89.5 -22q-83 0 -133.5 55t-50.5 148v307h86v-294q0 -63 30.5 -100t82.5 -37q39 0 71 22t50 63.5t18 97.5v248h86v-500h-86v77v0zM444 576l-159 101l-159 -101v79l159 101l159 -101v-79z" />
    <glyph glyph-name="udieresis" unicode="&#xfc;" horiz-adv-x="579" 
d="M412 77q-24 -43 -64.5 -65t-89.5 -22q-83 0 -133.5 55t-50.5 148v307h86v-294q0 -63 30.5 -100t82.5 -37q39 0 71 22t50 63.5t18 97.5v248h86v-500h-86v77v0zM114 654q0 24 17 41.5t42 17.5q24 0 41 -17.5t17 -41.5t-17 -41t-41 -17q-25 0 -42 17t-17 41zM339 654
q0 24 17.5 41.5t41.5 17.5t41 -17.5t17 -41.5t-17 -41t-41 -17t-41.5 17t-17.5 41z" />
    <glyph glyph-name="yacute" unicode="&#xfd;" horiz-adv-x="547" 
d="M542 500l-328 -709h-96l109 235l-219 474h95l172 -379l171 379h96zM448 750l-134 -190h-69l93 190h110z" />
    <glyph glyph-name="thorn" unicode="&#xfe;" horiz-adv-x="630" 
d="M167 -209h-86v959h86v-327q26 38 74 62.5t102 24.5q68 0 124 -35t88.5 -94.5t32.5 -130.5t-32.5 -130.5t-88.5 -94.5t-124 -35q-54 0 -102 24.5t-74 62.5v-286zM160 250q0 -50 21.5 -91.5t60.5 -65.5t88 -24t88 24t60.5 65.5t21.5 91.5t-21.5 91.5t-60.5 65.5t-88 24
t-88 -24t-60.5 -65.5t-21.5 -91.5z" />
    <glyph glyph-name="ydieresis" unicode="&#xff;" horiz-adv-x="547" 
d="M542 500l-328 -709h-96l109 235l-219 474h95l172 -379l171 379h96zM104 654q0 24 17 41.5t42 17.5q24 0 41 -17.5t17 -41.5t-17 -41t-41 -17q-25 0 -42 17t-17 41zM329 654q0 24 17.5 41.5t41.5 17.5t41 -17.5t17 -41.5t-17 -41t-41 -17t-41.5 17t-17.5 41z" />
    <glyph glyph-name="Abreve" unicode="&#x102;" horiz-adv-x="718" 
d="M524 207h-331l-91 -207h-96l314 710h77l315 -710h-97zM487 291l-129 293l-129 -293h258zM517 917q0 -47 -21 -83t-57.5 -55.5t-80.5 -19.5t-80.5 19.5t-57.5 55.5t-21 83h58q0 -47 28.5 -74t72.5 -27t72.5 27t28.5 74h58v0z" />
    <glyph glyph-name="Amacron" unicode="&#x100;" horiz-adv-x="718" 
d="M524 207h-331l-91 -207h-96l314 710h77l315 -710h-97zM487 291l-129 293l-129 -293h258zM519 874v-69h-322v69h322z" />
    <glyph glyph-name="Aogonek" unicode="&#x104;" horiz-adv-x="718" 
d="M656 -145q29 0 56 22v-70q-32 -26 -81 -26q-40 0 -67.5 25t-27.5 64q0 40 22 71.5t57 58.5l-91 207h-331l-91 -207h-96l314 710h77l315 -710q-46 -28 -69 -58t-23 -54q0 -16 10 -24.5t26 -8.5zM487 291l-129 293l-129 -293h258z" />
    <glyph glyph-name="Cacute" unicode="&#x106;" horiz-adv-x="788" 
d="M754 234q-16 -66 -63 -122t-119 -90t-158 -34q-102 0 -186.5 48.5t-133 132.5t-48.5 186t48.5 186t133 132.5t186.5 48.5q86 0 158 -34t119 -90t63 -122h-98q-24 69 -90 113.5t-152 44.5q-78 0 -140.5 -37t-98.5 -100.5t-36 -141.5t36 -141.5t98.5 -100.5t140.5 -37
q86 0 152 44.5t90 113.5h98v0zM567 917l-114 -148h-72l78 148h108z" />
    <glyph glyph-name="Ccaron" unicode="&#x10c;" horiz-adv-x="788" 
d="M754 234q-16 -66 -63 -122t-119 -90t-158 -34q-102 0 -186.5 48.5t-133 132.5t-48.5 186t48.5 186t133 132.5t186.5 48.5q86 0 158 -34t119 -90t63 -122h-98q-24 69 -90 113.5t-152 44.5q-78 0 -140.5 -37t-98.5 -100.5t-36 -141.5t36 -141.5t98.5 -100.5t140.5 -37
q86 0 152 44.5t90 113.5h98v0zM243 926l166 -87l166 87v-77l-166 -87l-166 87v77z" />
    <glyph glyph-name="Ccircumflex" unicode="&#x108;" horiz-adv-x="788" 
d="M754 234q-16 -66 -63 -122t-119 -90t-158 -34q-102 0 -186.5 48.5t-133 132.5t-48.5 186t48.5 186t133 132.5t186.5 48.5q86 0 158 -34t119 -90t63 -122h-98q-24 69 -90 113.5t-152 44.5q-78 0 -140.5 -37t-98.5 -100.5t-36 -141.5t36 -141.5t98.5 -100.5t140.5 -37
q86 0 152 44.5t90 113.5h98v0zM409 926l166 -87v-77l-166 87l-166 -87v77z" />
    <glyph glyph-name="Cdotaccent" unicode="&#x10a;" horiz-adv-x="788" 
d="M754 234q-16 -66 -63 -122t-119 -90t-158 -34q-102 0 -186.5 48.5t-133 132.5t-48.5 186t48.5 186t133 132.5t186.5 48.5q86 0 158 -34t119 -90t63 -122h-98q-24 69 -90 113.5t-152 44.5q-78 0 -140.5 -37t-98.5 -100.5t-36 -141.5t36 -141.5t98.5 -100.5t140.5 -37
q86 0 152 44.5t90 113.5h98v0zM350 843q0 24 17 41.5t42 17.5q24 0 41 -17.5t17 -41.5t-17 -41t-41 -17q-25 0 -42 17t-17 41z" />
    <glyph glyph-name="Dcaron" unicode="&#x10e;" horiz-adv-x="721" 
d="M298 710q107 0 193.5 -46.5t135.5 -127.5t49 -181t-49 -181t-135.5 -127.5t-193.5 -46.5h-204v710h204zM582 355q0 77 -35.5 138t-100 95.5t-148.5 34.5h-111v-536h111q84 0 148.5 34.5t100 95.5t35.5 138zM175 926l166 -87l166 87v-77l-166 -87l-166 87v77z" />
    <glyph glyph-name="Dcroat" unicode="&#x110;" horiz-adv-x="729" 
d="M305 710q107 0 193.5 -46.5t135.5 -127.5t49 -181t-49 -181t-135.5 -127.5t-193.5 -46.5h-204v710h204zM589 355q0 77 -35.5 138t-100 95.5t-148.5 34.5h-111v-536h111q84 0 148.5 34.5t100 95.5t35.5 138zM354 401v-82h-326v82h326z" />
    <glyph glyph-name="Ebreve" unicode="&#x114;" horiz-adv-x="557" 
d="M508 710v-88h-321v-215h261v-88h-261v-231h321v-88h-414v710h414zM460 917q0 -47 -21 -83t-57.5 -55.5t-80.5 -19.5t-80.5 19.5t-57.5 55.5t-21 83h58q0 -47 28.5 -74t72.5 -27t72.5 27t28.5 74h58v0z" />
    <glyph glyph-name="Ecaron" unicode="&#x11a;" horiz-adv-x="557" 
d="M508 710v-88h-321v-215h261v-88h-261v-231h321v-88h-414v710h414zM135 926l166 -87l166 87v-77l-166 -87l-166 87v77z" />
    <glyph glyph-name="Emacron" unicode="&#x112;" horiz-adv-x="557" 
d="M508 710v-88h-321v-215h261v-88h-261v-231h321v-88h-414v710h414zM462 874v-69h-322v69h322z" />
    <glyph glyph-name="Eogonek" unicode="&#x118;" horiz-adv-x="557" 
d="M508 710v-88h-321v-215h261v-88h-261v-231h321v-88h-414v710h414zM332 -130q0 40 23 70t60 60h93q-46 -28 -69 -58t-23 -54q0 -16 10.5 -24.5t25.5 -8.5q29 0 56 22v-70q-32 -26 -81 -26q-40 0 -67.5 25t-27.5 64z" />
    <glyph glyph-name="Edotaccent" unicode="&#x116;" horiz-adv-x="557" 
d="M508 710v-88h-321v-215h261v-88h-261v-231h321v-88h-414v710h414zM242 843q0 24 17 41.5t42 17.5q24 0 41 -17.5t17 -41.5t-17 -41t-41 -17q-25 0 -42 17t-17 41z" />
    <glyph glyph-name="Gbreve" unicode="&#x11e;" horiz-adv-x="816" 
d="M772 365q0 -114 -48 -199.5t-129.5 -131.5t-180.5 -46q-102 0 -186.5 48.5t-133 132.5t-48.5 186t48.5 186t133 132.5t186.5 48.5q81 0 150.5 -30t117.5 -81t68 -111h-103q-29 59 -92 96.5t-141 37.5t-140.5 -37t-98.5 -100.5t-36 -141.5t36 -141.5t98.5 -100.5
t140.5 -37q72 0 129 31.5t91.5 86.5t40.5 125h-265v87h360q2 -28 2 -41zM573 917q0 -47 -21 -83t-57.5 -55.5t-80.5 -19.5t-80.5 19.5t-57.5 55.5t-21 83h58q0 -47 28.5 -74t72.5 -27t72.5 27t28.5 74h58v0z" />
    <glyph glyph-name="Gcircumflex" unicode="&#x11c;" horiz-adv-x="816" 
d="M772 365q0 -114 -48 -199.5t-129.5 -131.5t-180.5 -46q-102 0 -186.5 48.5t-133 132.5t-48.5 186t48.5 186t133 132.5t186.5 48.5q81 0 150.5 -30t117.5 -81t68 -111h-103q-29 59 -92 96.5t-141 37.5t-140.5 -37t-98.5 -100.5t-36 -141.5t36 -141.5t98.5 -100.5
t140.5 -37q72 0 129 31.5t91.5 86.5t40.5 125h-265v87h360q2 -28 2 -41zM414 926l166 -87v-77l-166 87l-166 -87v77z" />
    <glyph glyph-name="uni0122" unicode="&#x122;" horiz-adv-x="816" 
d="M772 365q0 -114 -48 -199.5t-129.5 -131.5t-180.5 -46q-102 0 -186.5 48.5t-133 132.5t-48.5 186t48.5 186t133 132.5t186.5 48.5q81 0 150.5 -30t117.5 -81t68 -111h-103q-29 59 -92 96.5t-141 37.5t-140.5 -37t-98.5 -100.5t-36 -141.5t36 -141.5t98.5 -100.5
t140.5 -37q72 0 129 31.5t91.5 86.5t40.5 125h-265v87h360q2 -28 2 -41zM356 -132q0 24 17 41.5t41 17.5t41 -17.5t17 -41.5q0 -17 -11 -35l-64 -102h-45l36 85q-14 8 -23 22t-9 30z" />
    <glyph glyph-name="Gdotaccent" unicode="&#x120;" horiz-adv-x="816" 
d="M772 365q0 -114 -48 -199.5t-129.5 -131.5t-180.5 -46q-102 0 -186.5 48.5t-133 132.5t-48.5 186t48.5 186t133 132.5t186.5 48.5q81 0 150.5 -30t117.5 -81t68 -111h-103q-29 59 -92 96.5t-141 37.5t-140.5 -37t-98.5 -100.5t-36 -141.5t36 -141.5t98.5 -100.5
t140.5 -37q72 0 129 31.5t91.5 86.5t40.5 125h-265v87h360q2 -28 2 -41zM355 843q0 24 17 41.5t42 17.5q24 0 41 -17.5t17 -41.5t-17 -41t-41 -17q-25 0 -42 17t-17 41z" />
    <glyph glyph-name="Hbar" unicode="&#x126;" horiz-adv-x="776" 
d="M194 710v-303h389v303h93v-710h-93v320h-389v-320h-93v710h93zM749 595v-72h-721v72h721z" />
    <glyph glyph-name="Hcircumflex" unicode="&#x124;" horiz-adv-x="763" 
d="M187 710v-303h389v303h93v-710h-93v320h-389v-320h-93v710h93zM381 926l166 -87v-77l-166 87l-166 -87v77z" />
    <glyph glyph-name="Ibreve" unicode="&#x12c;" horiz-adv-x="281" 
d="M187 710v-710h-93v710h93zM300 917q0 -47 -21 -83t-57.5 -55.5t-80.5 -19.5t-80.5 19.5t-57.5 55.5t-21 83h58q0 -47 28.5 -74t72.5 -27t72.5 27t28.5 74h58v0z" />
    <glyph glyph-name="Idotaccent" unicode="&#x130;" horiz-adv-x="281" 
d="M187 710v-710h-93v710h93zM82 843q0 24 17 41.5t42 17.5q24 0 41 -17.5t17 -41.5t-17 -41t-41 -17q-25 0 -42 17t-17 41z" />
    <glyph glyph-name="Imacron" unicode="&#x12a;" horiz-adv-x="281" 
d="M187 710v-710h-93v710h93zM302 874v-69h-322v69h322z" />
    <glyph glyph-name="Iogonek" unicode="&#x12e;" horiz-adv-x="281" 
d="M187 710v-710h-93v710h93zM11 -130q0 40 23 70t60 60h93q-46 -28 -69 -58t-23 -54q0 -16 10.5 -24.5t25.5 -8.5q29 0 56 22v-70q-32 -26 -81 -26q-40 0 -67.5 25t-27.5 64z" />
    <glyph glyph-name="Itilde" unicode="&#x128;" horiz-adv-x="281" 
d="M187 710v-710h-93v710h93zM77 899q19 0 36.5 -6.5t43.5 -19.5q13 -7 26.5 -12.5t22.5 -5.5q33 0 43 44h66l-4 -19q-8 -42 -37 -68t-69 -26q-19 0 -36.5 6.5t-43.5 19.5q-32 18 -48 18q-17 0 -27.5 -10.5t-16.5 -33.5h-65l3 18q7 43 36.5 69t69.5 26z" />
    <glyph glyph-name="uni1ECA" unicode="&#x1eca;" horiz-adv-x="281" 
d="M187 710v-710h-93v710h93zM82 -132q0 24 17 41.5t42 17.5q24 0 41 -17.5t17 -41.5t-17 -41t-41 -17q-25 0 -42 17t-17 41z" />
    <glyph glyph-name="Jcircumflex" unicode="&#x134;" horiz-adv-x="529" 
d="M22 190h92q0 -55 34 -85.5t84 -30.5q51 0 84 32t33 100v504h92v-514q0 -105 -59 -156.5t-149 -51.5q-59 0 -107 23.5t-76 69.5t-28 109zM395 926l166 -87v-77l-166 87l-166 -87v77z" />
    <glyph glyph-name="uni0136" unicode="&#x136;" horiz-adv-x="671" 
d="M563 0l-377 338v-338h-92v710h92v-308l310 308h121l-337 -338l414 -372h-131zM316 -132q0 24 17 41.5t41 17.5t41 -17.5t17 -41.5q0 -17 -11 -35l-64 -102h-45l36 85q-14 8 -23 22t-9 30z" />
    <glyph glyph-name="Lacute" unicode="&#x139;" horiz-adv-x="548" 
d="M187 710v-622h343v-88h-436v710h93zM299 917l-114 -148h-72l78 148h108z" />
    <glyph glyph-name="Lcaron" unicode="&#x13d;" horiz-adv-x="548" 
d="M187 710v-622h343v-88h-436v710h93zM397 750l-50 -165h-60l24 165h86z" />
    <glyph glyph-name="uni013B" unicode="&#x13b;" horiz-adv-x="548" 
d="M187 710v-622h343v-88h-436v710h93zM248 -132q0 24 17 41.5t41 17.5t41 -17.5t17 -41.5q0 -17 -11 -35l-64 -102h-45l36 85q-14 8 -23 22t-9 30z" />
    <glyph glyph-name="Ldot" unicode="&#x13f;" horiz-adv-x="553" 
d="M187 710v-622h343v-88h-436v710h93zM358 399q0 24 17 41.5t42 17.5q24 0 41 -17.5t17 -41.5t-17 -41t-41 -17q-25 0 -42 17t-17 41z" />
    <glyph glyph-name="glyph221" horiz-adv-x="553" 
d="M187 710v-622h343v-88h-436v710h93zM358 399q0 24 17 41.5t42 17.5q24 0 41 -17.5t17 -41.5t-17 -41t-41 -17q-25 0 -42 17t-17 41z" />
    <glyph glyph-name="Lslash" unicode="&#x141;" horiz-adv-x="558" 
d="M197 710v-622h343v-88h-436v710h93zM31 297l325 210v-84l-325 -210v84z" />
    <glyph glyph-name="Eng" unicode="&#x14a;" horiz-adv-x="794" 
d="M699 710v-776q0 -75 -42.5 -114t-110.5 -39q-43 0 -77 13v81q29 -11 63 -11q38 0 56.5 19.5t18.5 65.5v66l-420 538v-553h-93v710h81l432 -553v553h92z" />
    <glyph glyph-name="Nacute" unicode="&#x143;" horiz-adv-x="794" 
d="M699 710v-710h-80l-432 553v-553h-93v710h81l432 -553v553h92zM551 917l-114 -148h-72l78 148h108z" />
    <glyph glyph-name="Ncaron" unicode="&#x147;" horiz-adv-x="794" 
d="M699 710v-710h-80l-432 553v-553h-93v710h81l432 -553v553h92zM227 926l166 -87l166 87v-77l-166 -87l-166 87v77z" />
    <glyph glyph-name="uni0145" unicode="&#x145;" horiz-adv-x="794" 
d="M699 710v-710h-80l-432 553v-553h-93v710h81l432 -553v553h92zM342 -132q0 24 17 41.5t41 17.5t41 -17.5t17 -41.5q0 -17 -11 -35l-64 -102h-45l36 85q-14 8 -23 22t-9 30z" />
    <glyph glyph-name="OE" unicode="&#x152;" horiz-adv-x="1149" 
d="M412 -12q-101 0 -185 48.5t-133 133t-49 185.5t49 185.5t133 133t185 48.5q85 0 155.5 -34t118.5 -96v118h414v-88h-322v-215h262v-88h-262v-231h322v-88h-414v118q-48 -62 -118.5 -96t-155.5 -34zM686 355q0 77 -36 141t-98.5 101t-139.5 37q-76 0 -138.5 -37
t-98.5 -101t-36 -141t36 -141t98.5 -101t138.5 -37q77 0 139.5 37t98.5 101t36 141z" />
    <glyph glyph-name="Obreve" unicode="&#x14e;" horiz-adv-x="825" 
d="M45 355q0 101 49 185.5t133 133t185 48.5t185 -48.5t133 -133t49 -185.5t-49 -185.5t-133 -133t-185 -48.5t-185 48.5t-133 133t-49 185.5zM686 355q0 77 -36 141t-98.5 101t-139.5 37q-76 0 -138.5 -37t-98.5 -101t-36 -141t36 -141t98.5 -101t138.5 -37q77 0 139.5 37
t98.5 101t36 141zM571 917q0 -47 -21 -83t-57.5 -55.5t-80.5 -19.5t-80.5 19.5t-57.5 55.5t-21 83h58q0 -47 28.5 -74t72.5 -27t72.5 27t28.5 74h58v0z" />
    <glyph glyph-name="Ohungarumlaut" unicode="&#x150;" horiz-adv-x="825" 
d="M45 355q0 101 49 185.5t133 133t185 48.5t185 -48.5t133 -133t49 -185.5t-49 -185.5t-133 -133t-185 -48.5t-185 48.5t-133 133t-49 185.5zM686 355q0 77 -36 141t-98.5 101t-139.5 37q-76 0 -138.5 -37t-98.5 -101t-36 -141t36 -141t98.5 -101t138.5 -37q77 0 139.5 37
t98.5 101t36 141zM468 917l-109 -148h-59l69 148h99zM635 917l-109 -148h-59l69 148h99z" />
    <glyph glyph-name="Omacron" unicode="&#x14c;" horiz-adv-x="825" 
d="M45 355q0 101 49 185.5t133 133t185 48.5t185 -48.5t133 -133t49 -185.5t-49 -185.5t-133 -133t-185 -48.5t-185 48.5t-133 133t-49 185.5zM686 355q0 77 -36 141t-98.5 101t-139.5 37q-76 0 -138.5 -37t-98.5 -101t-36 -141t36 -141t98.5 -101t138.5 -37q77 0 139.5 37
t98.5 101t36 141zM573 874v-69h-322v69h322z" />
    <glyph glyph-name="uni1ECC" unicode="&#x1ecc;" horiz-adv-x="825" 
d="M45 355q0 101 49 185.5t133 133t185 48.5t185 -48.5t133 -133t49 -185.5t-49 -185.5t-133 -133t-185 -48.5t-185 48.5t-133 133t-49 185.5zM686 355q0 77 -36 141t-98.5 101t-139.5 37q-76 0 -138.5 -37t-98.5 -101t-36 -141t36 -141t98.5 -101t138.5 -37q77 0 139.5 37
t98.5 101t36 141zM353 -132q0 24 17 41.5t42 17.5q24 0 41 -17.5t17 -41.5t-17 -41t-41 -17q-25 0 -42 17t-17 41z" />
    <glyph glyph-name="Racute" unicode="&#x154;" horiz-adv-x="635" 
d="M529 0l-273 323h-69v-323h-93v710h242q97 0 154.5 -54t57.5 -142q0 -78 -46.5 -128t-128.5 -62l273 -324h-117zM325 406q62 0 96 27.5t34 80.5t-34 81.5t-96 28.5h-138v-218h138zM458 917l-114 -148h-72l78 148h108z" />
    <glyph glyph-name="Rcaron" unicode="&#x158;" horiz-adv-x="635" 
d="M529 0l-273 323h-69v-323h-93v710h242q97 0 154.5 -54t57.5 -142q0 -78 -46.5 -128t-128.5 -62l273 -324h-117zM325 406q62 0 96 27.5t34 80.5t-34 81.5t-96 28.5h-138v-218h138zM133 926l166 -87l166 87v-77l-166 -87l-166 87v77z" />
    <glyph glyph-name="uni0156" unicode="&#x156;" horiz-adv-x="635" 
d="M529 0l-273 323h-69v-323h-93v710h242q97 0 154.5 -54t57.5 -142q0 -78 -46.5 -128t-128.5 -62l273 -324h-117zM325 406q62 0 96 27.5t34 80.5t-34 81.5t-96 28.5h-138v-218h138zM300 -132q0 24 17 41.5t41 17.5t41 -17.5t17 -41.5q0 -17 -11 -35l-64 -102h-45l36 85
q-14 8 -23 22t-9 30z" />
    <glyph glyph-name="Sacute" unicode="&#x15a;" horiz-adv-x="563" 
d="M517 184q0 -59 -29 -103.5t-80.5 -68.5t-117.5 -24q-72 0 -127 27.5t-86 73.5t-33 101h92q6 -55 52 -85t102 -30q57 0 95.5 29t38.5 77q0 82 -101 119l-98 36q-84 30 -124 78t-40 122q0 57 28 99t77 64.5t111 22.5q68 0 117 -27.5t75.5 -71.5t31.5 -93h-92q-13 53 -50 79
t-84 26q-52 0 -86.5 -26.5t-34.5 -69.5q0 -44 24 -70t78 -45l91 -33q84 -30 127 -80t43 -127zM442 917l-114 -148h-72l78 148h108z" />
    <glyph glyph-name="Scaron" unicode="&#x160;" horiz-adv-x="563" 
d="M517 184q0 -59 -29 -103.5t-80.5 -68.5t-117.5 -24q-72 0 -127 27.5t-86 73.5t-33 101h92q6 -55 52 -85t102 -30q57 0 95.5 29t38.5 77q0 82 -101 119l-98 36q-84 30 -124 78t-40 122q0 57 28 99t77 64.5t111 22.5q68 0 117 -27.5t75.5 -71.5t31.5 -93h-92q-13 53 -50 79
t-84 26q-52 0 -86.5 -26.5t-34.5 -69.5q0 -44 24 -70t78 -45l91 -33q84 -30 127 -80t43 -127zM118 926l166 -87l166 87v-77l-166 -87l-166 87v77z" />
    <glyph glyph-name="Scedilla" unicode="&#x15e;" horiz-adv-x="563" 
d="M517 184q0 -59 -29 -103.5t-80.5 -68.5t-117.5 -24q-72 0 -127 27.5t-86 73.5t-33 101h92q6 -55 52 -85t102 -30q57 0 95.5 29t38.5 77q0 82 -101 119l-98 36q-84 30 -124 78t-40 122q0 57 28 99t77 64.5t111 22.5q68 0 117 -27.5t75.5 -71.5t31.5 -93h-92q-13 53 -50 79
t-84 26q-52 0 -86.5 -26.5t-34.5 -69.5q0 -44 24 -70t78 -45l91 -33q84 -30 127 -80t43 -127zM268 -219q-53 0 -85 15v55q15 -8 35.5 -12.5t40.5 -4.5q29 0 48.5 10t19.5 31q0 30 -46 30q-22 0 -45 -10l-32 21l52 87h55l-34 -56q17 7 40 7q35 0 57.5 -20.5t22.5 -55.5
q0 -43 -37 -70t-92 -27z" />
    <glyph glyph-name="Scircumflex" unicode="&#x15c;" horiz-adv-x="563" 
d="M517 184q0 -59 -29 -103.5t-80.5 -68.5t-117.5 -24q-72 0 -127 27.5t-86 73.5t-33 101h92q6 -55 52 -85t102 -30q57 0 95.5 29t38.5 77q0 82 -101 119l-98 36q-84 30 -124 78t-40 122q0 57 28 99t77 64.5t111 22.5q68 0 117 -27.5t75.5 -71.5t31.5 -93h-92q-13 53 -50 79
t-84 26q-52 0 -86.5 -26.5t-34.5 -69.5q0 -44 24 -70t78 -45l91 -33q84 -30 127 -80t43 -127zM284 926l166 -87v-77l-166 87l-166 -87v77z" />
    <glyph glyph-name="uni0218" unicode="&#x218;" horiz-adv-x="563" 
d="M517 184q0 -59 -29 -103.5t-80.5 -68.5t-117.5 -24q-72 0 -127 27.5t-86 73.5t-33 101h92q6 -55 52 -85t102 -30q57 0 95.5 29t38.5 77q0 82 -101 119l-98 36q-84 30 -124 78t-40 122q0 57 28 99t77 64.5t111 22.5q68 0 117 -27.5t75.5 -71.5t31.5 -93h-92q-13 53 -50 79
t-84 26q-52 0 -86.5 -26.5t-34.5 -69.5q0 -44 24 -70t78 -45l91 -33q84 -30 127 -80t43 -127zM232 -132q0 24 17 41.5t41 17.5t41 -17.5t17 -41.5q0 -17 -11 -35l-64 -102h-45l36 85q-14 8 -23 22t-9 30z" />
    <glyph glyph-name="Tbar" unicode="&#x166;" horiz-adv-x="594" 
d="M27 622v88h533v-88h-221v-622h-91v622h-221zM497 405v-81h-405v81h405z" />
    <glyph glyph-name="Tcaron" unicode="&#x164;" horiz-adv-x="567" 
d="M17 622v88h533v-88h-221v-622h-91v622h-221zM117 926l166 -87l166 87v-77l-166 -87l-166 87v77z" />
    <glyph glyph-name="uni0162" unicode="&#x162;" horiz-adv-x="567" 
d="M17 622v88h533v-88h-221v-622h-91v622h-221zM225 -132q0 24 17 41.5t41 17.5t41 -17.5t17 -41.5q0 -17 -11 -35l-64 -102h-45l36 85q-14 8 -23 22t-9 30z" />
    <glyph glyph-name="uni021A" unicode="&#x21a;" horiz-adv-x="567" 
d="M17 622v88h533v-88h-221v-622h-91v622h-221zM225 -132q0 24 17 41.5t41 17.5t41 -17.5t17 -41.5q0 -17 -11 -35l-64 -102h-45l36 85q-14 8 -23 22t-9 30z" />
    <glyph glyph-name="Ubreve" unicode="&#x16c;" horiz-adv-x="726" 
d="M85 276v434h93v-436q0 -94 50 -146t135 -52t135 52t50 146v436h93v-434q0 -87 -35 -152.5t-98 -100.5t-145 -35t-145 35t-98 100.5t-35 152.5zM522 917q0 -47 -21 -83t-57.5 -55.5t-80.5 -19.5t-80.5 19.5t-57.5 55.5t-21 83h58q0 -47 28.5 -74t72.5 -27t72.5 27t28.5 74
h58v0z" />
    <glyph glyph-name="Uhungarumlaut" unicode="&#x170;" horiz-adv-x="726" 
d="M85 276v434h93v-436q0 -94 50 -146t135 -52t135 52t50 146v436h93v-434q0 -87 -35 -152.5t-98 -100.5t-145 -35t-145 35t-98 100.5t-35 152.5zM419 917l-109 -148h-59l69 148h99zM586 917l-109 -148h-59l69 148h99z" />
    <glyph glyph-name="Umacron" unicode="&#x16a;" horiz-adv-x="726" 
d="M85 276v434h93v-436q0 -94 50 -146t135 -52t135 52t50 146v436h93v-434q0 -87 -35 -152.5t-98 -100.5t-145 -35t-145 35t-98 100.5t-35 152.5zM524 874v-69h-322v69h322z" />
    <glyph glyph-name="Uogonek" unicode="&#x172;" horiz-adv-x="726" 
d="M85 276v434h93v-436q0 -94 50 -146t135 -52t135 52t50 146v436h93v-434q0 -87 -35 -152.5t-98 -100.5t-145 -35t-145 35t-98 100.5t-35 152.5zM275 -130q0 40 23 70t60 60h93q-46 -28 -69 -58t-23 -54q0 -16 10.5 -24.5t25.5 -8.5q29 0 56 22v-70q-32 -26 -81 -26
q-40 0 -67.5 25t-27.5 64z" />
    <glyph glyph-name="Uring" unicode="&#x16e;" horiz-adv-x="726" 
d="M85 276v434h93v-436q0 -94 50 -146t135 -52t135 52t50 146v436h93v-434q0 -87 -35 -152.5t-98 -100.5t-145 -35t-145 35t-98 100.5t-35 152.5zM242 872q0 32 16.5 60t44.5 44.5t61 16.5q32 0 60 -16.5t44.5 -44.5t16.5 -60q0 -50 -35.5 -85.5t-85.5 -35.5t-86 35.5
t-36 85.5zM364 932q-24 0 -42 -18t-18 -43q0 -23 17.5 -41t42.5 -18q23 0 41.5 17.5t18.5 41.5q0 25 -17.5 43t-42.5 18z" />
    <glyph glyph-name="Utilde" unicode="&#x168;" horiz-adv-x="726" 
d="M85 276v434h93v-436q0 -94 50 -146t135 -52t135 52t50 146v436h93v-434q0 -87 -35 -152.5t-98 -100.5t-145 -35t-145 35t-98 100.5t-35 152.5zM299 899q19 0 36.5 -6.5t43.5 -19.5q13 -7 26.5 -12.5t22.5 -5.5q33 0 43 44h66l-4 -19q-8 -42 -37 -68t-69 -26
q-19 0 -36.5 6.5t-43.5 19.5q-32 18 -48 18q-17 0 -27.5 -10.5t-16.5 -33.5h-65l3 18q7 43 36.5 69t69.5 26z" />
    <glyph glyph-name="uni1EE4" unicode="&#x1ee4;" horiz-adv-x="726" 
d="M85 276v434h93v-436q0 -94 50 -146t135 -52t135 52t50 146v436h93v-434q0 -87 -35 -152.5t-98 -100.5t-145 -35t-145 35t-98 100.5t-35 152.5zM304 -132q0 24 17 41.5t42 17.5q24 0 41 -17.5t17 -41.5t-17 -41t-41 -17q-25 0 -42 17t-17 41z" />
    <glyph glyph-name="Wacute" unicode="&#x1e82;" horiz-adv-x="947" 
d="M924 710l-194 -710h-83l-173 482l-174 -482h-83l-194 710h97l149 -554l204 566l205 -566l149 554h97zM632 917l-114 -148h-72l78 148h108z" />
    <glyph glyph-name="Wcircumflex" unicode="&#x174;" horiz-adv-x="947" 
d="M924 710l-194 -710h-83l-173 482l-174 -482h-83l-194 710h97l149 -554l204 566l205 -566l149 554h97zM473 926l166 -87v-77l-166 87l-166 -87v77z" />
    <glyph glyph-name="Wdieresis" unicode="&#x1e84;" horiz-adv-x="947" 
d="M924 710l-194 -710h-83l-173 482l-174 -482h-83l-194 710h97l149 -554l204 566l205 -566l149 554h97zM302 843q0 24 17 41.5t42 17.5q24 0 41 -17.5t17 -41.5t-17 -41t-41 -17q-25 0 -42 17t-17 41zM527 843q0 24 17.5 41.5t41.5 17.5t41 -17.5t17 -41.5t-17 -41t-41 -17
t-41.5 17t-17.5 41z" />
    <glyph glyph-name="Wgrave" unicode="&#x1e80;" horiz-adv-x="947" 
d="M924 710l-194 -710h-83l-173 482l-174 -482h-83l-194 710h97l149 -554l204 566l205 -566l149 554h97zM321 917h108l78 -148h-72z" />
    <glyph glyph-name="Ycircumflex" unicode="&#x176;" horiz-adv-x="674" 
d="M15 710h111l211 -316l212 316h111l-277 -410v-300h-92v301zM337 926l166 -87v-77l-166 87l-166 -87v77z" />
    <glyph glyph-name="Ydieresis" unicode="&#x178;" horiz-adv-x="674" 
d="M15 710h111l211 -316l212 316h111l-277 -410v-300h-92v301zM166 843q0 24 17 41.5t42 17.5q24 0 41 -17.5t17 -41.5t-17 -41t-41 -17q-25 0 -42 17t-17 41zM391 843q0 24 17.5 41.5t41.5 17.5t41 -17.5t17 -41.5t-17 -41t-41 -17t-41.5 17t-17.5 41z" />
    <glyph glyph-name="Ygrave" unicode="&#x1ef2;" horiz-adv-x="674" 
d="M15 710h111l211 -316l212 316h111l-277 -410v-300h-92v301zM184 917h108l78 -148h-72z" />
    <glyph glyph-name="uni0232" unicode="&#x232;" horiz-adv-x="674" 
d="M15 710h111l211 -316l212 316h111l-277 -410v-300h-92v301zM498 874v-69h-322v69h322z" />
    <glyph glyph-name="Zacute" unicode="&#x179;" horiz-adv-x="587" 
d="M552 88v-88h-518v62l385 560h-374v88h497v-62l-385 -560h395zM459 917l-114 -148h-72l78 148h108z" />
    <glyph glyph-name="Zcaron" unicode="&#x17d;" horiz-adv-x="587" 
d="M552 88v-88h-518v62l385 560h-374v88h497v-62l-385 -560h395zM135 926l166 -87l166 87v-77l-166 -87l-166 87v77z" />
    <glyph glyph-name="Zdotaccent" unicode="&#x17b;" horiz-adv-x="587" 
d="M552 88v-88h-518v62l385 560h-374v88h497v-62l-385 -560h395zM242 843q0 24 17 41.5t42 17.5q24 0 41 -17.5t17 -41.5t-17 -41t-41 -17q-25 0 -42 17t-17 41z" />
    <glyph glyph-name="uni1E9E" unicode="&#x1e9e;" horiz-adv-x="634" 
d="M588 228q0 -110 -70 -169t-185 -59h-37v88h44q70 0 113 36t43 104t-43 104t-113 36h-44v70l124 188h-233v-626h-93v710h441v-61l-132 -204q89 -16 137 -70.5t48 -146.5z" />
    <glyph glyph-name="uni018F" unicode="&#x18f;" horiz-adv-x="824" 
d="M779 355q0 -101 -48.5 -185.5t-133 -133t-185.5 -48.5q-102 0 -186 48.5t-132.5 132.5t-48.5 186v45h637q-12 71 -51 124t-96.5 81.5t-123.5 28.5q-80 0 -146.5 -37.5t-96.5 -96.5h-103q21 60 71.5 111t122.5 81t153 30q101 0 185 -48.5t133 -132.5t49 -186zM683 317
h-542q9 -72 47.5 -127t97 -84.5t126.5 -29.5t126.5 29.5t97 84t47.5 127.5z" />
    <glyph glyph-name="abreve" unicode="&#x103;" horiz-adv-x="630" 
d="M463 77q-26 -38 -74 -62.5t-102 -24.5q-69 0 -125 35t-88 94.5t-32 130.5t32 130.5t88 94.5t125 35q54 0 102 -24.5t74 -62.5v77h86v-500h-86v77zM129 250q0 -50 22 -91.5t61 -65.5t88 -24t88 24t60.5 65.5t21.5 91.5t-21.5 91.5t-60.5 65.5t-88 24t-88 -24t-61 -65.5
t-22 -91.5zM161 737v13h58v-13q0 -48 28.5 -74.5t72.5 -26.5t72.5 26.5t28.5 74.5v13h58v-13q0 -47 -21 -83.5t-57.5 -56t-80.5 -19.5t-80.5 19.5t-57.5 56t-21 83.5z" />
    <glyph glyph-name="amacron" unicode="&#x101;" horiz-adv-x="630" 
d="M463 77q-26 -38 -74 -62.5t-102 -24.5q-69 0 -125 35t-88 94.5t-32 130.5t32 130.5t88 94.5t125 35q54 0 102 -24.5t74 -62.5v77h86v-500h-86v77zM129 250q0 -50 22 -91.5t61 -65.5t88 -24t88 24t60.5 65.5t21.5 91.5t-21.5 91.5t-60.5 65.5t-88 24t-88 -24t-61 -65.5
t-22 -91.5zM481 710v-69h-322v69h322z" />
    <glyph glyph-name="aogonek" unicode="&#x105;" horiz-adv-x="630" 
d="M463 77q-26 -38 -74 -62.5t-102 -24.5q-69 0 -125 35t-88 94.5t-32 130.5t32 130.5t88 94.5t125 35q54 0 102 -24.5t74 -62.5v77h86v-500h-86v77zM129 250q0 -50 22 -91.5t61 -65.5t88 -24t88 24t60.5 65.5t21.5 91.5t-21.5 91.5t-60.5 65.5t-88 24t-88 -24t-61 -65.5
t-22 -91.5zM548 -193q-13 -11 -33 -18.5t-44 -7.5q-40 0 -67 25t-27 62q0 43 22.5 71.5t62.5 60.5h86q-46 -29 -69.5 -59t-23.5 -56q0 -18 11 -27.5t27 -9.5q27 0 55 22v-63v0z" />
    <glyph glyph-name="cacute" unicode="&#x107;" horiz-adv-x="588" 
d="M42 250q0 71 33.5 130.5t93.5 94.5t134 35q93 0 162 -52t90 -134h-92q-17 48 -60 77.5t-100 29.5q-51 0 -90.5 -24t-61.5 -65.5t-22 -91.5t22 -91.5t61.5 -65.5t90.5 -24q57 0 100 29.5t60 77.5h92q-21 -82 -90 -134t-162 -52q-74 0 -134 35t-93.5 94.5t-33.5 130.5z
M476 750l-134 -190h-69l93 190h110z" />
    <glyph glyph-name="ccaron" unicode="&#x10d;" horiz-adv-x="588" 
d="M42 250q0 71 33.5 130.5t93.5 94.5t134 35q93 0 162 -52t90 -134h-92q-17 48 -60 77.5t-100 29.5q-51 0 -90.5 -24t-61.5 -65.5t-22 -91.5t22 -91.5t61.5 -65.5t90.5 -24q57 0 100 29.5t60 77.5h92q-21 -82 -90 -134t-162 -52q-74 0 -134 35t-93.5 94.5t-33.5 130.5z
M145 756l159 -101l159 101v-79l-159 -101l-159 101v79z" />
    <glyph glyph-name="ccircumflex" unicode="&#x109;" horiz-adv-x="588" 
d="M42 250q0 71 33.5 130.5t93.5 94.5t134 35q93 0 162 -52t90 -134h-92q-17 48 -60 77.5t-100 29.5q-51 0 -90.5 -24t-61.5 -65.5t-22 -91.5t22 -91.5t61.5 -65.5t90.5 -24q57 0 100 29.5t60 77.5h92q-21 -82 -90 -134t-162 -52q-74 0 -134 35t-93.5 94.5t-33.5 130.5z
M463 576l-159 101l-159 -101v79l159 101l159 -101v-79z" />
    <glyph glyph-name="cdotaccent" unicode="&#x10b;" horiz-adv-x="588" 
d="M42 250q0 71 33.5 130.5t93.5 94.5t134 35q93 0 162 -52t90 -134h-92q-17 48 -60 77.5t-100 29.5q-51 0 -90.5 -24t-61.5 -65.5t-22 -91.5t22 -91.5t61.5 -65.5t90.5 -24q57 0 100 29.5t60 77.5h92q-21 -82 -90 -134t-162 -52q-74 0 -134 35t-93.5 94.5t-33.5 130.5z
M245 654q0 24 17 41.5t42 17.5q24 0 41 -17.5t17 -41.5t-17 -41t-41 -17q-25 0 -42 17t-17 41z" />
    <glyph glyph-name="dcaron" unicode="&#x10f;" horiz-adv-x="630" 
d="M463 77q-26 -38 -74 -62.5t-102 -24.5q-69 0 -125 35t-88 94.5t-32 130.5t32 130.5t88 94.5t125 35q54 0 102 -24.5t74 -62.5v327h86v-750h-86v77zM129 250q0 -50 22 -91.5t61 -65.5t88 -24t88 24t60.5 65.5t21.5 91.5t-21.5 91.5t-60.5 65.5t-88 24t-88 -24t-61 -65.5
t-22 -91.5zM694 750l-50 -165h-60l24 165h86z" />
    <glyph glyph-name="dcroat" unicode="&#x111;" horiz-adv-x="630" 
d="M463 77q-26 -38 -74 -62.5t-102 -24.5q-69 0 -125 35t-88 94.5t-32 130.5t32 130.5t88 94.5t125 35q54 0 102 -24.5t74 -62.5v327h86v-750h-86v77zM129 250q0 -50 22 -91.5t61 -65.5t88 -24t88 24t60.5 65.5t21.5 91.5t-21.5 91.5t-60.5 65.5t-88 24t-88 -24t-61 -65.5
t-22 -91.5zM620 577h-323v68h323v-68z" />
    <glyph glyph-name="ebreve" unicode="&#x115;" horiz-adv-x="579" 
d="M537 253q0 -17 -1 -26h-407q1 -45 24 -81t60.5 -57t81.5 -21q103 0 145 84h88q-20 -70 -81.5 -116t-152.5 -46q-72 0 -129.5 34t-90 93t-32.5 133q0 73 31 132.5t89 93.5t134 34q72 0 127 -34t84.5 -92.5t29.5 -130.5zM133 295h312q-12 68 -53 103.5t-99 35.5
q-59 0 -103.5 -34.5t-56.5 -104.5zM137 737v13h58v-13q0 -48 28.5 -74.5t72.5 -26.5t72.5 26.5t28.5 74.5v13h58v-13q0 -47 -21 -83.5t-57.5 -56t-80.5 -19.5t-80.5 19.5t-57.5 56t-21 83.5z" />
    <glyph glyph-name="ecaron" unicode="&#x11b;" horiz-adv-x="579" 
d="M537 253q0 -17 -1 -26h-407q1 -45 24 -81t60.5 -57t81.5 -21q103 0 145 84h88q-20 -70 -81.5 -116t-152.5 -46q-72 0 -129.5 34t-90 93t-32.5 133q0 73 31 132.5t89 93.5t134 34q72 0 127 -34t84.5 -92.5t29.5 -130.5zM133 295h312q-12 68 -53 103.5t-99 35.5
q-59 0 -103.5 -34.5t-56.5 -104.5zM137 756l159 -101l159 101v-79l-159 -101l-159 101v79z" />
    <glyph glyph-name="emacron" unicode="&#x113;" horiz-adv-x="579" 
d="M537 253q0 -17 -1 -26h-407q1 -45 24 -81t60.5 -57t81.5 -21q103 0 145 84h88q-20 -70 -81.5 -116t-152.5 -46q-72 0 -129.5 34t-90 93t-32.5 133q0 73 31 132.5t89 93.5t134 34q72 0 127 -34t84.5 -92.5t29.5 -130.5zM133 295h312q-12 68 -53 103.5t-99 35.5
q-59 0 -103.5 -34.5t-56.5 -104.5zM457 710v-69h-322v69h322z" />
    <glyph glyph-name="eogonek" unicode="&#x119;" horiz-adv-x="580" 
d="M537 253q0 -17 -1 -26h-407q1 -45 24 -81t60.5 -57t81.5 -21q103 0 145 84h88q-8 -30 -34 -70q-80 -120 -80 -187q0 -22 13.5 -34.5t36.5 -12.5q28 0 54 22v-63q-13 -11 -33.5 -18.5t-43.5 -7.5q-46 0 -75.5 27.5t-29.5 70.5q0 35 14.5 68t35.5 58q-36 -15 -92 -15
q-72 0 -129.5 34t-90 93t-32.5 133q0 73 31 132.5t89 93.5t134 34q72 0 127 -34t84.5 -92.5t29.5 -130.5zM133 295h312q-12 68 -53 103.5t-99 35.5q-59 0 -103.5 -34.5t-56.5 -104.5z" />
    <glyph glyph-name="edotaccent" unicode="&#x117;" horiz-adv-x="579" 
d="M537 253q0 -17 -1 -26h-407q1 -45 24 -81t60.5 -57t81.5 -21q103 0 145 84h88q-20 -70 -81.5 -116t-152.5 -46q-72 0 -129.5 34t-90 93t-32.5 133q0 73 31 132.5t89 93.5t134 34q72 0 127 -34t84.5 -92.5t29.5 -130.5zM133 295h312q-12 68 -53 103.5t-99 35.5
q-59 0 -103.5 -34.5t-56.5 -104.5zM237 654q0 24 17 41.5t42 17.5q24 0 41 -17.5t17 -41.5t-17 -41t-41 -17q-25 0 -42 17t-17 41z" />
    <glyph glyph-name="gbreve" unicode="&#x11f;" horiz-adv-x="628" 
d="M547 31q0 -81 -32.5 -137t-88 -84.5t-125.5 -28.5q-99 0 -165 48t-77 125h84q34 -97 160 -97q70 0 114 45.5t44 127.5v59q-26 -39 -73 -63.5t-101 -24.5q-68 0 -124 34t-88 92t-32 129q0 70 32 128t88 92t124 34q54 0 101 -24t73 -63v77h86v-469zM130 256q0 -50 21.5 -90
t60 -62.5t87.5 -22.5t87.5 22.5t60 62.5t21.5 90t-21.5 89.5t-60 62.5t-87.5 23t-87.5 -23t-60 -62.5t-21.5 -89.5zM155 737v13h58v-13q0 -48 28.5 -74.5t72.5 -26.5t72.5 26.5t28.5 74.5v13h58v-13q0 -47 -21 -83.5t-57.5 -56t-80.5 -19.5t-80.5 19.5t-57.5 56t-21 83.5z
" />
    <glyph glyph-name="gcircumflex" unicode="&#x11d;" horiz-adv-x="628" 
d="M547 31q0 -81 -32.5 -137t-88 -84.5t-125.5 -28.5q-99 0 -165 48t-77 125h84q34 -97 160 -97q70 0 114 45.5t44 127.5v59q-26 -39 -73 -63.5t-101 -24.5q-68 0 -124 34t-88 92t-32 129q0 70 32 128t88 92t124 34q54 0 101 -24t73 -63v77h86v-469zM130 256q0 -50 21.5 -90
t60 -62.5t87.5 -22.5t87.5 22.5t60 62.5t21.5 90t-21.5 89.5t-60 62.5t-87.5 23t-87.5 -23t-60 -62.5t-21.5 -89.5zM473 576l-159 101l-159 -101v79l159 101l159 -101v-79z" />
    <glyph glyph-name="uni0123" unicode="&#x123;" horiz-adv-x="628" 
d="M547 31q0 -81 -32.5 -137t-88 -84.5t-125.5 -28.5q-99 0 -165 48t-77 125h84q34 -97 160 -97q70 0 114 45.5t44 127.5v59q-26 -39 -73 -63.5t-101 -24.5q-68 0 -124 34t-88 92t-32 129q0 70 32 128t88 92t124 34q54 0 101 -24t73 -63v77h86v-469zM130 256q0 -50 21.5 -90
t60 -62.5t87.5 -22.5t87.5 22.5t60 62.5t21.5 90t-21.5 89.5t-60 62.5t-87.5 23t-87.5 -23t-60 -62.5t-21.5 -89.5zM256 655q0 18 11 34l64 103h45l-36 -85q14 -8 23 -22t9 -30q0 -24 -17 -41.5t-41 -17.5t-41 17.5t-17 41.5z" />
    <glyph glyph-name="gdotaccent" unicode="&#x121;" horiz-adv-x="628" 
d="M547 31q0 -81 -32.5 -137t-88 -84.5t-125.5 -28.5q-99 0 -165 48t-77 125h84q34 -97 160 -97q70 0 114 45.5t44 127.5v59q-26 -39 -73 -63.5t-101 -24.5q-68 0 -124 34t-88 92t-32 129q0 70 32 128t88 92t124 34q54 0 101 -24t73 -63v77h86v-469zM130 256q0 -50 21.5 -90
t60 -62.5t87.5 -22.5t87.5 22.5t60 62.5t21.5 90t-21.5 89.5t-60 62.5t-87.5 23t-87.5 -23t-60 -62.5t-21.5 -89.5zM255 654q0 24 17 41.5t42 17.5q24 0 41 -17.5t17 -41.5t-17 -41t-41 -17q-25 0 -42 17t-17 41z" />
    <glyph glyph-name="hbar" unicode="&#x127;" horiz-adv-x="589" 
d="M167 0h-86v750h86v-327q25 43 67 65t92 22q85 0 137 -55t52 -147v-308h-85v295q0 62 -32.5 99t-85.5 37q-63 0 -104 -49t-41 -134v-248zM334 577h-323v68h323v-68z" />
    <glyph glyph-name="hcircumflex" unicode="&#x125;" horiz-adv-x="589" 
d="M167 0h-86v750h86v-327q25 43 67 65t92 22q85 0 137 -55t52 -147v-308h-85v295q0 62 -32.5 99t-85.5 37q-63 0 -104 -49t-41 -134v-248zM301 926l166 -87v-77l-166 87l-166 -87v77z" />
    <glyph glyph-name="dotlessi" unicode="&#x131;" horiz-adv-x="249" 
d="M167 500v-500h-86v500h86z" />
    <glyph glyph-name="ibreve" unicode="&#x12d;" horiz-adv-x="249" 
d="M167 500v-500h-86v500h86zM-35 737v13h58v-13q0 -48 28.5 -74.5t72.5 -26.5t72.5 26.5t28.5 74.5v13h58v-13q0 -47 -21 -83.5t-57.5 -56t-80.5 -19.5t-80.5 19.5t-57.5 56t-21 83.5z" />
    <glyph glyph-name="imacron" unicode="&#x12b;" horiz-adv-x="249" 
d="M167 500v-500h-86v500h86zM285 710v-69h-322v69h322z" />
    <glyph glyph-name="iogonek" unicode="&#x12f;" horiz-adv-x="249" 
d="M63 695q0 25 18.5 43t43.5 18t42.5 -18t17.5 -43q0 -26 -17.5 -43.5t-42.5 -17.5q-26 0 -44 18t-18 43zM167 500v-500h-86v500h86zM167 -193q-13 -11 -33 -18.5t-44 -7.5q-40 0 -67 25t-27 62q0 43 22.5 71.5t62.5 60.5h86q-46 -29 -69.5 -59t-23.5 -56q0 -18 11 -27.5
t27 -9.5q27 0 55 22v-63v0z" />
    <glyph glyph-name="itilde" unicode="&#x129;" horiz-adv-x="249" 
d="M167 500v-500h-86v500h86zM59 706q20 0 38 -7t42 -19q17 -9 28 -13.5t21 -4.5q33 0 43 44h66l-3 -18q-8 -43 -37 -69t-69 -26q-20 0 -38 7t-42 19q-17 9 -28.5 13.5t-20.5 4.5q-33 0 -43 -44h-66l3 18q8 43 37 69t69 26z" />
    <glyph glyph-name="uni1ECB" unicode="&#x1ecb;" horiz-adv-x="249" 
d="M63 695q0 25 18.5 43t43.5 18t42.5 -18t17.5 -43q0 -26 -17.5 -43.5t-42.5 -17.5q-26 0 -44 18t-18 43zM167 500v-500h-86v500h86zM66 -132q0 24 17 41.5t42 17.5q24 0 41 -17.5t17 -41.5t-17 -41t-41 -17q-25 0 -42 17t-17 41z" />
    <glyph glyph-name="uni0237" unicode="&#x237;" horiz-adv-x="257" 
d="M24 -219q-23 0 -41 3v77q16 -2 29 -2q37 0 57 19.5t20 65.5v556h86v-566q0 -75 -42 -114t-109 -39z" />
    <glyph glyph-name="jcircumflex" unicode="&#x135;" horiz-adv-x="257" 
d="M24 -219q-23 0 -41 3v77q16 -2 29 -2q37 0 57 19.5t20 65.5v556h86v-566q0 -75 -42 -114t-109 -39zM291 576l-159 101l-159 -101v79l159 101l159 -101v-79z" />
    <glyph glyph-name="uni0137" unicode="&#x137;" horiz-adv-x="539" 
d="M438 0l-271 250v-250h-86v750h86v-445l218 195h114l-246 -221l301 -279h-116zM243 -132q0 24 17 41.5t41 17.5t41 -17.5t17 -41.5q0 -17 -11 -35l-64 -102h-45l36 85q-14 8 -23 22t-9 30z" />
    <glyph glyph-name="lacute" unicode="&#x13a;" horiz-adv-x="249" 
d="M167 750v-750h-86v750h86zM297 1000l-134 -190h-69l93 190h110z" />
    <glyph glyph-name="lcaron" unicode="&#x13e;" horiz-adv-x="249" 
d="M167 750v-750h-86v750h86zM314 750l-50 -165h-60l24 165h86z" />
    <glyph glyph-name="uni013C" unicode="&#x13c;" horiz-adv-x="249" 
d="M167 750v-750h-86v750h86zM66 -132q0 24 17 41.5t41 17.5t41 -17.5t17 -41.5q0 -17 -11 -35l-64 -102h-45l36 85q-14 8 -23 22t-9 30z" />
    <glyph glyph-name="ldot" unicode="&#x140;" horiz-adv-x="366" 
d="M167 750v-750h-86v750h86zM258 375q0 24 17 41.5t42 17.5q24 0 41 -17.5t17 -41.5t-17 -41t-41 -17q-25 0 -42 17t-17 41z" />
    <glyph glyph-name="glyph297" horiz-adv-x="366" 
d="M167 750v-750h-86v750h86zM258 375q0 24 17 41.5t42 17.5q24 0 41 -17.5t17 -41.5t-17 -41t-41 -17q-25 0 -42 17t-17 41z" />
    <glyph glyph-name="lslash" unicode="&#x142;" horiz-adv-x="319" 
d="M204 750v-750h-86v750h86zM39 335l244 156v-77l-244 -157v78z" />
    <glyph glyph-name="eng" unicode="&#x14b;" horiz-adv-x="589" 
d="M515 308v-369q0 -75 -42.5 -114t-110.5 -39q-30 0 -54 6v77q24 -4 38 -4q43 0 63.5 19.5t20.5 65.5v345q0 62 -32.5 99t-85.5 37q-63 0 -104 -49t-41 -134v-248h-86v500h86v-77q25 43 67 65t92 22q85 0 137 -55t52 -147z" />
    <glyph glyph-name="nacute" unicode="&#x144;" horiz-adv-x="589" 
d="M167 500v-77q25 43 67 65t92 22q85 0 137 -55t52 -147v-308h-85v295q0 62 -32.5 99t-85.5 37q-63 0 -104 -49t-41 -134v-248h-86v500h86zM471 750l-134 -190h-69l93 190h110z" />
    <glyph glyph-name="ncaron" unicode="&#x148;" horiz-adv-x="589" 
d="M167 500v-77q25 43 67 65t92 22q85 0 137 -55t52 -147v-308h-85v295q0 62 -32.5 99t-85.5 37q-63 0 -104 -49t-41 -134v-248h-86v500h86zM139 756l159 -101l159 101v-79l-159 -101l-159 101v79z" />
    <glyph glyph-name="uni0146" unicode="&#x146;" horiz-adv-x="589" 
d="M167 500v-77q25 43 67 65t92 22q85 0 137 -55t52 -147v-308h-85v295q0 62 -32.5 99t-85.5 37q-63 0 -104 -49t-41 -134v-248h-86v500h86zM240 -132q0 24 17 41.5t41 17.5t41 -17.5t17 -41.5q0 -17 -11 -35l-64 -102h-45l36 85q-14 8 -23 22t-9 30z" />
    <glyph glyph-name="oe" unicode="&#x153;" horiz-adv-x="1013" 
d="M971 253q0 -17 -1 -26h-407q1 -45 24 -81t60.5 -57t81.5 -21q103 0 145 84h89q-21 -70 -82.5 -116t-152.5 -46q-67 0 -122 29t-88 81q-35 -51 -91.5 -80.5t-123.5 -29.5q-74 0 -134 35t-94 94.5t-34 130.5t34 130.5t94 94.5t134 35q68 0 124 -29.5t91 -80.5
q33 52 87.5 81t124.5 29q72 0 127 -34t84.5 -92.5t29.5 -130.5zM567 295h312q-12 68 -53 103.5t-99 35.5q-59 0 -103.5 -34.5t-56.5 -104.5zM476 250q0 50 -21.5 91t-61 65t-90.5 24t-90.5 -24t-61.5 -65t-22 -91t22 -91t61.5 -65t90.5 -24t90.5 24t61 65t21.5 91z" />
    <glyph glyph-name="obreve" unicode="&#x14f;" horiz-adv-x="606" 
d="M41 250q0 71 34 130.5t94 94.5t134 35t133.5 -35t93.5 -94.5t34 -130.5t-34 -130.5t-93.5 -94.5t-133.5 -35t-134 35t-94 94.5t-34 130.5zM476 250q0 50 -21.5 91t-61 65t-90.5 24t-90.5 -24t-61.5 -65t-22 -91t22 -91t61.5 -65t90.5 -24t90.5 24t61 65t21.5 91zM144 737
v13h58v-13q0 -48 28.5 -74.5t72.5 -26.5t72.5 26.5t28.5 74.5v13h58v-13q0 -47 -21 -83.5t-57.5 -56t-80.5 -19.5t-80.5 19.5t-57.5 56t-21 83.5z" />
    <glyph glyph-name="ohungarumlaut" unicode="&#x151;" horiz-adv-x="606" 
d="M41 250q0 71 34 130.5t94 94.5t134 35t133.5 -35t93.5 -94.5t34 -130.5t-34 -130.5t-93.5 -94.5t-133.5 -35t-134 35t-94 94.5t-34 130.5zM476 250q0 50 -21.5 91t-61 65t-90.5 24t-90.5 -24t-61.5 -65t-22 -91t22 -91t61.5 -65t90.5 -24t90.5 24t61 65t21.5 91zM356 750
l-109 -190h-59l69 190h99zM523 750l-109 -190h-59l69 190h99z" />
    <glyph glyph-name="omacron" unicode="&#x14d;" horiz-adv-x="606" 
d="M41 250q0 71 34 130.5t94 94.5t134 35t133.5 -35t93.5 -94.5t34 -130.5t-34 -130.5t-93.5 -94.5t-133.5 -35t-134 35t-94 94.5t-34 130.5zM476 250q0 50 -21.5 91t-61 65t-90.5 24t-90.5 -24t-61.5 -65t-22 -91t22 -91t61.5 -65t90.5 -24t90.5 24t61 65t21.5 91zM464 710
v-69h-322v69h322z" />
    <glyph glyph-name="uni1ECD" unicode="&#x1ecd;" horiz-adv-x="606" 
d="M41 250q0 71 34 130.5t94 94.5t134 35t133.5 -35t93.5 -94.5t34 -130.5t-34 -130.5t-93.5 -94.5t-133.5 -35t-134 35t-94 94.5t-34 130.5zM476 250q0 50 -21.5 91t-61 65t-90.5 24t-90.5 -24t-61.5 -65t-22 -91t22 -91t61.5 -65t90.5 -24t90.5 24t61 65t21.5 91z
M244 -132q0 24 17 41.5t42 17.5q24 0 41 -17.5t17 -41.5t-17 -41t-41 -17q-25 0 -42 17t-17 41z" />
    <glyph glyph-name="racute" unicode="&#x155;" horiz-adv-x="366" 
d="M167 500v-97q15 46 55 74t85 28q20 0 39 -4v-89q-21 8 -47 8q-33 0 -63.5 -19.5t-49.5 -58t-19 -94.5v-248h-86v500h86zM386 750l-134 -190h-69l93 190h110z" />
    <glyph glyph-name="rcaron" unicode="&#x159;" horiz-adv-x="366" 
d="M167 500v-97q15 46 55 74t85 28q20 0 39 -4v-89q-21 8 -47 8q-33 0 -63.5 -19.5t-49.5 -58t-19 -94.5v-248h-86v500h86zM54 756l159 -101l159 101v-79l-159 -101l-159 101v79z" />
    <glyph glyph-name="uni0157" unicode="&#x157;" horiz-adv-x="366" 
d="M167 500v-97q15 46 55 74t85 28q20 0 39 -4v-89q-21 8 -47 8q-33 0 -63.5 -19.5t-49.5 -58t-19 -94.5v-248h-86v500h86zM67 -132q0 24 17 41.5t41 17.5t41 -17.5t17 -41.5q0 -17 -11 -35l-64 -102h-45l36 85q-14 8 -23 22t-9 30z" />
    <glyph glyph-name="sacute" unicode="&#x15b;" horiz-adv-x="467" 
d="M39 145h88q8 -43 40.5 -62.5t75.5 -19.5q42 0 69 17t27 49q0 30 -19.5 49t-63.5 31l-72 19q-63 16 -96 54.5t-33 92.5q0 62 48 98.5t125 36.5q78 0 126.5 -40.5t55.5 -102.5h-86q-10 33 -35.5 52t-60.5 19q-37 0 -61.5 -17t-24.5 -45t18 -44.5t58 -27.5l80 -21
q62 -16 95 -54t33 -94q0 -71 -51 -108t-133 -37q-84 0 -141 41t-62 114zM412 750l-134 -190h-69l93 190h110z" />
    <glyph glyph-name="scaron" unicode="&#x161;" horiz-adv-x="467" 
d="M39 145h88q8 -43 40.5 -62.5t75.5 -19.5q42 0 69 17t27 49q0 30 -19.5 49t-63.5 31l-72 19q-63 16 -96 54.5t-33 92.5q0 62 48 98.5t125 36.5q78 0 126.5 -40.5t55.5 -102.5h-86q-10 33 -35.5 52t-60.5 19q-37 0 -61.5 -17t-24.5 -45t18 -44.5t58 -27.5l80 -21
q62 -16 95 -54t33 -94q0 -71 -51 -108t-133 -37q-84 0 -141 41t-62 114zM80 756l159 -101l159 101v-79l-159 -101l-159 101v79z" />
    <glyph glyph-name="scedilla" unicode="&#x15f;" horiz-adv-x="467" 
d="M39 145h88q8 -43 40.5 -62.5t75.5 -19.5q42 0 69 17t27 49q0 30 -19.5 49t-63.5 31l-72 19q-63 16 -96 54.5t-33 92.5q0 62 48 98.5t125 36.5q78 0 126.5 -40.5t55.5 -102.5h-86q-10 33 -35.5 52t-60.5 19q-37 0 -61.5 -17t-24.5 -45t18 -44.5t58 -27.5l80 -21
q62 -16 95 -54t33 -94q0 -71 -51 -108t-133 -37q-84 0 -141 41t-62 114zM207 -166q29 0 48.5 10.5t19.5 30.5q0 30 -47 30q-22 0 -44 -10l-33 21l53 87h54l-34 -56q17 7 40 7q35 0 58 -20.5t23 -55.5q0 -43 -37.5 -70t-92.5 -27q-53 0 -84 15v55q15 -8 35.5 -12.5t40.5 -4.5
z" />
    <glyph glyph-name="scircumflex" unicode="&#x15d;" horiz-adv-x="467" 
d="M39 145h88q8 -43 40.5 -62.5t75.5 -19.5q42 0 69 17t27 49q0 30 -19.5 49t-63.5 31l-72 19q-63 16 -96 54.5t-33 92.5q0 62 48 98.5t125 36.5q78 0 126.5 -40.5t55.5 -102.5h-86q-10 33 -35.5 52t-60.5 19q-37 0 -61.5 -17t-24.5 -45t18 -44.5t58 -27.5l80 -21
q62 -16 95 -54t33 -94q0 -71 -51 -108t-133 -37q-84 0 -141 41t-62 114zM398 576l-159 101l-159 -101v79l159 101l159 -101v-79z" />
    <glyph glyph-name="uni0219" unicode="&#x219;" horiz-adv-x="467" 
d="M39 145h88q8 -43 40.5 -62.5t75.5 -19.5q42 0 69 17t27 49q0 30 -19.5 49t-63.5 31l-72 19q-63 16 -96 54.5t-33 92.5q0 62 48 98.5t125 36.5q78 0 126.5 -40.5t55.5 -102.5h-86q-10 33 -35.5 52t-60.5 19q-37 0 -61.5 -17t-24.5 -45t18 -44.5t58 -27.5l80 -21
q62 -16 95 -54t33 -94q0 -71 -51 -108t-133 -37q-84 0 -141 41t-62 114zM178 -132q0 24 17 41.5t41 17.5t41 -17.5t17 -41.5q0 -17 -11 -35l-64 -102h-45l36 85q-14 8 -23 22t-9 30z" />
    <glyph glyph-name="tbar" unicode="&#x167;" horiz-adv-x="395" 
d="M131 148v273h-106v79h106v139h86v-139h144v-79h-144v-262q0 -46 20.5 -65.5t62.5 -19.5q34 0 61 10v-77q-36 -12 -77 -12q-68 0 -110.5 39t-42.5 114zM361 334v-68h-337v68h337z" />
    <glyph glyph-name="tcaron" unicode="&#x165;" horiz-adv-x="381" 
d="M122 148v273h-106v79h106v139h86v-139h144v-79h-144v-262q0 -46 20.5 -65.5t62.5 -19.5q34 0 61 10v-77q-36 -12 -77 -12q-68 0 -110.5 39t-42.5 114zM353 710l-50 -165h-60l24 165h86z" />
    <glyph glyph-name="uni0163" unicode="&#x163;" horiz-adv-x="381" 
d="M122 148v273h-106v79h106v139h86v-139h144v-79h-144v-262q0 -46 20.5 -65.5t62.5 -19.5q34 0 61 10v-77q-36 -12 -77 -12q-68 0 -110.5 39t-42.5 114zM182 -132q0 24 17 41.5t41 17.5t41 -17.5t17 -41.5q0 -17 -11 -35l-64 -102h-45l36 85q-14 8 -23 22t-9 30z" />
    <glyph glyph-name="uni021B" unicode="&#x21b;" horiz-adv-x="381" 
d="M122 148v273h-106v79h106v139h86v-139h144v-79h-144v-262q0 -46 20.5 -65.5t62.5 -19.5q34 0 61 10v-77q-36 -12 -77 -12q-68 0 -110.5 39t-42.5 114zM182 -132q0 24 17 41.5t41 17.5t41 -17.5t17 -41.5q0 -17 -11 -35l-64 -102h-45l36 85q-14 8 -23 22t-9 30z" />
    <glyph glyph-name="ubreve" unicode="&#x16d;" horiz-adv-x="579" 
d="M412 77q-24 -43 -64.5 -65t-89.5 -22q-83 0 -133.5 55t-50.5 148v307h86v-294q0 -63 30.5 -100t82.5 -37q39 0 71 22t50 63.5t18 97.5v248h86v-500h-86v77v0zM126 737v13h58v-13q0 -48 28.5 -74.5t72.5 -26.5t72.5 26.5t28.5 74.5v13h58v-13q0 -47 -21 -83.5t-57.5 -56
t-80.5 -19.5t-80.5 19.5t-57.5 56t-21 83.5z" />
    <glyph glyph-name="uhungarumlaut" unicode="&#x171;" horiz-adv-x="579" 
d="M412 77q-24 -43 -64.5 -65t-89.5 -22q-83 0 -133.5 55t-50.5 148v307h86v-294q0 -63 30.5 -100t82.5 -37q39 0 71 22t50 63.5t18 97.5v248h86v-500h-86v77v0zM338 750l-109 -190h-59l69 190h99zM505 750l-109 -190h-59l69 190h99z" />
    <glyph glyph-name="umacron" unicode="&#x16b;" horiz-adv-x="579" 
d="M412 77q-24 -43 -64.5 -65t-89.5 -22q-83 0 -133.5 55t-50.5 148v307h86v-294q0 -63 30.5 -100t82.5 -37q39 0 71 22t50 63.5t18 97.5v248h86v-500h-86v77v0zM446 710v-69h-322v69h322z" />
    <glyph glyph-name="uogonek" unicode="&#x173;" horiz-adv-x="579" 
d="M412 77q-24 -43 -64.5 -65t-89.5 -22q-83 0 -133.5 55t-50.5 148v307h86v-294q0 -63 30.5 -100t82.5 -37q39 0 71 22t50 63.5t18 97.5v248h86v-500h-86v77v0zM497 -193q-13 -11 -33 -18.5t-44 -7.5q-40 0 -67 25t-27 62q0 43 22.5 71.5t62.5 60.5h86q-46 -29 -69.5 -59
t-23.5 -56q0 -18 11 -27.5t27 -9.5q27 0 55 22v-63v0z" />
    <glyph glyph-name="uring" unicode="&#x16f;" horiz-adv-x="579" 
d="M412 77q-24 -43 -64.5 -65t-89.5 -22q-83 0 -133.5 55t-50.5 148v307h86v-294q0 -63 30.5 -100t82.5 -37q39 0 71 22t50 63.5t18 97.5v248h86v-500h-86v77v0zM164 662q0 32 16.5 60t44.5 44.5t61 16.5q32 0 60 -16.5t44.5 -44.5t16.5 -60q0 -50 -35.5 -85.5t-85.5 -35.5
t-86 35.5t-36 85.5zM286 722q-24 0 -42 -18t-18 -43q0 -23 17.5 -41t42.5 -18q23 0 41.5 17.5t18.5 41.5q0 25 -17.5 43t-42.5 18z" />
    <glyph glyph-name="utilde" unicode="&#x169;" horiz-adv-x="579" 
d="M412 77q-24 -43 -64.5 -65t-89.5 -22q-83 0 -133.5 55t-50.5 148v307h86v-294q0 -63 30.5 -100t82.5 -37q39 0 71 22t50 63.5t18 97.5v248h86v-500h-86v77v0zM220 706q20 0 38 -7t42 -19q17 -9 28 -13.5t21 -4.5q33 0 43 44h66l-3 -18q-8 -43 -37 -69t-69 -26
q-20 0 -38 7t-42 19q-17 9 -28.5 13.5t-20.5 4.5q-33 0 -43 -44h-66l3 18q8 43 37 69t69 26z" />
    <glyph glyph-name="uni1EE5" unicode="&#x1ee5;" horiz-adv-x="579" 
d="M412 77q-24 -43 -64.5 -65t-89.5 -22q-83 0 -133.5 55t-50.5 148v307h86v-294q0 -63 30.5 -100t82.5 -37q39 0 71 22t50 63.5t18 97.5v248h86v-500h-86v77v0zM227 -132q0 24 17 41.5t42 17.5q24 0 41 -17.5t17 -41.5t-17 -41t-41 -17q-25 0 -42 17t-17 41z" />
    <glyph glyph-name="wacute" unicode="&#x1e83;" horiz-adv-x="763" 
d="M751 500l-170 -500h-76l-123 360l-124 -360h-76l-170 500h90l121 -365l125 365h66l125 -365l121 365h91zM554 750l-134 -190h-69l93 190h110z" />
    <glyph glyph-name="wcircumflex" unicode="&#x175;" horiz-adv-x="763" 
d="M751 500l-170 -500h-76l-123 360l-124 -360h-76l-170 500h90l121 -365l125 365h66l125 -365l121 365h91zM540 576l-159 101l-159 -101v79l159 101l159 -101v-79z" />
    <glyph glyph-name="wdieresis" unicode="&#x1e85;" horiz-adv-x="763" 
d="M751 500l-170 -500h-76l-123 360l-124 -360h-76l-170 500h90l121 -365l125 365h66l125 -365l121 365h91zM210 654q0 24 17 41.5t42 17.5q24 0 41 -17.5t17 -41.5t-17 -41t-41 -17q-25 0 -42 17t-17 41zM435 654q0 24 17.5 41.5t41.5 17.5t41 -17.5t17 -41.5t-17 -41
t-41 -17t-41.5 17t-17.5 41z" />
    <glyph glyph-name="wgrave" unicode="&#x1e81;" horiz-adv-x="763" 
d="M751 500l-170 -500h-76l-123 360l-124 -360h-76l-170 500h90l121 -365l125 365h66l125 -365l121 365h91zM319 750l94 -190h-70l-134 190h110z" />
    <glyph glyph-name="ycircumflex" unicode="&#x177;" horiz-adv-x="547" 
d="M542 500l-328 -709h-96l109 235l-219 474h95l172 -379l171 379h96zM434 576l-159 101l-159 -101v79l159 101l159 -101v-79z" />
    <glyph glyph-name="ygrave" unicode="&#x1ef3;" horiz-adv-x="547" 
d="M542 500l-328 -709h-96l109 235l-219 474h95l172 -379l171 379h96zM213 750l94 -190h-70l-134 190h110z" />
    <glyph glyph-name="uni0233" unicode="&#x233;" horiz-adv-x="547" 
d="M542 500l-328 -709h-96l109 235l-219 474h95l172 -379l171 379h96zM436 710v-69h-322v69h322z" />
    <glyph glyph-name="zacute" unicode="&#x17a;" horiz-adv-x="484" 
d="M446 79v-79h-406v68l287 353h-283v79h393v-69l-285 -352h294zM413 750l-134 -190h-69l93 190h110z" />
    <glyph glyph-name="zcaron" unicode="&#x17e;" horiz-adv-x="484" 
d="M446 79v-79h-406v68l287 353h-283v79h393v-69l-285 -352h294zM81 756l159 -101l159 101v-79l-159 -101l-159 101v79z" />
    <glyph glyph-name="zdotaccent" unicode="&#x17c;" horiz-adv-x="484" 
d="M446 79v-79h-406v68l287 353h-283v79h393v-69l-285 -352h294zM181 654q0 24 17 41.5t42 17.5q24 0 41 -17.5t17 -41.5t-17 -41t-41 -17q-25 0 -42 17t-17 41z" />
    <glyph glyph-name="uni0259" unicode="&#x259;" horiz-adv-x="580" 
d="M537 250q0 -77 -29.5 -136t-85 -91.5t-133.5 -32.5q-74 0 -130 34.5t-86.5 93.5t-30.5 131q0 16 1 24h407q-1 45 -23.5 81t-58.5 57t-79 21q-107 0 -149 -84h-89q20 70 82 116t156 46q70 0 127 -34t89 -93t32 -133zM446 205h-312q12 -67 55.5 -103t102.5 -36
q58 0 100.5 34.5t53.5 104.5z" />
    <glyph glyph-name="ellipsis" unicode="&#x2026;" horiz-adv-x="704" 
d="M52 67q0 30 22 52.5t52 22.5t52 -22.5t22 -52.5q0 -31 -21.5 -53t-52.5 -22t-52.5 22t-21.5 53zM278 67q0 30 22 52.5t52 22.5t52 -22.5t22 -52.5q0 -31 -21.5 -53t-52.5 -22t-52.5 22t-21.5 53zM504 67q0 30 22 52.5t52 22.5t52 -22.5t22 -52.5q0 -31 -21.5 -53
t-52.5 -22t-52.5 22t-21.5 53z" />
    <glyph glyph-name="endash" unicode="&#x2013;" horiz-adv-x="565" 
d="M499 323v-86h-434v86h434z" />
    <glyph glyph-name="emdash" unicode="&#x2014;" horiz-adv-x="635" 
d="M570 323v-86h-505v86h505z" />
    <glyph glyph-name="guilsinglleft" unicode="&#x2039;" horiz-adv-x="304" 
d="M257 467l-116 -217l116 -217h-73l-141 217l141 217h73z" />
    <glyph glyph-name="guilsinglright" unicode="&#x203a;" horiz-adv-x="304" 
d="M261 250l-141 -217h-73l116 217l-116 217h73z" />
    <glyph glyph-name="quoteleft" unicode="&#x2018;" horiz-adv-x="251" 
d="M215 710l-67 -143q18 -9 29.5 -27t11.5 -40q0 -30 -22 -52.5t-52 -22.5q-31 0 -52.5 22.5t-21.5 52.5q0 24 13 45l104 165h57z" />
    <glyph glyph-name="quoteright" unicode="&#x2019;" horiz-adv-x="254" 
d="M48 437l67 143q-18 9 -29.5 27.5t-11.5 39.5q0 31 22 53t53 22t52.5 -22t21.5 -53q0 -22 -14 -45l-103 -165h-58z" />
    <glyph glyph-name="uni02BB" unicode="&#x2bb;" horiz-adv-x="251" 
d="M215 710l-67 -143q18 -9 29.5 -27t11.5 -40q0 -30 -22 -52.5t-52 -22.5q-31 0 -52.5 22.5t-21.5 52.5q0 24 13 45l104 165h57z" />
    <glyph glyph-name="uni02BC" unicode="&#x2bc;" horiz-adv-x="254" 
d="M48 437l67 143q-18 9 -29.5 27.5t-11.5 39.5q0 31 22 53t53 22t52.5 -22t21.5 -53q0 -22 -14 -45l-103 -165h-58z" />
    <glyph glyph-name="quotedblleft" unicode="&#x201c;" horiz-adv-x="436" 
d="M215 710l-67 -143q18 -9 29.5 -27t11.5 -40q0 -30 -22 -52.5t-52 -22.5q-31 0 -52.5 22.5t-21.5 52.5q0 24 13 45l104 165h57zM401 710l-67 -143q18 -9 29.5 -27t11.5 -40q0 -30 -22 -52.5t-52 -22.5q-31 0 -52.5 22.5t-21.5 52.5q0 24 13 45l104 165h57z" />
    <glyph glyph-name="quotedblright" unicode="&#x201d;" horiz-adv-x="440" 
d="M48 437l67 143q-18 9 -29.5 27.5t-11.5 39.5q0 31 22 53t53 22t52.5 -22t21.5 -53q0 -22 -14 -45l-103 -165h-58zM234 437l67 143q-18 9 -29.5 27.5t-11.5 39.5q0 31 22 53t53 22t52.5 -22t21.5 -53q0 -22 -14 -45l-103 -165h-58z" />
    <glyph glyph-name="quotesinglbase" unicode="&#x201a;" horiz-adv-x="256" 
d="M28 -143l67 143q-18 9 -29.5 27t-11.5 40q0 30 22 52.5t52 22.5t52 -22.5t22 -52.5q0 -22 -14 -45l-103 -165h-57z" />
    <glyph glyph-name="quotedblbase" unicode="&#x201e;" horiz-adv-x="442" 
d="M28 -143l67 143q-18 9 -29.5 27t-11.5 40q0 30 22 52.5t52 22.5t52 -22.5t22 -52.5q0 -22 -14 -45l-103 -165h-57zM214 -143l67 143q-18 9 -29.5 27t-11.5 40q0 30 22 52.5t52 22.5t52 -22.5t22 -52.5q0 -22 -14 -45l-103 -165h-57z" />
    <glyph glyph-name="bullet" unicode="&#x2022;" horiz-adv-x="419" 
d="M73 302q0 37 18.5 68t50 49.5t67.5 18.5q37 0 68.5 -18.5t50 -49.5t18.5 -68t-18.5 -68t-50 -49.5t-68.5 -18.5q-36 0 -67.5 18.5t-50 49.5t-18.5 68z" />
    <glyph glyph-name="dagger" unicode="&#x2020;" horiz-adv-x="506" 
d="M29 425v75h185v210h78v-210h185v-75h-185v-523h-78v523h-185z" />
    <glyph glyph-name="daggerdbl" unicode="&#x2021;" horiz-adv-x="538" 
d="M309 -98h-79v210h-185v75h185v238h-185v75h185v210h79v-210h184v-75h-184v-238h184v-75h-184v-210z" />
    <glyph glyph-name="perthousand" unicode="&#x2030;" horiz-adv-x="1413" 
d="M32 521q0 54 26.5 99t71.5 71.5t99 26.5q53 0 98.5 -26.5t72 -71.5t26.5 -99q0 -53 -26.5 -98.5t-72 -72t-98.5 -26.5q-54 0 -99 26.5t-71.5 72t-26.5 98.5zM317 0h-93l450 710h93zM347 521q0 32 -16 59t-43 43.5t-59 16.5q-49 0 -83.5 -35.5t-34.5 -83.5t34.5 -83.5
t83.5 -35.5q32 0 59 16.5t43 43.5t16 59zM565 189q0 54 26.5 99t71.5 71.5t99 26.5q53 0 98.5 -26.5t72 -71.5t26.5 -99q0 -53 -26.5 -98.5t-72 -72t-98.5 -26.5q-54 0 -99 26.5t-71.5 72t-26.5 98.5zM988 189q0 54 26.5 99t71.5 71.5t99 26.5q53 0 98.5 -26.5t72 -71.5
t26.5 -99q0 -53 -26.5 -98.5t-72 -72t-98.5 -26.5q-54 0 -99 26.5t-71.5 72t-26.5 98.5zM880 189q0 32 -16 59t-43 43.5t-59 16.5q-49 0 -83.5 -35.5t-34.5 -83.5t34.5 -83.5t83.5 -35.5q32 0 59 16.5t43 43.5t16 59zM1303 189q0 32 -16 59t-43 43.5t-59 16.5t-59.5 -16.5
t-43.5 -43.5t-16 -59t16 -59t43.5 -43.5t59.5 -16.5t59 16.5t43 43.5t16 59z" />
    <glyph glyph-name="uni2117" unicode="&#x2117;" horiz-adv-x="824" 
d="M45 355q0 99 49.5 183.5t133.5 134t183 49.5t184 -49.5t134.5 -134t49.5 -183.5t-49.5 -183.5t-134.5 -134t-184 -49.5t-183 49.5t-133.5 134t-49.5 183.5zM708 355q0 80 -40 148t-108.5 108t-148.5 40q-79 0 -147 -40t-108 -108t-40 -148t40 -148t108 -108t147 -40
q80 0 148.5 40t108.5 108t40 148zM435 294h-51v-125h-71v373h122q56 0 92.5 -36t36.5 -89t-36 -88t-93 -35zM434 475h-50v-115h50q27 0 44.5 16.5t17.5 40.5q0 25 -17.5 41.5t-44.5 16.5z" />
    <glyph glyph-name="trademark" unicode="&#x2122;" horiz-adv-x="838" 
d="M34 710h296v-70h-112v-315h-72v315h-112v70zM758 710v-385h-70v265l-111 -158l-112 158v-265h-70v385h68l114 -160l113 160h68z" />
    <glyph glyph-name="uni2116" unicode="&#x2116;" horiz-adv-x="1112" 
d="M762 560q0 42 20.5 77.5t56 56.5t77.5 21t77.5 -21t56.5 -56.5t21 -77.5t-21 -77.5t-56.5 -56.5t-77.5 -21t-77.5 21t-56 56.5t-20.5 77.5zM607 710h92v-710h-80l-432 553v-553h-93v710h81l432 -553v553zM829 560q0 -37 25.5 -63t61.5 -26q37 0 63 26t26 63t-26 63
t-63 26q-36 0 -61.5 -26t-25.5 -63zM767 359h299v-66h-299v66z" />
    <glyph glyph-name="uniF8FF" unicode="&#xf8ff;" horiz-adv-x="535" 
d="M232 471l233 10l-415 -492l242 402l-205 -12l147 296l129 48zM370 710q0 -5 -5 -5t-5 5t5 5t5 -5zM370 700q0 -5 -5 -5t-5 5t5 5t5 -5zM380 700q0 -5 -5 -5t-5 5t5 5t5 -5zM360 690q0 -5 -5 -5t-5 5t5 5t5 -5zM370 690q0 -5 -5 -5t-5 5t5 5t5 -5zM380 690q0 -5 -5 -5
t-5 5t5 5t5 -5zM390 690q0 -5 -5 -5t-5 5t5 5t5 -5zM360 680q0 -5 -5 -5t-5 5t5 5t5 -5zM370 680q0 -5 -5 -5t-5 5t5 5t5 -5zM380 680q0 -5 -5 -5t-5 5t5 5t5 -5zM390 680q0 -5 -5 -5t-5 5t5 5t5 -5zM350 670q0 -5 -5 -5t-5 5t5 5t5 -5zM360 670q0 -5 -5 -5t-5 5t5 5t5 -5z
M370 670q0 -5 -5 -5t-5 5t5 5t5 -5zM380 670q0 -5 -5 -5t-5 5t5 5t5 -5zM350 660q0 -5 -5 -5t-5 5t5 5t5 -5zM360 660q0 -5 -5 -5t-5 5t5 5t5 -5zM370 660q0 -5 -5 -5t-5 5t5 5t5 -5zM380 660q0 -5 -5 -5t-5 5t5 5t5 -5zM340 650q0 -5 -5 -5t-5 5t5 5t5 -5zM350 650
q0 -5 -5 -5t-5 5t5 5t5 -5zM360 650q0 -5 -5 -5t-5 5t5 5t5 -5zM370 650q0 -5 -5 -5t-5 5t5 5t5 -5zM340 640q0 -5 -5 -5t-5 5t5 5t5 -5zM350 640q0 -5 -5 -5t-5 5t5 5t5 -5zM360 640q0 -5 -5 -5t-5 5t5 5t5 -5zM330 630q0 -5 -5 -5t-5 5t5 5t5 -5zM340 630q0 -5 -5 -5t-5 5
t5 5t5 -5zM350 630q0 -5 -5 -5t-5 5t5 5t5 -5zM360 630q0 -5 -5 -5t-5 5t5 5t5 -5zM330 620q0 -5 -5 -5t-5 5t5 5t5 -5zM340 620q0 -5 -5 -5t-5 5t5 5t5 -5zM350 620q0 -5 -5 -5t-5 5t5 5t5 -5zM320 610q0 -5 -5 -5t-5 5t5 5t5 -5zM330 610q0 -5 -5 -5t-5 5t5 5t5 -5z
M340 610q0 -5 -5 -5t-5 5t5 5t5 -5zM350 610q0 -5 -5 -5t-5 5t5 5t5 -5zM310 600q0 -5 -5 -5t-5 5t5 5t5 -5zM320 600q0 -5 -5 -5t-5 5t5 5t5 -5zM330 600q0 -5 -5 -5t-5 5t5 5t5 -5zM340 600q0 -5 -5 -5t-5 5t5 5t5 -5zM310 590q0 -5 -5 -5t-5 5t5 5t5 -5zM320 590
q0 -5 -5 -5t-5 5t5 5t5 -5zM330 590q0 -5 -5 -5t-5 5t5 5t5 -5zM340 590q0 -5 -5 -5t-5 5t5 5t5 -5zM300 580q0 -5 -5 -5t-5 5t5 5t5 -5zM310 580q0 -5 -5 -5t-5 5t5 5t5 -5zM320 580q0 -5 -5 -5t-5 5t5 5t5 -5zM330 580q0 -5 -5 -5t-5 5t5 5t5 -5zM300 570q0 -5 -5 -5t-5 5
t5 5t5 -5zM310 570q0 -5 -5 -5t-5 5t5 5t5 -5zM320 570q0 -5 -5 -5t-5 5t5 5t5 -5zM290 560q0 -5 -5 -5t-5 5t5 5t5 -5zM300 560q0 -5 -5 -5t-5 5t5 5t5 -5zM310 560q0 -5 -5 -5t-5 5t5 5t5 -5zM320 560q0 -5 -5 -5t-5 5t5 5t5 -5zM290 550q0 -5 -5 -5t-5 5t5 5t5 -5z
M300 550q0 -5 -5 -5t-5 5t5 5t5 -5zM310 550q0 -5 -5 -5t-5 5t5 5t5 -5zM280 540q0 -5 -5 -5t-5 5t5 5t5 -5zM290 540q0 -5 -5 -5t-5 5t5 5t5 -5zM300 540q0 -5 -5 -5t-5 5t5 5t5 -5zM310 540q0 -5 -5 -5t-5 5t5 5t5 -5zM280 530q0 -5 -5 -5t-5 5t5 5t5 -5zM290 530
q0 -5 -5 -5t-5 5t5 5t5 -5zM300 530q0 -5 -5 -5t-5 5t5 5t5 -5zM270 520q0 -5 -5 -5t-5 5t5 5t5 -5zM280 520q0 -5 -5 -5t-5 5t5 5t5 -5zM290 520q0 -5 -5 -5t-5 5t5 5t5 -5zM300 520q0 -5 -5 -5t-5 5t5 5t5 -5zM270 510q0 -5 -5 -5t-5 5t5 5t5 -5zM280 510q0 -5 -5 -5t-5 5
t5 5t5 -5zM290 510q0 -5 -5 -5t-5 5t5 5t5 -5zM260 500q0 -5 -5 -5t-5 5t5 5t5 -5zM270 500q0 -5 -5 -5t-5 5t5 5t5 -5zM280 500q0 -5 -5 -5t-5 5t5 5t5 -5zM290 500q0 -5 -5 -5t-5 5t5 5t5 -5zM260 490q0 -5 -5 -5t-5 5t5 5t5 -5zM270 490q0 -5 -5 -5t-5 5t5 5t5 -5z
M280 490q0 -5 -5 -5t-5 5t5 5t5 -5zM250 480q0 -5 -5 -5t-5 5t5 5t5 -5zM260 480q0 -5 -5 -5t-5 5t5 5t5 -5zM270 480q0 -5 -5 -5t-5 5t5 5t5 -5zM280 480q0 -5 -5 -5t-5 5t5 5t5 -5zM470 470q0 -5 -5 -5t-5 5t5 5t5 -5zM460 460q0 -5 -5 -5t-5 5t5 5t5 -5zM470 460
q0 -5 -5 -5t-5 5t5 5t5 -5zM480 460q0 -5 -5 -5t-5 5t5 5t5 -5zM460 450q0 -5 -5 -5t-5 5t5 5t5 -5zM470 450q0 -5 -5 -5t-5 5t5 5t5 -5zM480 450q0 -5 -5 -5t-5 5t5 5t5 -5zM450 440q0 -5 -5 -5t-5 5t5 5t5 -5zM460 440q0 -5 -5 -5t-5 5t5 5t5 -5zM470 440q0 -5 -5 -5t-5 5
t5 5t5 -5zM480 440q0 -5 -5 -5t-5 5t5 5t5 -5zM490 440q0 -5 -5 -5t-5 5t5 5t5 -5zM440 430q0 -5 -5 -5t-5 5t5 5t5 -5zM450 430q0 -5 -5 -5t-5 5t5 5t5 -5zM460 430q0 -5 -5 -5t-5 5t5 5t5 -5zM470 430q0 -5 -5 -5t-5 5t5 5t5 -5zM480 430q0 -5 -5 -5t-5 5t5 5t5 -5z
M490 430q0 -5 -5 -5t-5 5t5 5t5 -5zM430 420q0 -5 -5 -5t-5 5t5 5t5 -5zM440 420q0 -5 -5 -5t-5 5t5 5t5 -5zM450 420q0 -5 -5 -5t-5 5t5 5t5 -5zM460 420q0 -5 -5 -5t-5 5t5 5t5 -5zM470 420q0 -5 -5 -5t-5 5t5 5t5 -5zM480 420q0 -5 -5 -5t-5 5t5 5t5 -5zM420 410
q0 -5 -5 -5t-5 5t5 5t5 -5zM430 410q0 -5 -5 -5t-5 5t5 5t5 -5zM440 410q0 -5 -5 -5t-5 5t5 5t5 -5zM450 410q0 -5 -5 -5t-5 5t5 5t5 -5zM460 410q0 -5 -5 -5t-5 5t5 5t5 -5zM470 410q0 -5 -5 -5t-5 5t5 5t5 -5zM410 400q0 -5 -5 -5t-5 5t5 5t5 -5zM420 400q0 -5 -5 -5t-5 5
t5 5t5 -5zM430 400q0 -5 -5 -5t-5 5t5 5t5 -5zM440 400q0 -5 -5 -5t-5 5t5 5t5 -5zM450 400q0 -5 -5 -5t-5 5t5 5t5 -5zM460 400q0 -5 -5 -5t-5 5t5 5t5 -5zM400 390q0 -5 -5 -5t-5 5t5 5t5 -5zM410 390q0 -5 -5 -5t-5 5t5 5t5 -5zM420 390q0 -5 -5 -5t-5 5t5 5t5 -5z
M430 390q0 -5 -5 -5t-5 5t5 5t5 -5zM440 390q0 -5 -5 -5t-5 5t5 5t5 -5zM450 390q0 -5 -5 -5t-5 5t5 5t5 -5zM200 380q0 -5 -5 -5t-5 5t5 5t5 -5zM210 380q0 -5 -5 -5t-5 5t5 5t5 -5zM220 380q0 -5 -5 -5t-5 5t5 5t5 -5zM230 380q0 -5 -5 -5t-5 5t5 5t5 -5zM240 380
q0 -5 -5 -5t-5 5t5 5t5 -5zM250 380q0 -5 -5 -5t-5 5t5 5t5 -5zM260 380q0 -5 -5 -5t-5 5t5 5t5 -5zM270 380q0 -5 -5 -5t-5 5t5 5t5 -5zM280 380q0 -5 -5 -5t-5 5t5 5t5 -5zM400 380q0 -5 -5 -5t-5 5t5 5t5 -5zM410 380q0 -5 -5 -5t-5 5t5 5t5 -5zM420 380q0 -5 -5 -5t-5 5
t5 5t5 -5zM430 380q0 -5 -5 -5t-5 5t5 5t5 -5zM440 380q0 -5 -5 -5t-5 5t5 5t5 -5zM100 370q0 -5 -5 -5t-5 5t5 5t5 -5zM110 370q0 -5 -5 -5t-5 5t5 5t5 -5zM120 370q0 -5 -5 -5t-5 5t5 5t5 -5zM130 370q0 -5 -5 -5t-5 5t5 5t5 -5zM140 370q0 -5 -5 -5t-5 5t5 5t5 -5z
M150 370q0 -5 -5 -5t-5 5t5 5t5 -5zM160 370q0 -5 -5 -5t-5 5t5 5t5 -5zM170 370q0 -5 -5 -5t-5 5t5 5t5 -5zM180 370q0 -5 -5 -5t-5 5t5 5t5 -5zM190 370q0 -5 -5 -5t-5 5t5 5t5 -5zM200 370q0 -5 -5 -5t-5 5t5 5t5 -5zM210 370q0 -5 -5 -5t-5 5t5 5t5 -5zM220 370
q0 -5 -5 -5t-5 5t5 5t5 -5zM230 370q0 -5 -5 -5t-5 5t5 5t5 -5zM240 370q0 -5 -5 -5t-5 5t5 5t5 -5zM250 370q0 -5 -5 -5t-5 5t5 5t5 -5zM260 370q0 -5 -5 -5t-5 5t5 5t5 -5zM270 370q0 -5 -5 -5t-5 5t5 5t5 -5zM390 370q0 -5 -5 -5t-5 5t5 5t5 -5zM400 370q0 -5 -5 -5t-5 5
t5 5t5 -5zM410 370q0 -5 -5 -5t-5 5t5 5t5 -5zM420 370q0 -5 -5 -5t-5 5t5 5t5 -5zM430 370q0 -5 -5 -5t-5 5t5 5t5 -5zM100 360q0 -5 -5 -5t-5 5t5 5t5 -5zM110 360q0 -5 -5 -5t-5 5t5 5t5 -5zM120 360q0 -5 -5 -5t-5 5t5 5t5 -5zM130 360q0 -5 -5 -5t-5 5t5 5t5 -5z
M140 360q0 -5 -5 -5t-5 5t5 5t5 -5zM150 360q0 -5 -5 -5t-5 5t5 5t5 -5zM160 360q0 -5 -5 -5t-5 5t5 5t5 -5zM170 360q0 -5 -5 -5t-5 5t5 5t5 -5zM180 360q0 -5 -5 -5t-5 5t5 5t5 -5zM190 360q0 -5 -5 -5t-5 5t5 5t5 -5zM200 360q0 -5 -5 -5t-5 5t5 5t5 -5zM210 360
q0 -5 -5 -5t-5 5t5 5t5 -5zM220 360q0 -5 -5 -5t-5 5t5 5t5 -5zM230 360q0 -5 -5 -5t-5 5t5 5t5 -5zM240 360q0 -5 -5 -5t-5 5t5 5t5 -5zM250 360q0 -5 -5 -5t-5 5t5 5t5 -5zM260 360q0 -5 -5 -5t-5 5t5 5t5 -5zM270 360q0 -5 -5 -5t-5 5t5 5t5 -5zM380 360q0 -5 -5 -5t-5 5
t5 5t5 -5zM390 360q0 -5 -5 -5t-5 5t5 5t5 -5zM400 360q0 -5 -5 -5t-5 5t5 5t5 -5zM410 360q0 -5 -5 -5t-5 5t5 5t5 -5zM420 360q0 -5 -5 -5t-5 5t5 5t5 -5zM110 350q0 -5 -5 -5t-5 5t5 5t5 -5zM120 350q0 -5 -5 -5t-5 5t5 5t5 -5zM130 350q0 -5 -5 -5t-5 5t5 5t5 -5z
M140 350q0 -5 -5 -5t-5 5t5 5t5 -5zM150 350q0 -5 -5 -5t-5 5t5 5t5 -5zM160 350q0 -5 -5 -5t-5 5t5 5t5 -5zM170 350q0 -5 -5 -5t-5 5t5 5t5 -5zM180 350q0 -5 -5 -5t-5 5t5 5t5 -5zM190 350q0 -5 -5 -5t-5 5t5 5t5 -5zM370 350q0 -5 -5 -5t-5 5t5 5t5 -5zM380 350
q0 -5 -5 -5t-5 5t5 5t5 -5zM390 350q0 -5 -5 -5t-5 5t5 5t5 -5zM400 350q0 -5 -5 -5t-5 5t5 5t5 -5zM410 350q0 -5 -5 -5t-5 5t5 5t5 -5zM420 350q0 -5 -5 -5t-5 5t5 5t5 -5zM360 340q0 -5 -5 -5t-5 5t5 5t5 -5zM370 340q0 -5 -5 -5t-5 5t5 5t5 -5zM380 340q0 -5 -5 -5t-5 5
t5 5t5 -5zM390 340q0 -5 -5 -5t-5 5t5 5t5 -5zM400 340q0 -5 -5 -5t-5 5t5 5t5 -5zM410 340q0 -5 -5 -5t-5 5t5 5t5 -5zM350 330q0 -5 -5 -5t-5 5t5 5t5 -5zM360 330q0 -5 -5 -5t-5 5t5 5t5 -5zM370 330q0 -5 -5 -5t-5 5t5 5t5 -5zM380 330q0 -5 -5 -5t-5 5t5 5t5 -5z
M390 330q0 -5 -5 -5t-5 5t5 5t5 -5zM400 330q0 -5 -5 -5t-5 5t5 5t5 -5zM350 320q0 -5 -5 -5t-5 5t5 5t5 -5zM360 320q0 -5 -5 -5t-5 5t5 5t5 -5zM370 320q0 -5 -5 -5t-5 5t5 5t5 -5zM380 320q0 -5 -5 -5t-5 5t5 5t5 -5zM390 320q0 -5 -5 -5t-5 5t5 5t5 -5zM340 310
q0 -5 -5 -5t-5 5t5 5t5 -5zM350 310q0 -5 -5 -5t-5 5t5 5t5 -5zM360 310q0 -5 -5 -5t-5 5t5 5t5 -5zM370 310q0 -5 -5 -5t-5 5t5 5t5 -5zM380 310q0 -5 -5 -5t-5 5t5 5t5 -5zM330 300q0 -5 -5 -5t-5 5t5 5t5 -5zM340 300q0 -5 -5 -5t-5 5t5 5t5 -5zM350 300q0 -5 -5 -5t-5 5
t5 5t5 -5zM360 300q0 -5 -5 -5t-5 5t5 5t5 -5zM370 300q0 -5 -5 -5t-5 5t5 5t5 -5zM320 290q0 -5 -5 -5t-5 5t5 5t5 -5zM330 290q0 -5 -5 -5t-5 5t5 5t5 -5zM340 290q0 -5 -5 -5t-5 5t5 5t5 -5zM350 290q0 -5 -5 -5t-5 5t5 5t5 -5zM360 290q0 -5 -5 -5t-5 5t5 5t5 -5z
M310 280q0 -5 -5 -5t-5 5t5 5t5 -5zM320 280q0 -5 -5 -5t-5 5t5 5t5 -5zM330 280q0 -5 -5 -5t-5 5t5 5t5 -5zM340 280q0 -5 -5 -5t-5 5t5 5t5 -5zM350 280q0 -5 -5 -5t-5 5t5 5t5 -5zM300 270q0 -5 -5 -5t-5 5t5 5t5 -5zM310 270q0 -5 -5 -5t-5 5t5 5t5 -5zM320 270
q0 -5 -5 -5t-5 5t5 5t5 -5zM330 270q0 -5 -5 -5t-5 5t5 5t5 -5zM340 270q0 -5 -5 -5t-5 5t5 5t5 -5zM300 260q0 -5 -5 -5t-5 5t5 5t5 -5zM310 260q0 -5 -5 -5t-5 5t5 5t5 -5zM320 260q0 -5 -5 -5t-5 5t5 5t5 -5zM330 260q0 -5 -5 -5t-5 5t5 5t5 -5zM290 250q0 -5 -5 -5t-5 5
t5 5t5 -5zM300 250q0 -5 -5 -5t-5 5t5 5t5 -5zM310 250q0 -5 -5 -5t-5 5t5 5t5 -5zM320 250q0 -5 -5 -5t-5 5t5 5t5 -5zM280 240q0 -5 -5 -5t-5 5t5 5t5 -5zM290 240q0 -5 -5 -5t-5 5t5 5t5 -5zM300 240q0 -5 -5 -5t-5 5t5 5t5 -5zM310 240q0 -5 -5 -5t-5 5t5 5t5 -5z
M270 230q0 -5 -5 -5t-5 5t5 5t5 -5zM280 230q0 -5 -5 -5t-5 5t5 5t5 -5zM290 230q0 -5 -5 -5t-5 5t5 5t5 -5zM300 230q0 -5 -5 -5t-5 5t5 5t5 -5zM260 220q0 -5 -5 -5t-5 5t5 5t5 -5zM270 220q0 -5 -5 -5t-5 5t5 5t5 -5zM280 220q0 -5 -5 -5t-5 5t5 5t5 -5zM290 220
q0 -5 -5 -5t-5 5t5 5t5 -5zM250 210q0 -5 -5 -5t-5 5t5 5t5 -5zM260 210q0 -5 -5 -5t-5 5t5 5t5 -5zM270 210q0 -5 -5 -5t-5 5t5 5t5 -5zM280 210q0 -5 -5 -5t-5 5t5 5t5 -5zM290 210q0 -5 -5 -5t-5 5t5 5t5 -5zM240 200q0 -5 -5 -5t-5 5t5 5t5 -5zM250 200q0 -5 -5 -5t-5 5
t5 5t5 -5zM260 200q0 -5 -5 -5t-5 5t5 5t5 -5zM270 200q0 -5 -5 -5t-5 5t5 5t5 -5zM280 200q0 -5 -5 -5t-5 5t5 5t5 -5zM240 190q0 -5 -5 -5t-5 5t5 5t5 -5zM250 190q0 -5 -5 -5t-5 5t5 5t5 -5zM260 190q0 -5 -5 -5t-5 5t5 5t5 -5zM270 190q0 -5 -5 -5t-5 5t5 5t5 -5z
M230 180q0 -5 -5 -5t-5 5t5 5t5 -5zM240 180q0 -5 -5 -5t-5 5t5 5t5 -5zM250 180q0 -5 -5 -5t-5 5t5 5t5 -5zM260 180q0 -5 -5 -5t-5 5t5 5t5 -5zM220 170q0 -5 -5 -5t-5 5t5 5t5 -5zM230 170q0 -5 -5 -5t-5 5t5 5t5 -5zM240 170q0 -5 -5 -5t-5 5t5 5t5 -5zM250 170
q0 -5 -5 -5t-5 5t5 5t5 -5zM210 160q0 -5 -5 -5t-5 5t5 5t5 -5zM220 160q0 -5 -5 -5t-5 5t5 5t5 -5zM230 160q0 -5 -5 -5t-5 5t5 5t5 -5zM240 160q0 -5 -5 -5t-5 5t5 5t5 -5zM200 150q0 -5 -5 -5t-5 5t5 5t5 -5zM210 150q0 -5 -5 -5t-5 5t5 5t5 -5zM220 150q0 -5 -5 -5t-5 5
t5 5t5 -5zM230 150q0 -5 -5 -5t-5 5t5 5t5 -5zM190 140q0 -5 -5 -5t-5 5t5 5t5 -5zM200 140q0 -5 -5 -5t-5 5t5 5t5 -5zM210 140q0 -5 -5 -5t-5 5t5 5t5 -5zM220 140q0 -5 -5 -5t-5 5t5 5t5 -5zM190 130q0 -5 -5 -5t-5 5t5 5t5 -5zM200 130q0 -5 -5 -5t-5 5t5 5t5 -5z
M210 130q0 -5 -5 -5t-5 5t5 5t5 -5zM180 120q0 -5 -5 -5t-5 5t5 5t5 -5zM190 120q0 -5 -5 -5t-5 5t5 5t5 -5zM200 120q0 -5 -5 -5t-5 5t5 5t5 -5zM170 110q0 -5 -5 -5t-5 5t5 5t5 -5zM180 110q0 -5 -5 -5t-5 5t5 5t5 -5zM190 110q0 -5 -5 -5t-5 5t5 5t5 -5zM160 100
q0 -5 -5 -5t-5 5t5 5t5 -5zM170 100q0 -5 -5 -5t-5 5t5 5t5 -5zM180 100q0 -5 -5 -5t-5 5t5 5t5 -5zM150 90q0 -5 -5 -5t-5 5t5 5t5 -5zM160 90q0 -5 -5 -5t-5 5t5 5t5 -5zM170 90q0 -5 -5 -5t-5 5t5 5t5 -5zM180 90q0 -5 -5 -5t-5 5t5 5t5 -5zM140 80q0 -5 -5 -5t-5 5t5 5
t5 -5zM150 80q0 -5 -5 -5t-5 5t5 5t5 -5zM160 80q0 -5 -5 -5t-5 5t5 5t5 -5zM170 80q0 -5 -5 -5t-5 5t5 5t5 -5zM140 70q0 -5 -5 -5t-5 5t5 5t5 -5zM150 70q0 -5 -5 -5t-5 5t5 5t5 -5zM160 70q0 -5 -5 -5t-5 5t5 5t5 -5zM130 60q0 -5 -5 -5t-5 5t5 5t5 -5zM140 60
q0 -5 -5 -5t-5 5t5 5t5 -5zM150 60q0 -5 -5 -5t-5 5t5 5t5 -5zM120 50q0 -5 -5 -5t-5 5t5 5t5 -5zM130 50q0 -5 -5 -5t-5 5t5 5t5 -5zM140 50q0 -5 -5 -5t-5 5t5 5t5 -5zM110 40q0 -5 -5 -5t-5 5t5 5t5 -5zM120 40q0 -5 -5 -5t-5 5t5 5t5 -5zM130 40q0 -5 -5 -5t-5 5t5 5
t5 -5zM100 30q0 -5 -5 -5t-5 5t5 5t5 -5zM110 30q0 -5 -5 -5t-5 5t5 5t5 -5zM120 30q0 -5 -5 -5t-5 5t5 5t5 -5zM90 20q0 -5 -5 -5t-5 5t5 5t5 -5zM100 20q0 -5 -5 -5t-5 5t5 5t5 -5zM110 20q0 -5 -5 -5t-5 5t5 5t5 -5zM80 10q0 -5 -5 -5t-5 5t5 5t5 -5zM90 10q0 -5 -5 -5
t-5 5t5 5t5 -5zM100 10q0 -5 -5 -5t-5 5t5 5t5 -5zM80 0q0 -5 -5 -5t-5 5t5 5t5 -5zM90 0q0 -5 -5 -5t-5 5t5 5t5 -5zM70 -10q0 -5 -5 -5t-5 5t5 5t5 -5zM80 -10q0 -5 -5 -5t-5 5t5 5t5 -5zM70 -20q0 -5 -5 -5t-5 5t5 5t5 -5z" />
    <glyph glyph-name="minus" unicode="&#x2212;" horiz-adv-x="558" 
d="M491 328v-77h-423v77h423z" />
    <glyph glyph-name="uni2007" unicode="&#x2007;" horiz-adv-x="623" 
 />
    <glyph glyph-name="uni2008" unicode="&#x2008;" horiz-adv-x="252" 
 />
    <glyph glyph-name="uni2009" unicode="&#x2009;" horiz-adv-x="49" 
 />
    <glyph glyph-name="uni200B" unicode="&#x200b;" 
 />
    <glyph glyph-name="uni2060" unicode="&#x2060;" 
 />
    <glyph glyph-name="uniFEFF" unicode="&#xfeff;" 
 />
    <glyph glyph-name="Euro" unicode="&#x20ac;" horiz-adv-x="894" 
d="M755 210h95q-41 -102 -132 -162t-205 -60q-84 0 -157.5 33.5t-125 94t-72.5 138.5h-125l26 54h89q-3 23 -3 47q0 25 3 49h-115l26 55h100q22 77 73.5 137t124 93t156.5 33q114 0 205 -60t132 -162h-95q-36 65 -99.5 101.5t-142.5 36.5q-93 0 -163.5 -49t-100.5 -130h420
l-25 -55h-409q-4 -21 -4 -49q0 -24 3 -47h364l-24 -54h-326q29 -83 99.5 -132.5t165.5 -49.5q79 0 142.5 36.5t99.5 101.5z" />
    <glyph glyph-name="uniFB00" unicode="&#xfb00;" horiz-adv-x="717" 
d="M17 421v79h106v103q0 75 42.5 114t110.5 39q42 0 78 -13v-76q-11 4 -29 7t-33 3q-43 0 -63 -19.5t-20 -65.5v-92h123v-79h-123v-421h-86v421h-106zM387 421v79h86v103q0 75 42.5 114t110.5 39q42 0 78 -13v-76q-27 10 -63 10q-42 0 -62 -19.5t-20 -65.5v-92h145v-79h-145
v-421h-86v421h-86z" />
    <glyph glyph-name="uniFB01" unicode="&#xfb01;" horiz-adv-x="615" 
d="M17 421v79h106v101q0 75 42.5 115t110.5 40q42 0 78 -13v-76q-27 10 -62 10q-43 0 -63 -19.5t-20 -65.5v-92h145v-79h-145v-421h-86v421h-106zM430 695q0 25 18.5 43t43.5 18t42.5 -18t17.5 -43q0 -26 -17.5 -43.5t-42.5 -17.5q-26 0 -44 18t-18 43zM534 500v-500h-86
v500h86z" />
    <glyph glyph-name="uniFB03" unicode="&#xfb03;" horiz-adv-x="967" 
d="M782 695q0 25 18.5 43t43.5 18t42.5 -18t17.5 -43q0 -26 -17.5 -43.5t-42.5 -17.5q-26 0 -44 18t-18 43zM886 500v-500h-86v500h86zM17 421v79h106v103q0 75 42.5 114t110.5 39q42 0 78 -13v-76q-11 4 -29 7t-33 3q-43 0 -63 -19.5t-20 -65.5v-92h123v-79h-123v-421h-86
v421h-106zM387 421v79h86v103q0 75 42.5 114t110.5 39q42 0 78 -13v-76q-27 10 -63 10q-42 0 -62 -19.5t-20 -65.5v-92h145v-79h-145v-421h-86v421h-86z" />
    <glyph glyph-name="uniFB02" unicode="&#xfb02;" horiz-adv-x="615" 
d="M17 421v79h106v101q0 75 42.5 115t110.5 40q42 0 78 -13v-76q-27 10 -62 10q-43 0 -63 -19.5t-20 -65.5v-92h145v-79h-145v-421h-86v421h-106zM534 750v-750h-86v750h86z" />
    <glyph glyph-name="uniFB04" unicode="&#xfb04;" horiz-adv-x="965" 
d="M884 750v-750h-86v750h86zM17 421v79h106v103q0 75 42.5 114t110.5 39q42 0 78 -13v-76q-11 4 -29 7t-33 3q-43 0 -63 -19.5t-20 -65.5v-92h123v-79h-123v-421h-86v421h-106zM387 421v79h86v103q0 75 42.5 114t110.5 39q42 0 78 -13v-76q-27 10 -63 10q-42 0 -62 -19.5
t-20 -65.5v-92h145v-79h-145v-421h-86v421h-86z" />
    <glyph glyph-name="glyph379" 
d="M-62 695q0 25 18.5 43t43.5 18t42.5 -18t17.5 -43q0 -26 -17.5 -43.5t-42.5 -17.5q-26 0 -44 18t-18 43z" />
    <glyph glyph-name="breve" unicode="&#x2d8;" 
d="M-159 737v13h58v-13q0 -48 28.5 -74.5t72.5 -26.5t72.5 26.5t28.5 74.5v13h58v-13q0 -47 -21 -83.5t-57.5 -56t-80.5 -19.5t-80.5 19.5t-57.5 56t-21 83.5z" />
    <glyph glyph-name="caron" unicode="&#x2c7;" 
d="M-159 756l159 -101l159 101v-79l-159 -101l-159 101v79z" />
    <glyph glyph-name="circumflex" unicode="&#x2c6;" 
d="M159 576l-159 101l-159 -101v79l159 101l159 -101v-79z" />
    <glyph glyph-name="dotaccent" unicode="&#x2d9;" 
d="M-59 654q0 24 17 41.5t42 17.5q24 0 41 -17.5t17 -41.5t-17 -41t-41 -17q-25 0 -42 17t-17 41z" />
    <glyph glyph-name="glyph384" 
d="M-59 0q0 24 17 41.5t42 17.5q24 0 41 -17.5t17 -41.5t-17 -41t-41 -17q-25 0 -42 17t-17 41z" />
    <glyph glyph-name="glyph385" 
d="M-59 -132q0 24 17 41.5t42 17.5q24 0 41 -17.5t17 -41.5t-17 -41t-41 -17q-25 0 -42 17t-17 41z" />
    <glyph glyph-name="hungarumlaut" unicode="&#x2dd;" 
d="M0 750l-109 -190h-59l69 190h99zM167 750l-109 -190h-59l69 190h99z" />
    <glyph glyph-name="ogonek" unicode="&#x2db;" 
d="M85 -193q-13 -11 -33 -18.5t-44 -7.5q-40 0 -67 25t-27 62q0 43 22.5 71.5t62.5 60.5h86q-46 -29 -69.5 -59t-23.5 -56q0 -18 11 -27.5t27 -9.5q27 0 55 22v-63v0z" />
    <glyph glyph-name="ring" unicode="&#x2da;" 
d="M-121 662q0 32 16.5 60t44.5 44.5t61 16.5q32 0 60 -16.5t44.5 -44.5t16.5 -60q0 -50 -35.5 -85.5t-85.5 -35.5t-86 35.5t-36 85.5zM1 722q-24 0 -42 -18t-18 -43q0 -23 17.5 -41t42.5 -18q23 0 41.5 17.5t18.5 41.5q0 25 -17.5 43t-42.5 18z" />
    <glyph glyph-name="tilde" unicode="&#x2dc;" 
d="M-65 706q20 0 38 -7t42 -19q17 -9 28 -13.5t21 -4.5q33 0 43 44h66l-3 -18q-8 -43 -37 -69t-69 -26q-20 0 -38 7t-42 19q-17 9 -28.5 13.5t-20.5 4.5q-33 0 -43 -44h-66l3 18q8 43 37 69t69 26z" />
    <glyph glyph-name="glyph390" 
d="M55 710l-50 -165h-60l24 165h86z" />
    <glyph glyph-name="glyph391" 
d="M-159 657q0 25 18 42.5t43 17.5t43 -17.5t18 -42.5t-18 -43t-43 -18q-26 0 -43.5 18t-17.5 43zM37 657q0 25 18 42.5t43 17.5t43 -17.5t18 -42.5t-18 -43t-43 -18t-43 18t-18 43z" />
    <glyph glyph-name="glyph392" 
d="M-255 30l471 480l39 -39l-470 -481z" />
    <glyph glyph-name="glyph393" 
d="M162 577h-323v68h323v-68z" />
    <glyph glyph-name="glyph394" 
d="M162 577h-323v68h323v-68z" />
    <glyph glyph-name="glyph395" 
d="M-122 332l244 156v-77l-244 -157v78z" />
    <glyph glyph-name="glyph396" 
d="M169 334v-68h-337v68h337z" />
    <glyph glyph-name="uni0326" unicode="&#x326;" 
d="M-58 -132q0 24 17 41.5t41 17.5t41 -17.5t17 -41.5q0 -17 -11 -35l-64 -102h-45l36 85q-14 8 -23 22t-9 30z" />
    <glyph glyph-name="zero.zero" horiz-adv-x="623" 
d="M563 455v-198q0 -78 -32.5 -138.5t-90 -94.5t-129.5 -34t-129.5 34t-89.5 94.5t-32 138.5v198q0 77 32 138t89.5 95t129.5 34t129.5 -34t90 -95t32.5 -138zM146 455v-164l327 212q-13 64 -56 99.5t-106 35.5q-73 0 -119 -49t-46 -134zM477 257v165l-327 -212
q13 -64 56 -100t105 -36q74 0 120 49t46 134z" />
    <glyph glyph-name="one.oldstyle" horiz-adv-x="299" 
d="M11 482l67 78h137v-560h-86v482h-118z" />
    <glyph glyph-name="two.oldstyle" horiz-adv-x="490" 
d="M50 0v30q0 51 23.5 90.5t57.5 67t90 63.5l25 16q54 35 77.5 64t23.5 73q0 38 -27.5 63t-70.5 25q-48 0 -79.5 -27t-32.5 -75h-87q0 53 26 94t71.5 63.5t101.5 22.5q51 0 93 -19t67 -57t25 -91q0 -62 -31 -105.5t-102 -90.5l-34 -23q-49 -31 -75.5 -54t-33.5 -53h282v-77
h-390z" />
    <glyph glyph-name="three.oldstyle" horiz-adv-x="517" 
d="M43 125h85q4 -55 42.5 -89.5t93.5 -34.5q49 0 82.5 30t33.5 82q0 54 -35 81.5t-92 27.5h-45v73h47q46 0 77 28.5t31 72.5q0 43 -30 69.5t-74 26.5q-51 0 -85 -31.5t-35 -89.5h-86q0 60 28 105t75.5 69.5t104.5 24.5q53 0 96.5 -21.5t68 -61t24.5 -91.5q0 -43 -22.5 -79.5
t-56.5 -56.5q44 -19 70 -59t26 -93q0 -54 -26 -96t-72.5 -65.5t-104.5 -23.5q-61 0 -111 26t-80 72t-30 104z" />
    <glyph glyph-name="four.oldstyle" horiz-adv-x="539" 
d="M505 176v-77h-83v-167h-86v167h-319v66l329 395h76v-384h83zM336 176v254l-209 -254h209z" />
    <glyph glyph-name="five.oldstyle" horiz-adv-x="488" 
d="M452 133q0 -61 -25.5 -108.5t-73 -74.5t-111.5 -27q-58 0 -105.5 24.5t-75.5 66t-29 90.5h89q9 -46 40.5 -74.5t80.5 -28.5q58 0 91 38t33 94t-33 93.5t-87 37.5q-37 0 -65.5 -17t-46.5 -48l-79 23l63 338h291v-78h-222l-32 -173q41 31 104 31q57 0 101 -27.5t68 -74.5
t24 -105z" />
    <glyph glyph-name="six.oldstyle" horiz-adv-x="508" 
d="M464 200q0 -58 -27 -106t-75 -76t-109 -28t-109 27.5t-75 75t-27 103.5q0 46 17.5 82.5t51.5 80.5l215 268h108l-180 -225q5 1 17 1q50 0 94.5 -27.5t71.5 -74t27 -101.5zM377 199q0 55 -34.5 92.5t-89.5 37.5q-54 0 -88.5 -37.5t-34.5 -92.5q0 -56 34.5 -93.5
t88.5 -37.5q55 0 89.5 37.5t34.5 93.5z" />
    <glyph glyph-name="seven.oldstyle" horiz-adv-x="449" 
d="M431 560v-69l-289 -559h-97l285 550h-306v78h407z" />
    <glyph glyph-name="eight.oldstyle" horiz-adv-x="516" 
d="M469 188q0 -57 -27 -102t-75.5 -70.5t-108.5 -25.5q-59 0 -107.5 25.5t-76 70.5t-27.5 102q0 55 25 96.5t71 65.5q-30 21 -47 53.5t-17 71.5q0 46 23 83t64 58t92 21t91.5 -21t63.5 -58t23 -83q0 -39 -16.5 -71.5t-46.5 -53.5q46 -23 71 -64.5t25 -97.5zM163 472
q0 -37 26.5 -64t68.5 -27q43 0 69 26.5t26 64.5q0 39 -26 65t-69 26q-42 0 -68.5 -26.5t-26.5 -64.5zM381 189q0 52 -33.5 87t-89.5 35q-55 0 -89.5 -35t-34.5 -87t34.5 -87.5t89.5 -35.5q56 0 89.5 35.5t33.5 87.5z" />
    <glyph glyph-name="nine.oldstyle" horiz-adv-x="505" 
d="M466 363q0 -46 -17.5 -82.5t-51.5 -80.5l-215 -268h-108l180 225q-5 -1 -17 -1q-50 0 -94.5 27.5t-71.5 74t-27 101.5q0 58 27 106t75 76t109 28t109 -27.5t75 -75t27 -103.5zM378 360q0 56 -34.5 93.5t-88.5 37.5q-55 0 -89.5 -37.5t-34.5 -93.5q0 -55 34.5 -92.5
t89.5 -37.5q54 0 88.5 37.5t34.5 92.5z" />
    <glyph glyph-name="zero.oldstyle" horiz-adv-x="544" 
d="M59 205v151q0 62 27 111t75.5 76t110.5 27q61 0 109.5 -27t76 -76t27.5 -111v-151q0 -63 -27.5 -111.5t-76 -76t-109.5 -27.5q-62 0 -110.5 27t-75.5 76t-27 112zM399 205v151q0 63 -35.5 99.5t-91.5 36.5q-57 0 -92 -36.5t-35 -99.5v-151q0 -64 35 -100.5t92 -36.5
t92 37t35 100z" />
    <glyph glyph-name="zero.oldstyle.zero" horiz-adv-x="544" 
d="M485 356v-151q0 -63 -27.5 -111.5t-76 -76t-109.5 -27.5q-62 0 -110.5 27t-75.5 76t-27 112v151q0 62 27 111t75.5 76t110.5 27q61 0 109.5 -27t76 -76t27.5 -111zM145 205v-12l236 239q-16 29 -44.5 44.5t-64.5 15.5q-57 0 -92 -36.5t-35 -99.5v-151zM399 356
q0 10 -1 14l-236 -241q17 -29 45 -45t65 -16q57 0 92 37t35 100v151z" />
    <glyph glyph-name="one.tnum" horiz-adv-x="590" 
d="M260 82v543h-140l70 85h156v-628h177v-82h-440v82h177z" />
    <glyph glyph-name="two.tnum" horiz-adv-x="590" 
d="M65 0v34q0 61 26.5 108.5t65 81t102.5 78.5q8 6 19.5 14t24.5 18q48 36 73 59.5t39 52.5t14 69q0 55 -36 89t-94 34q-62 0 -104 -37t-43 -103h-88q0 66 31 117t84.5 79t118.5 28q60 0 110 -24t79.5 -70.5t29.5 -113.5q0 -76 -37 -129.5t-127 -118.5q-30 -22 -45 -32
q-64 -43 -96 -74.5t-41 -76.5h354v-83h-460z" />
    <glyph glyph-name="three.tnum" horiz-adv-x="590" 
d="M49 216h87q4 -63 51.5 -102.5t114.5 -39.5q62 0 103 34t41 94q0 64 -41.5 96t-113.5 32h-53v79h57q56 0 93.5 33t37.5 84q0 49 -37 80.5t-91 31.5q-64 0 -106 -36.5t-43 -103.5h-88q0 67 31.5 118t86 78.5t119.5 27.5q60 0 109 -24t78 -68t29 -101q0 -51 -27 -93t-69 -64
q54 -22 85 -67.5t31 -105.5q0 -62 -29.5 -109.5t-82.5 -73.5t-120 -26q-70 0 -128 29t-91.5 81t-33.5 116z" />
    <glyph glyph-name="four.tnum" horiz-adv-x="590" 
d="M567 274v-81h-98v-193h-86v193h-378v69l389 448h75v-436h98zM383 274v306l-265 -306h265z" />
    <glyph glyph-name="five.tnum" horiz-adv-x="590" 
d="M533 215q0 -62 -31.5 -113.5t-86.5 -81.5t-123 -30q-63 0 -117 27.5t-87 74t-34 100.5h88q12 -51 53.5 -84.5t96.5 -33.5q43 0 78 20.5t55 55t20 76.5t-19 77t-53 55.5t-77 20.5q-44 0 -78.5 -19.5t-55.5 -52.5l-82 24l73 379h332v-84h-263l-39 -203q22 17 54 27t70 10
q65 0 116.5 -32t80.5 -88t29 -125z" />
    <glyph glyph-name="six.tnum" horiz-adv-x="590" 
d="M532 226q0 -65 -31.5 -119t-86 -85.5t-122.5 -31.5t-123 31.5t-86.5 85t-31.5 117.5q0 52 20.5 93.5t59.5 87.5l259 305h109l-217 -257q20 2 28 2q59 0 110 -31.5t81.5 -84t30.5 -113.5zM444 226q0 42 -20 77t-55 55.5t-77 20.5q-43 0 -78 -20.5t-55 -55.5t-20 -77
t20 -77t55 -55.5t78 -20.5q42 0 77 20.5t55 55.5t20 77z" />
    <glyph glyph-name="seven.tnum" horiz-adv-x="590" 
d="M531 710v-72l-338 -638h-96l332 626h-364v84h466z" />
    <glyph glyph-name="eight.tnum" horiz-adv-x="590" 
d="M533 213q0 -64 -30 -115t-84.5 -79.5t-123.5 -28.5t-123.5 29t-85 79.5t-30.5 114.5q0 63 29.5 111.5t83.5 74.5q-35 24 -54.5 60t-19.5 80q0 52 26 94t72 65.5t102 23.5q58 0 103 -23.5t70.5 -65.5t25.5 -94q0 -44 -19 -80t-53 -60q53 -26 82 -74.5t29 -111.5zM180 537
q0 -43 32 -74t83 -31q52 0 83 31t31 74q0 45 -31 74.5t-83 29.5q-51 0 -83 -29.5t-32 -74.5zM446 213q0 62 -40.5 102t-110.5 40q-68 0 -110 -40.5t-42 -101.5q0 -60 42 -100.5t110 -40.5q69 0 110 40.5t41 100.5z" />
    <glyph glyph-name="nine.tnum" horiz-adv-x="590" 
d="M539 488q0 -52 -20.5 -93.5t-59.5 -87.5l-260 -307h-110l219 259q-9 -2 -28 -2q-58 0 -109.5 31.5t-82 84t-30.5 112.5q0 65 31.5 119.5t86 86t122.5 31.5t123 -31.5t86.5 -85t31.5 -117.5zM451 486q0 42 -20 77t-55 55.5t-78 20.5t-77.5 -20.5t-54.5 -55.5t-20 -77
t20 -77t54.5 -55.5t77.5 -20.5t78 20.5t55 55.5t20 77z" />
    <glyph glyph-name="zero.tnum" horiz-adv-x="590" 
d="M45 257v198q0 77 32 138t89.5 95t129.5 34t129.5 -34t90 -95t32.5 -138v-198q0 -78 -32.5 -138.5t-90 -94.5t-129.5 -34t-129.5 34t-89.5 94.5t-32 138.5zM462 257v198q0 85 -46 134t-120 49q-73 0 -119 -49t-46 -134v-198q0 -85 46 -134t119 -49q74 0 120 49t46 134z
" />
    <glyph glyph-name="zero.tnum.zero" horiz-adv-x="590" 
d="M547 455v-198q0 -78 -32.5 -138.5t-90 -94.5t-129.5 -34t-129.5 34t-89.5 94.5t-32 138.5v198q0 77 32 138t89.5 95t129.5 34t129.5 -34t90 -95t32.5 -138zM130 455v-177l323 242q-16 56 -58 87t-100 31q-73 0 -119 -49t-46 -134zM461 257v179l-323 -243q16 -57 57.5 -88
t99.5 -31q74 0 120 49t46 134z" />
    <glyph glyph-name="uni21B2" unicode="&#x21b2;" horiz-adv-x="858" 
d="M351 554l48 -50l-219 -220h513v426h72v-498h-585l219 -220l-48 -50l-306 306z" />
    <glyph glyph-name="uni21B3" unicode="&#x21b3;" horiz-adv-x="858" 
d="M814 248l-306 -306l-49 50l220 220h-585v498h71v-426h514l-220 220l49 50z" />
    <glyph glyph-name="uni21B0" unicode="&#x21b0;" horiz-adv-x="846" 
d="M763 -209h-71v423h-514l219 -220l-48 -50l-306 306l306 306l48 -50l-219 -220h585v-495z" />
    <glyph glyph-name="uni21B1" unicode="&#x21b1;" horiz-adv-x="846" 
d="M668 286l-220 220l49 50l306 -306l-306 -306l-49 50l220 220h-514v-423h-71v495h585z" />
    <glyph glyph-name="arrowleft" unicode="&#x2190;" horiz-adv-x="821" 
d="M349 556l48 -51l-219 -219h585v-72h-585l219 -220l-48 -50l-306 306z" />
    <glyph glyph-name="arrowup" unicode="&#x2191;" horiz-adv-x="704" 
d="M96 367l-50 49l306 306l306 -306l-51 -49l-219 220v-587h-72v587z" />
    <glyph glyph-name="arrowright" unicode="&#x2192;" horiz-adv-x="821" 
d="M643 214h-585v72h585l-220 220l49 50l306 -306l-306 -306l-49 50z" />
    <glyph glyph-name="arrowdown" unicode="&#x2193;" horiz-adv-x="701" 
d="M657 294l-306 -306l-306 306l49 49l221 -220v587h72v-587l219 220z" />
    <glyph glyph-name="uni2196" unicode="&#x2196;" horiz-adv-x="732" 
d="M686 38l-50 -50l-464 464v-312h-70v432h433v-70h-313z" />
    <glyph glyph-name="uni2197" unicode="&#x2197;" horiz-adv-x="732" 
d="M510 502h-313v70h433v-432h-70v312l-464 -464l-51 50z" />
    <glyph glyph-name="uni2198" unicode="&#x2198;" horiz-adv-x="726" 
d="M512 70l-464 464l50 50l465 -464v312h69v-432h-433v70h313z" />
    <glyph glyph-name="uni2199" unicode="&#x2199;" horiz-adv-x="726" 
d="M163 120l465 464l50 -50l-464 -464h313v-70h-433v432h69v-312z" />
    <glyph glyph-name="onethird" unicode="&#x2153;" horiz-adv-x="781" 
d="M10 641l52 69h105v-432h-70v363h-87zM117 0h-81l500 710h81zM445 136h69q3 -35 27.5 -54.5t61.5 -19.5q32 0 53 17.5t21 46.5q0 32 -22 49.5t-59 17.5h-34v60h34q32 0 50.5 17t18.5 44q0 24 -19 40t-46 16q-33 0 -55 -19.5t-22 -51.5h-70q0 42 20 74t54 49t73 17
q61 0 98.5 -34.5t37.5 -88.5q-1 -30 -15.5 -55t-36.5 -38q29 -12 46.5 -38.5t17.5 -62.5q0 -57 -40.5 -92.5t-105.5 -35.5q-42 0 -77.5 17.5t-57.5 49.5t-22 75z" />
    <glyph glyph-name="uni2155" unicode="&#x2155;" horiz-adv-x="764" 
d="M10 641l52 69h105v-432h-70v363h-87zM117 0h-81l500 710h81zM738 139q0 -64 -41 -104.5t-106 -40.5q-40 0 -74 17t-55 46t-22 64h71q7 -26 28.5 -42.5t52.5 -16.5q33 0 54.5 22.5t21.5 55.5t-21.5 55.5t-54.5 22.5q-26 0 -45 -11.5t-29 -32.5l-63 19l45 239h208v-68h-152
l-20 -99q27 17 67 17q60 0 97.5 -40.5t37.5 -102.5z" />
    <glyph glyph-name="uni2159" unicode="&#x2159;" horiz-adv-x="719" 
d="M10 641l52 69h105v-432h-70v363h-87zM117 0h-81l500 710h81zM694 140q0 -62 -41.5 -104t-107.5 -42q-43 0 -77 19.5t-53 52.5t-19 72q0 32 12 56t38 58l141 180h87l-120 -153h5q34 0 65.5 -18t50.5 -49.5t19 -71.5zM623 139q0 33 -22.5 56t-55.5 23t-55.5 -23t-22.5 -56
t22.5 -55.5t55.5 -22.5t55.5 22.5t22.5 55.5z" />
    <glyph glyph-name="uni2150" unicode="&#x2150;" horiz-adv-x="772" 
d="M10 641l52 69h105v-432h-70v363h-87zM117 0h-81l500 710h81zM759 432v-60l-202 -372h-79l199 364h-211v68h293z" />
    <glyph glyph-name="oneeighth" unicode="&#x215b;" horiz-adv-x="777" 
d="M10 641l52 69h105v-432h-70v363h-87zM117 0h-81l500 710h81zM746 130q0 -59 -42 -97.5t-108 -38.5q-64 0 -106.5 38.5t-42.5 97.5q0 37 16 64.5t46 44.5q-41 32 -41 86q0 49 36 81.5t92 32.5q57 0 92.5 -32.5t35.5 -81.5q0 -54 -40 -86q30 -16 46 -44t16 -65zM536 320
q0 -24 17 -40t43 -16q28 0 45 16t17 40t-17.5 40t-44.5 16q-26 0 -43 -16t-17 -40zM674 132q0 31 -21 52.5t-56 21.5q-36 0 -57.5 -21.5t-21.5 -52.5q0 -30 21.5 -52t56.5 -22q36 0 57 21.5t21 52.5z" />
    <glyph glyph-name="uni2151" unicode="&#x2151;" horiz-adv-x="759" 
d="M10 641l52 69h105v-432h-70v363h-87zM117 0h-81l500 710h81zM739 295q0 -32 -12 -56.5t-38 -58.5l-142 -180h-87l120 154h-4q-34 0 -65.5 17.5t-50.5 49.5t-19 72q0 62 41.5 104t106.5 42q43 0 77.5 -19.5t53.5 -52.5t19 -72zM668 293q0 33 -22.5 56t-56.5 23
q-33 0 -55 -23t-22 -56t22 -56t55 -23q34 0 56.5 23t22.5 56z" />
    <glyph glyph-name="uni2152" unicode="&#x2152;" horiz-adv-x="1033" 
d="M10 641l52 69h105v-432h-70v363h-87zM117 0h-81l500 710h81zM426 363l52 69h105v-432h-70v363h-87zM680 160v112q0 74 44 120.5t114 46.5q69 0 113 -47t44 -120v-112q0 -73 -44 -119.5t-113 -46.5q-70 0 -114 46.5t-44 119.5zM925 160v112q0 46 -24.5 72t-62.5 26
q-40 0 -64 -26t-24 -72v-112q0 -45 24 -71.5t64 -26.5q38 0 62.5 26.5t24.5 71.5z" />
    <glyph glyph-name="twothirds" unicode="&#x2154;" horiz-adv-x="903" 
d="M32 278v25q0 40 16.5 69.5t40 50t63.5 48.5l21 15q38 28 55 49t17 50q0 28 -18.5 45.5t-48.5 17.5q-32 0 -53.5 -19.5t-21.5 -51.5h-71q0 62 42 101t105 39q57 0 96.5 -34t39.5 -96q0 -49 -22 -82t-72 -70l-23 -16q-32 -21 -49.5 -36.5t-24.5 -36.5h195v-68h-287zM239 0
h-81l500 710h81zM567 136h69q3 -35 27.5 -54.5t61.5 -19.5q32 0 53 17.5t21 46.5q0 32 -22 49.5t-59 17.5h-34v60h34q32 0 50.5 17t18.5 44q0 24 -19 40t-46 16q-33 0 -55 -19.5t-22 -51.5h-70q0 42 20 74t54 49t73 17q61 0 98.5 -34.5t37.5 -88.5q-1 -30 -15.5 -55
t-36.5 -38q29 -12 46.5 -38.5t17.5 -62.5q0 -57 -40.5 -92.5t-105.5 -35.5q-42 0 -77.5 17.5t-57.5 49.5t-22 75z" />
    <glyph glyph-name="uni2156" unicode="&#x2156;" horiz-adv-x="887" 
d="M32 278v25q0 40 16.5 69.5t40 50t63.5 48.5l21 15q38 28 55 49t17 50q0 28 -18.5 45.5t-48.5 17.5q-32 0 -53.5 -19.5t-21.5 -51.5h-71q0 62 42 101t105 39q57 0 96.5 -34t39.5 -96q0 -49 -22 -82t-72 -70l-23 -16q-32 -21 -49.5 -36.5t-24.5 -36.5h195v-68h-287zM239 0
h-81l500 710h81zM860 139q0 -64 -41 -104.5t-106 -40.5q-40 0 -74 17t-55 46t-22 64h71q7 -26 28.5 -42.5t52.5 -16.5q33 0 54.5 22.5t21.5 55.5t-21.5 55.5t-54.5 22.5q-26 0 -45 -11.5t-29 -32.5l-63 19l45 239h208v-68h-152l-20 -99q27 17 67 17q60 0 97.5 -40.5
t37.5 -102.5z" />
    <glyph glyph-name="uni2157" unicode="&#x2157;" horiz-adv-x="893" 
d="M29 414h69q3 -35 27.5 -54.5t61.5 -19.5q32 0 53 17.5t21 46.5q0 32 -22 49.5t-59 17.5h-34v60h34q32 0 50.5 17t18.5 44q0 24 -19 40t-46 16q-33 0 -55 -19.5t-22 -51.5h-70q0 42 20 74t54 49t73 17q61 0 98.5 -34.5t37.5 -88.5q-1 -30 -15.5 -55t-36.5 -38
q29 -12 46.5 -38.5t17.5 -62.5q0 -57 -40.5 -92.5t-105.5 -35.5q-42 0 -77.5 17.5t-57.5 49.5t-22 75zM246 0h-81l500 710h81zM867 139q0 -64 -41 -104.5t-106 -40.5q-40 0 -74 17t-55 46t-22 64h71q7 -26 28.5 -42.5t52.5 -16.5q33 0 54.5 22.5t21.5 55.5t-21.5 55.5
t-54.5 22.5q-26 0 -45 -11.5t-29 -32.5l-63 19l45 239h208v-68h-152l-20 -99q27 17 67 17q60 0 97.5 -40.5t37.5 -102.5z" />
    <glyph glyph-name="threeeighths" unicode="&#x215c;" horiz-adv-x="906" 
d="M29 414h69q3 -35 27.5 -54.5t61.5 -19.5q32 0 53 17.5t21 46.5q0 32 -22 49.5t-59 17.5h-34v60h34q32 0 50.5 17t18.5 44q0 24 -19 40t-46 16q-33 0 -55 -19.5t-22 -51.5h-70q0 42 20 74t54 49t73 17q61 0 98.5 -34.5t37.5 -88.5q-1 -30 -15.5 -55t-36.5 -38
q29 -12 46.5 -38.5t17.5 -62.5q0 -57 -40.5 -92.5t-105.5 -35.5q-42 0 -77.5 17.5t-57.5 49.5t-22 75zM246 0h-81l500 710h81zM875 130q0 -59 -42 -97.5t-108 -38.5q-64 0 -106.5 38.5t-42.5 97.5q0 37 16 64.5t46 44.5q-41 32 -41 86q0 49 36 81.5t92 32.5q57 0 92.5 -32.5
t35.5 -81.5q0 -54 -40 -86q30 -16 46 -44t16 -65zM665 320q0 -24 17 -40t43 -16q28 0 45 16t17 40t-17.5 40t-44.5 16q-26 0 -43 -16t-17 -40zM803 132q0 31 -21 52.5t-56 21.5q-36 0 -57.5 -21.5t-21.5 -52.5q0 -30 21.5 -52t56.5 -22q36 0 57 21.5t21 52.5z" />
    <glyph glyph-name="uni2158" unicode="&#x2158;" horiz-adv-x="919" 
d="M368 449v-64h-58v-107h-70v107h-221v56l228 269h63v-261h58zM240 449v157l-134 -157h134zM271 0h-81l500 710h81zM892 139q0 -64 -41 -104.5t-106 -40.5q-40 0 -74 17t-55 46t-22 64h71q7 -26 28.5 -42.5t52.5 -16.5q33 0 54.5 22.5t21.5 55.5t-21.5 55.5t-54.5 22.5
q-26 0 -45 -11.5t-29 -32.5l-63 19l45 239h208v-68h-152l-20 -99q27 17 67 17q60 0 97.5 -40.5t37.5 -102.5z" />
    <glyph glyph-name="uni215A" unicode="&#x215a;" horiz-adv-x="832" 
d="M322 417q0 -64 -41 -104.5t-106 -40.5q-40 0 -74 17t-55 46t-22 64h71q7 -26 28.5 -42.5t52.5 -16.5q33 0 54.5 22.5t21.5 55.5t-21.5 55.5t-54.5 22.5q-26 0 -45 -11.5t-29 -32.5l-63 19l45 239h208v-68h-152l-20 -99q27 17 67 17q60 0 97.5 -40.5t37.5 -102.5zM230 0
h-81l500 710h81zM807 140q0 -62 -41.5 -104t-107.5 -42q-43 0 -77 19.5t-53 52.5t-19 72q0 32 12 56t38 58l141 180h87l-120 -153h5q34 0 65.5 -18t50.5 -49.5t19 -71.5zM736 139q0 33 -22.5 56t-55.5 23t-55.5 -23t-22.5 -56t22.5 -55.5t55.5 -22.5t55.5 22.5t22.5 55.5z
" />
    <glyph glyph-name="fiveeighths" unicode="&#x215d;" horiz-adv-x="889" 
d="M322 417q0 -64 -41 -104.5t-106 -40.5q-40 0 -74 17t-55 46t-22 64h71q7 -26 28.5 -42.5t52.5 -16.5q33 0 54.5 22.5t21.5 55.5t-21.5 55.5t-54.5 22.5q-26 0 -45 -11.5t-29 -32.5l-63 19l45 239h208v-68h-152l-20 -99q27 17 67 17q60 0 97.5 -40.5t37.5 -102.5zM230 0
h-81l500 710h81zM859 130q0 -59 -42 -97.5t-108 -38.5q-64 0 -106.5 38.5t-42.5 97.5q0 37 16 64.5t46 44.5q-41 32 -41 86q0 49 36 81.5t92 32.5q57 0 92.5 -32.5t35.5 -81.5q0 -54 -40 -86q30 -16 46 -44t16 -65zM649 320q0 -24 17 -40t43 -16q28 0 45 16t17 40t-17.5 40
t-44.5 16q-26 0 -43 -16t-17 -40zM787 132q0 31 -21 52.5t-56 21.5q-36 0 -57.5 -21.5t-21.5 -52.5q0 -30 21.5 -52t56.5 -22q36 0 57 21.5t21 52.5z" />
    <glyph glyph-name="seveneighths" unicode="&#x215e;" horiz-adv-x="820" 
d="M320 710v-60l-202 -372h-79l199 364h-211v68h293zM160 0h-81l500 710h81zM789 130q0 -59 -42 -97.5t-108 -38.5q-64 0 -106.5 38.5t-42.5 97.5q0 37 16 64.5t46 44.5q-41 32 -41 86q0 49 36 81.5t92 32.5q57 0 92.5 -32.5t35.5 -81.5q0 -54 -40 -86q30 -16 46 -44t16 -65
zM579 320q0 -24 17 -40t43 -16q28 0 45 16t17 40t-17.5 40t-44.5 16q-26 0 -43 -16t-17 -40zM717 132q0 31 -21 52.5t-56 21.5q-36 0 -57.5 -21.5t-21.5 -52.5q0 -30 21.5 -52t56.5 -22q36 0 57 21.5t21 52.5z" />
    <glyph glyph-name="uni215F" unicode="&#x215f;" horiz-adv-x="416" 
d="M10 641l52 69h105v-432h-70v363h-87zM117 0h-81l500 710h81z" />
    <glyph glyph-name="fraction" unicode="&#x2044;" horiz-adv-x="180" 
d="M-119 0h-81l500 710h81z" />
    <glyph glyph-name="uni2074" unicode="&#x2074;" horiz-adv-x="390" 
d="M368 581v-64h-58v-107h-70v107h-221v56l228 269h63v-261h58zM240 581v157l-134 -157h134z" />
    <glyph glyph-name="uni2075" unicode="&#x2075;" horiz-adv-x="349" 
d="M322 549q0 -64 -41 -104.5t-106 -40.5q-40 0 -74 17t-55 46t-22 64h71q7 -26 28.5 -42.5t52.5 -16.5q33 0 54.5 22.5t21.5 55.5t-21.5 55.5t-54.5 22.5q-26 0 -45 -11.5t-29 -32.5l-63 19l45 239h208v-68h-152l-20 -99q27 17 67 17q60 0 97.5 -40.5t37.5 -102.5z" />
    <glyph glyph-name="uni2076" unicode="&#x2076;" horiz-adv-x="343" 
d="M318 550q0 -62 -41.5 -104t-107.5 -42q-43 0 -77 19.5t-53 52.5t-19 72q0 32 12 56t38 58l141 180h87l-120 -153h5q34 0 65.5 -18t50.5 -49.5t19 -71.5zM247 549q0 33 -22.5 56t-55.5 23t-55.5 -23t-22.5 -56t22.5 -55.5t55.5 -22.5t55.5 22.5t22.5 55.5z" />
    <glyph glyph-name="uni2077" unicode="&#x2077;" horiz-adv-x="334" 
d="M320 842v-60l-202 -372h-79l199 364h-211v68h293z" />
    <glyph glyph-name="uni2078" unicode="&#x2078;" horiz-adv-x="361" 
d="M330 540q0 -59 -42 -97.5t-108 -38.5q-64 0 -106.5 38.5t-42.5 97.5q0 37 16 64.5t46 44.5q-41 32 -41 86q0 49 36 81.5t92 32.5q57 0 92.5 -32.5t35.5 -81.5q0 -54 -40 -86q30 -16 46 -44t16 -65zM120 730q0 -24 17 -40t43 -16q28 0 45 16t17 40t-17.5 40t-44.5 16
q-26 0 -43 -16t-17 -40zM258 542q0 31 -21 52.5t-56 21.5q-36 0 -57.5 -21.5t-21.5 -52.5q0 -30 21.5 -52t56.5 -22q36 0 57 21.5t21 52.5z" />
    <glyph glyph-name="uni2079" unicode="&#x2079;" horiz-adv-x="343" 
d="M323 705q0 -32 -12 -56.5t-38 -58.5l-142 -180h-87l120 154h-4q-34 0 -65.5 17.5t-50.5 49.5t-19 72q0 62 41.5 104t106.5 42q43 0 77.5 -19.5t53.5 -52.5t19 -72zM252 703q0 33 -22.5 56t-56.5 23q-33 0 -55 -23t-22 -56t22 -56t55 -23q34 0 56.5 23t22.5 56z" />
    <glyph glyph-name="uni2070" unicode="&#x2070;" horiz-adv-x="390" 
d="M37 570v112q0 74 44 120.5t114 46.5q69 0 113 -47t44 -120v-112q0 -73 -44 -119.5t-113 -46.5q-70 0 -114 46.5t-44 119.5zM282 570v112q0 46 -24.5 72t-62.5 26q-40 0 -64 -26t-24 -72v-112q0 -45 24 -71.5t64 -26.5q38 0 62.5 26.5t24.5 71.5z" />
    <glyph glyph-name="uni2070.aalt" horiz-adv-x="390" 
d="M352 682v-112q0 -73 -44 -119.5t-113 -46.5q-70 0 -114 46.5t-44 119.5v112q0 74 44 120.5t114 46.5q69 0 113 -47t44 -120zM107 682v-78l172 106q-7 33 -29.5 51.5t-54.5 18.5q-40 0 -64 -26t-24 -72zM282 570v80l-173 -106q7 -34 30 -53t56 -19q38 0 62.5 26.5
t24.5 71.5z" />
    <glyph glyph-name="uni2081" unicode="&#x2081;" horiz-adv-x="227" 
d="M10 249l52 69h105v-432h-70v363h-87z" />
    <glyph glyph-name="uni2082" unicode="&#x2082;" horiz-adv-x="353" 
d="M32 -114v25q0 40 16.5 69.5t40 50t63.5 48.5l21 15q38 28 55 49t17 50q0 28 -18.5 45.5t-48.5 17.5q-32 0 -53.5 -19.5t-21.5 -51.5h-71q0 62 42 101t105 39q57 0 96.5 -34t39.5 -96q0 -49 -22 -82t-72 -70l-23 -16q-32 -21 -49.5 -36.5t-24.5 -36.5h195v-68h-287z" />
    <glyph glyph-name="uni2083" unicode="&#x2083;" horiz-adv-x="365" 
d="M29 22h69q3 -35 27.5 -54.5t61.5 -19.5q32 0 53 17.5t21 46.5q0 32 -22 49.5t-59 17.5h-34v60h34q32 0 50.5 17t18.5 44q0 24 -19 40t-46 16q-33 0 -55 -19.5t-22 -51.5h-70q0 42 20 74t54 49t73 17q61 0 98.5 -34.5t37.5 -88.5q-1 -30 -15.5 -55t-36.5 -38
q29 -12 46.5 -38.5t17.5 -62.5q0 -57 -40.5 -92.5t-105.5 -35.5q-42 0 -77.5 17.5t-57.5 49.5t-22 75z" />
    <glyph glyph-name="uni2084" unicode="&#x2084;" horiz-adv-x="390" 
d="M368 57v-64h-58v-107h-70v107h-221v56l228 269h63v-261h58zM240 57v157l-134 -157h134z" />
    <glyph glyph-name="uni2085" unicode="&#x2085;" horiz-adv-x="349" 
d="M322 25q0 -64 -41 -104.5t-106 -40.5q-40 0 -74 17t-55 46t-22 64h71q7 -26 28.5 -42.5t52.5 -16.5q33 0 54.5 22.5t21.5 55.5t-21.5 55.5t-54.5 22.5q-26 0 -45 -11.5t-29 -32.5l-63 19l45 239h208v-68h-152l-20 -99q27 17 67 17q60 0 97.5 -40.5t37.5 -102.5z" />
    <glyph glyph-name="uni2086" unicode="&#x2086;" horiz-adv-x="343" 
d="M318 26q0 -62 -41.5 -104t-107.5 -42q-43 0 -77 19.5t-53 52.5t-19 72q0 32 12 56t38 58l141 180h87l-120 -153h5q34 0 65.5 -18t50.5 -49.5t19 -71.5zM247 25q0 33 -22.5 56t-55.5 23t-55.5 -23t-22.5 -56t22.5 -55.5t55.5 -22.5t55.5 22.5t22.5 55.5z" />
    <glyph glyph-name="uni2087" unicode="&#x2087;" horiz-adv-x="334" 
d="M320 318v-60l-202 -372h-79l199 364h-211v68h293z" />
    <glyph glyph-name="uni2088" unicode="&#x2088;" horiz-adv-x="361" 
d="M330 16q0 -59 -42 -97.5t-108 -38.5q-64 0 -106.5 38.5t-42.5 97.5q0 37 16 64.5t46 44.5q-41 32 -41 86q0 49 36 81.5t92 32.5q57 0 92.5 -32.5t35.5 -81.5q0 -54 -40 -86q30 -16 46 -44t16 -65zM120 206q0 -24 17 -40t43 -16q28 0 45 16t17 40t-17.5 40t-44.5 16
q-26 0 -43 -16t-17 -40zM258 18q0 31 -21 52.5t-56 21.5q-36 0 -57.5 -21.5t-21.5 -52.5q0 -30 21.5 -52t56.5 -22q36 0 57 21.5t21 52.5z" />
    <glyph glyph-name="uni2089" unicode="&#x2089;" horiz-adv-x="343" 
d="M323 181q0 -32 -12 -56.5t-38 -58.5l-142 -180h-87l120 154h-4q-34 0 -65.5 17.5t-50.5 49.5t-19 72q0 62 41.5 104t106.5 42q43 0 77.5 -19.5t53.5 -52.5t19 -72zM252 179q0 33 -22.5 56t-56.5 23q-33 0 -55 -23t-22 -56t22 -56t55 -23q34 0 56.5 23t22.5 56z" />
    <glyph glyph-name="uni2080" unicode="&#x2080;" horiz-adv-x="390" 
d="M37 46v112q0 74 44 120.5t114 46.5q69 0 113 -47t44 -120v-112q0 -73 -44 -119.5t-113 -46.5q-70 0 -114 46.5t-44 119.5zM282 46v112q0 46 -24.5 72t-62.5 26q-40 0 -64 -26t-24 -72v-112q0 -45 24 -71.5t64 -26.5q38 0 62.5 26.5t24.5 71.5z" />
    <glyph glyph-name="uni2080.aalt" horiz-adv-x="390" 
d="M352 158v-112q0 -73 -44 -119.5t-113 -46.5q-70 0 -114 46.5t-44 119.5v112q0 74 44 120.5t114 46.5q69 0 113 -47t44 -120zM107 158v-78l172 106q-7 33 -29.5 51.5t-54.5 18.5q-40 0 -64 -26t-24 -72zM282 46v80l-173 -106q7 -34 30 -53t56 -19q38 0 62.5 26.5
t24.5 71.5z" />
    <glyph glyph-name="one.numr" horiz-adv-x="227" 
d="M10 641l52 69h105v-432h-70v363h-87z" />
    <glyph glyph-name="two.numr" horiz-adv-x="353" 
d="M32 278v25q0 40 16.5 69.5t40 50t63.5 48.5l21 15q38 28 55 49t17 50q0 28 -18.5 45.5t-48.5 17.5q-32 0 -53.5 -19.5t-21.5 -51.5h-71q0 62 42 101t105 39q57 0 96.5 -34t39.5 -96q0 -49 -22 -82t-72 -70l-23 -16q-32 -21 -49.5 -36.5t-24.5 -36.5h195v-68h-287z" />
    <glyph glyph-name="three.numr" horiz-adv-x="365" 
d="M29 414h69q3 -35 27.5 -54.5t61.5 -19.5q32 0 53 17.5t21 46.5q0 32 -22 49.5t-59 17.5h-34v60h34q32 0 50.5 17t18.5 44q0 24 -19 40t-46 16q-33 0 -55 -19.5t-22 -51.5h-70q0 42 20 74t54 49t73 17q61 0 98.5 -34.5t37.5 -88.5q-1 -30 -15.5 -55t-36.5 -38
q29 -12 46.5 -38.5t17.5 -62.5q0 -57 -40.5 -92.5t-105.5 -35.5q-42 0 -77.5 17.5t-57.5 49.5t-22 75z" />
    <glyph glyph-name="four.numr" horiz-adv-x="390" 
d="M368 449v-64h-58v-107h-70v107h-221v56l228 269h63v-261h58zM240 449v157l-134 -157h134z" />
    <glyph glyph-name="five.numr" horiz-adv-x="349" 
d="M322 417q0 -64 -41 -104.5t-106 -40.5q-40 0 -74 17t-55 46t-22 64h71q7 -26 28.5 -42.5t52.5 -16.5q33 0 54.5 22.5t21.5 55.5t-21.5 55.5t-54.5 22.5q-26 0 -45 -11.5t-29 -32.5l-63 19l45 239h208v-68h-152l-20 -99q27 17 67 17q60 0 97.5 -40.5t37.5 -102.5z" />
    <glyph glyph-name="six.numr" horiz-adv-x="343" 
d="M318 418q0 -62 -41.5 -104t-107.5 -42q-43 0 -77 19.5t-53 52.5t-19 72q0 32 12 56t38 58l141 180h87l-120 -153h5q34 0 65.5 -18t50.5 -49.5t19 -71.5zM247 417q0 33 -22.5 56t-55.5 23t-55.5 -23t-22.5 -56t22.5 -55.5t55.5 -22.5t55.5 22.5t22.5 55.5z" />
    <glyph glyph-name="seven.numr" horiz-adv-x="334" 
d="M320 710v-60l-202 -372h-79l199 364h-211v68h293z" />
    <glyph glyph-name="eight.numr" horiz-adv-x="361" 
d="M330 408q0 -59 -42 -97.5t-108 -38.5q-64 0 -106.5 38.5t-42.5 97.5q0 37 16 64.5t46 44.5q-41 32 -41 86q0 49 36 81.5t92 32.5q57 0 92.5 -32.5t35.5 -81.5q0 -54 -40 -86q30 -16 46 -44t16 -65zM120 598q0 -24 17 -40t43 -16q28 0 45 16t17 40t-17.5 40t-44.5 16
q-26 0 -43 -16t-17 -40zM258 410q0 31 -21 52.5t-56 21.5q-36 0 -57.5 -21.5t-21.5 -52.5q0 -30 21.5 -52t56.5 -22q36 0 57 21.5t21 52.5z" />
    <glyph glyph-name="nine.numr" horiz-adv-x="343" 
d="M323 573q0 -32 -12 -56.5t-38 -58.5l-142 -180h-87l120 154h-4q-34 0 -65.5 17.5t-50.5 49.5t-19 72q0 62 41.5 104t106.5 42q43 0 77.5 -19.5t53.5 -52.5t19 -72zM252 571q0 33 -22.5 56t-56.5 23q-33 0 -55 -23t-22 -56t22 -56t55 -23q34 0 56.5 23t22.5 56z" />
    <glyph glyph-name="zero.numr" horiz-adv-x="390" 
d="M37 438v112q0 74 44 120.5t114 46.5q69 0 113 -47t44 -120v-112q0 -73 -44 -119.5t-113 -46.5q-70 0 -114 46.5t-44 119.5zM282 438v112q0 46 -24.5 72t-62.5 26q-40 0 -64 -26t-24 -72v-112q0 -45 24 -71.5t64 -26.5q38 0 62.5 26.5t24.5 71.5z" />
    <glyph glyph-name="zero.numr.zero" horiz-adv-x="390" 
d="M352 550v-112q0 -73 -44 -119.5t-113 -46.5q-70 0 -114 46.5t-44 119.5v112q0 74 44 120.5t114 46.5q69 0 113 -47t44 -120zM107 550v-78l172 106q-7 33 -29.5 51.5t-54.5 18.5q-40 0 -64 -26t-24 -72zM282 438v80l-173 -106q7 -34 30 -53t56 -19q38 0 62.5 26.5
t24.5 71.5z" />
    <glyph glyph-name="one.dnom" horiz-adv-x="227" 
d="M10 363l52 69h105v-432h-70v363h-87z" />
    <glyph glyph-name="two.dnom" horiz-adv-x="353" 
d="M32 0v25q0 40 16.5 69.5t40 50t63.5 48.5l21 15q38 28 55 49t17 50q0 28 -18.5 45.5t-48.5 17.5q-32 0 -53.5 -19.5t-21.5 -51.5h-71q0 62 42 101t105 39q57 0 96.5 -34t39.5 -96q0 -49 -22 -82t-72 -70l-23 -16q-32 -21 -49.5 -36.5t-24.5 -36.5h195v-68h-287z" />
    <glyph glyph-name="three.dnom" horiz-adv-x="365" 
d="M29 136h69q3 -35 27.5 -54.5t61.5 -19.5q32 0 53 17.5t21 46.5q0 32 -22 49.5t-59 17.5h-34v60h34q32 0 50.5 17t18.5 44q0 24 -19 40t-46 16q-33 0 -55 -19.5t-22 -51.5h-70q0 42 20 74t54 49t73 17q61 0 98.5 -34.5t37.5 -88.5q-1 -30 -15.5 -55t-36.5 -38
q29 -12 46.5 -38.5t17.5 -62.5q0 -57 -40.5 -92.5t-105.5 -35.5q-42 0 -77.5 17.5t-57.5 49.5t-22 75z" />
    <glyph glyph-name="four.dnom" horiz-adv-x="390" 
d="M368 171v-64h-58v-107h-70v107h-221v56l228 269h63v-261h58zM240 171v157l-134 -157h134z" />
    <glyph glyph-name="five.dnom" horiz-adv-x="349" 
d="M322 139q0 -64 -41 -104.5t-106 -40.5q-40 0 -74 17t-55 46t-22 64h71q7 -26 28.5 -42.5t52.5 -16.5q33 0 54.5 22.5t21.5 55.5t-21.5 55.5t-54.5 22.5q-26 0 -45 -11.5t-29 -32.5l-63 19l45 239h208v-68h-152l-20 -99q27 17 67 17q60 0 97.5 -40.5t37.5 -102.5z" />
    <glyph glyph-name="six.dnom" horiz-adv-x="343" 
d="M318 140q0 -62 -41.5 -104t-107.5 -42q-43 0 -77 19.5t-53 52.5t-19 72q0 32 12 56t38 58l141 180h87l-120 -153h5q34 0 65.5 -18t50.5 -49.5t19 -71.5zM247 139q0 33 -22.5 56t-55.5 23t-55.5 -23t-22.5 -56t22.5 -55.5t55.5 -22.5t55.5 22.5t22.5 55.5z" />
    <glyph glyph-name="seven.dnom" horiz-adv-x="334" 
d="M321 432v-60l-202 -372h-79l199 364h-211v68h293z" />
    <glyph glyph-name="eight.dnom" horiz-adv-x="361" 
d="M330 130q0 -59 -42 -97.5t-108 -38.5q-64 0 -106.5 38.5t-42.5 97.5q0 37 16 64.5t46 44.5q-41 32 -41 86q0 49 36 81.5t92 32.5q57 0 92.5 -32.5t35.5 -81.5q0 -54 -40 -86q30 -16 46 -44t16 -65zM120 320q0 -24 17 -40t43 -16q28 0 45 16t17 40t-17.5 40t-44.5 16
q-26 0 -43 -16t-17 -40zM258 132q0 31 -21 52.5t-56 21.5q-36 0 -57.5 -21.5t-21.5 -52.5q0 -30 21.5 -52t56.5 -22q36 0 57 21.5t21 52.5z" />
    <glyph glyph-name="nine.dnom" horiz-adv-x="343" 
d="M323 295q0 -32 -12 -56.5t-38 -58.5l-142 -180h-87l120 154h-4q-34 0 -65.5 17.5t-50.5 49.5t-19 72q0 62 41.5 104t106.5 42q43 0 77.5 -19.5t53.5 -52.5t19 -72zM252 293q0 33 -22.5 56t-56.5 23q-33 0 -55 -23t-22 -56t22 -56t55 -23q34 0 56.5 23t22.5 56z" />
    <glyph glyph-name="zero.dnom" horiz-adv-x="390" 
d="M37 160v112q0 74 44 120.5t114 46.5q69 0 113 -47t44 -120v-112q0 -73 -44 -119.5t-113 -46.5q-70 0 -114 46.5t-44 119.5zM282 160v112q0 46 -24.5 72t-62.5 26q-40 0 -64 -26t-24 -72v-112q0 -45 24 -71.5t64 -26.5q38 0 62.5 26.5t24.5 71.5z" />
    <glyph glyph-name="zero.dnom.zero" horiz-adv-x="391" 
d="M353 273v-112q0 -73 -44 -119.5t-113 -46.5q-70 0 -114 46.5t-44 119.5v112q0 74 44 120.5t114 46.5q69 0 113 -47t44 -120zM108 273v-78l172 106q-7 33 -29.5 51.5t-54.5 18.5q-40 0 -64 -26t-24 -72zM283 161v80l-173 -106q7 -34 30 -53t56 -19q38 0 62.5 26.5
t24.5 71.5z" />
    <glyph glyph-name="hyphen.aalt" horiz-adv-x="392" 
d="M323 398v-86h-255v86h255z" />
    <glyph glyph-name="uni00AD.aalt" horiz-adv-x="392" 
d="M323 398v-86h-255v86h255z" />
    <glyph glyph-name="endash.aalt" horiz-adv-x="571" 
d="M502 398v-86h-434v86h434z" />
    <glyph glyph-name="emdash.aalt" horiz-adv-x="641" 
d="M573 398v-86h-505v86h505z" />
    <glyph glyph-name="questiondown.aalt" horiz-adv-x="506" 
d="M200 647q0 30 22 52.5t52 22.5t52 -22.5t22 -52.5q0 -31 -21.5 -53t-52.5 -22t-52.5 22t-21.5 53zM225 324q-34 -26 -52.5 -42.5t-29.5 -38t-11 -49.5q0 -52 33.5 -87t86.5 -35q59 0 97.5 37t38.5 96h86q0 -59 -29 -109t-80 -79t-113 -29q-61 0 -107.5 28t-72.5 75
t-26 101q0 60 29 102t76 78q7 5 30.5 23.5t36 35.5t12.5 35v8h86v-20q0 -62 -91 -130z" />
    <glyph glyph-name="exclamdown.aalt" horiz-adv-x="278" 
d="M65 647q0 30 22 52.5t52 22.5t52 -22.5t22 -52.5q0 -31 -21.5 -53t-52.5 -22t-52.5 22t-21.5 53zM182 0h-86v285l16 189h54l16 -189v-285z" />
    <glyph glyph-name="guilsinglleft.aalt" horiz-adv-x="333" 
d="M265 572l-116 -217l116 -217h-73l-141 217l141 217h73z" />
    <glyph glyph-name="guilsinglright.aalt" horiz-adv-x="333" 
d="M282 355l-141 -217h-73l116 217l-116 217h73z" />
    <glyph glyph-name="guillemotleft.aalt" horiz-adv-x="506" 
d="M438 572l-116 -217l116 -217h-73l-141 217l141 217h73zM265 572l-116 -217l116 -217h-73l-141 217l141 217h73z" />
    <glyph glyph-name="guillemotright.aalt" horiz-adv-x="506" 
d="M455 355l-141 -217h-73l116 217l-116 217h73zM282 355l-141 -217h-73l116 217l-116 217h73z" />
    <glyph glyph-name="parenleft.aalt" horiz-adv-x="278" 
d="M50 354q0 248 128 480h70q-63 -122 -92 -238.5t-29 -241.5t29 -241.5t92 -238.5h-70q-128 232 -128 480z" />
    <glyph glyph-name="parenright.aalt" horiz-adv-x="277" 
d="M29 -126q63 122 92 238.5t29 241.5t-29 241.5t-92 238.5h70q128 -232 128 -480t-128 -480h-70z" />
    <glyph glyph-name="bracketleft.aalt" horiz-adv-x="314" 
d="M282 835v-72h-109v-816h109v-72h-187v960h187z" />
    <glyph glyph-name="bracketright.aalt" horiz-adv-x="313" 
d="M218 -125h-187v72h109v816h-109v72h187v-960z" />
    <glyph glyph-name="braceleft.aalt" horiz-adv-x="323" 
d="M105 18v230q0 37 -11.5 54t-46.5 17h-15v72h15q35 0 46.5 16.5t11.5 53.5v231q0 72 29 107.5t97 35.5h61v-72h-48q-37 0 -49 -16.5t-12 -56.5v-225q0 -47 -12 -72t-42 -38q30 -14 42 -39t12 -72v-224q0 -41 12 -57t49 -16h48v-72h-60q-69 0 -98 35t-29 108z" />
    <glyph glyph-name="braceright.aalt" horiz-adv-x="323" 
d="M31 -125v72h48q37 0 49 16t12 57v224q0 47 12 72t42 39q-30 13 -42 38t-12 72v225q0 40 -12 56.5t-49 16.5h-48v72h61q68 0 97 -35.5t29 -107.5v-231q0 -37 11.5 -53.5t46.5 -16.5h15v-72h-15q-35 0 -46.5 -17t-11.5 -54v-230q0 -73 -29 -108t-98 -35h-60z" />
    <glyph glyph-name="bar.aalt" horiz-adv-x="267" 
d="M173 765v-820h-79v820h79z" />
    <glyph glyph-name="brokenbar.aalt" horiz-adv-x="267" 
d="M173 765v-362h-79v362h79zM173 307v-362h-79v362h79z" />
    <glyph glyph-name="periodcentered.aalt" horiz-adv-x="279" 
d="M66 355q0 30 22 52.5t52 22.5t52 -22.5t22 -52.5q0 -31 -21.5 -53t-52.5 -22t-52.5 22t-21.5 53z" />
    <glyph glyph-name="plus.aalt" horiz-adv-x="500" 
d="M211 393v172h78v-172h172v-77h-172v-172h-78v172h-173v77h173z" />
    <glyph glyph-name="minus.aalt" horiz-adv-x="560" 
d="M492 393v-77h-423v77h423z" />
    <glyph glyph-name="multiply.aalt" horiz-adv-x="503" 
d="M196 355l-143 140l56 56l143 -140l142 140l56 -56l-143 -140l143 -141l-56 -55l-142 140l-143 -140l-56 55z" />
    <glyph glyph-name="equal.aalt" horiz-adv-x="560" 
d="M492 502v-77h-424v77h424zM492 284v-76h-424v76h424z" />
    <glyph glyph-name="less.aalt" horiz-adv-x="446" 
d="M147 355l253 -253h-109l-253 253l253 253h109z" />
    <glyph glyph-name="greater.aalt" horiz-adv-x="446" 
d="M408 355l-253 -253h-109l253 253l-253 253h109z" />
    <glyph glyph-name="acute.aalt" 
d="M93 917l-114 -148h-72l78 148h108z" />
    <glyph glyph-name="breve.aalt" 
d="M159 917q0 -47 -21 -83t-57.5 -55.5t-80.5 -19.5t-80.5 19.5t-57.5 55.5t-21 83h58q0 -47 28.5 -74t72.5 -27t72.5 27t28.5 74h58v0z" />
    <glyph glyph-name="caron.aalt" 
d="M-166 926l166 -87l166 87v-77l-166 -87l-166 87v77z" />
    <glyph glyph-name="cedilla.aalt" 
d="M-22 -219q-53 0 -85 15v55q15 -8 35.5 -12.5t40.5 -4.5q29 0 48.5 10t19.5 31q0 30 -46 30q-22 0 -45 -10l-32 21l52 87h55l-34 -56q17 7 40 7q35 0 57.5 -20.5t22.5 -55.5q0 -43 -37 -70t-92 -27z" />
    <glyph glyph-name="circumflex.aalt" 
d="M0 926l166 -87v-77l-166 87l-166 -87v77z" />
    <glyph glyph-name="dieresis.aalt" 
d="M-171 843q0 24 17 41.5t42 17.5q24 0 41 -17.5t17 -41.5t-17 -41t-41 -17q-25 0 -42 17t-17 41zM54 843q0 24 17.5 41.5t41.5 17.5t41 -17.5t17 -41.5t-17 -41t-41 -17t-41.5 17t-17.5 41z" />
    <glyph glyph-name="dotaccent.aalt" 
d="M-59 843q0 24 17 41.5t42 17.5q24 0 41 -17.5t17 -41.5t-17 -41t-41 -17q-25 0 -42 17t-17 41z" />
    <glyph glyph-name="glyph523" 
d="M-59 0q0 24 17 41.5t42 17.5q24 0 41 -17.5t17 -41.5t-17 -41t-41 -17q-25 0 -42 17t-17 41z" />
    <glyph glyph-name="glyph524" 
d="M-59 -132q0 24 17 41.5t42 17.5q24 0 41 -17.5t17 -41.5t-17 -41t-41 -17q-25 0 -42 17t-17 41z" />
    <glyph glyph-name="grave.aalt" 
d="M-93 917h108l78 -148h-72z" />
    <glyph glyph-name="hungarumlaut.aalt" 
d="M0 917l-109 -148h-59l69 148h99zM167 917l-109 -148h-59l69 148h99z" />
    <glyph glyph-name="macron.aalt" 
d="M161 874v-69h-322v69h322z" />
    <glyph glyph-name="ogonek.aalt" 
d="M-88 -130q0 40 23 70t60 60h93q-46 -28 -69 -58t-23 -54q0 -16 10.5 -24.5t25.5 -8.5q29 0 56 22v-70q-32 -26 -81 -26q-40 0 -67.5 25t-27.5 64z" />
    <glyph glyph-name="ring.aalt" 
d="M-121 872q0 32 16.5 60t44.5 44.5t61 16.5q32 0 60 -16.5t44.5 -44.5t16.5 -60q0 -50 -35.5 -85.5t-85.5 -35.5t-86 35.5t-36 85.5zM1 932q-24 0 -42 -18t-18 -43q0 -23 17.5 -41t42.5 -18q23 0 41.5 17.5t18.5 41.5q0 25 -17.5 43t-42.5 18z" />
    <glyph glyph-name="tilde.aalt" 
d="M-64 899q19 0 36.5 -6.5t43.5 -19.5q13 -7 26.5 -12.5t22.5 -5.5q33 0 43 44h66l-4 -19q-8 -42 -37 -68t-69 -26q-19 0 -36.5 6.5t-43.5 19.5q-32 18 -48 18q-17 0 -27.5 -10.5t-16.5 -33.5h-65l3 18q7 43 36.5 69t69.5 26z" />
    <glyph glyph-name="uni0326.aalt" 
d="M-58 -132q0 24 17 41.5t41 17.5t41 -17.5t17 -41.5q0 -17 -11 -35l-64 -102h-45l36 85q-14 8 -23 22t-9 30z" />
    <glyph glyph-name="glyph532" 
d="M163 401v-82h-326v82h326z" />
    <glyph glyph-name="glyph533" 
d="M-339 32l623 698l55 -51l-622 -699z" />
    <glyph glyph-name="glyph534" 
d="M-163 297l325 210v-84l-325 -210v84z" />
    <glyph glyph-name="glyph535" 
d="M203 419v-81h-405v81h405z" />
    <glyph glyph-name="glyph536" 
d="M360 605v-72h-721v72h721z" />
    <glyph glyph-name="glyph537" 
d="M-58 655q0 18 11 34l64 103h45l-36 -85q14 -8 23 -22t9 -30q0 -24 -17 -41.5t-41 -17.5t-41 17.5t-17 41.5z" />
    </font>
</defs>
</svg>
